<?xml version="1.0" standalone="no"?>
<!DOCTYPE svg PUBLIC "-//W3C//DTD SVG 1.1//EN" "http://www.w3.org/Graphics/SVG/1.1/DTD/svg11.dtd" >
<svg xmlns="http://www.w3.org/2000/svg">
<metadata>Generated by IcoMoon</metadata>
<defs>
<font id="wpbc-icons" horiz-adv-x="1024">
<font-face units-per-em="1024" ascent="960" descent="-64" />
<missing-glyph horiz-adv-x="1024" />
<glyph unicode="&#x20;" horiz-adv-x="512" d="" />
<glyph unicode="&#xe900;" glyph-name="angle-down" d="M959.835 671.707l-25.070 24.357-431.579-444.288-431.506 444.288-25.070-24.357 456.576-470.089z" />
<glyph unicode="&#xe901;" glyph-name="angle-left" d="M726.071-7.808l24.357 25.070-444.288 431.579 444.288 431.506-24.357 25.070-470.071-456.576z" />
<glyph unicode="&#xe902;" glyph-name="angle-right" d="M280.357 905.417l-24.357-25.070 444.288-431.579-444.288-431.506 24.357-25.070 470.071 456.576z" />
<glyph unicode="&#xe903;" glyph-name="angle-up" d="M46.629 225.938l25.070-24.357 431.579 444.288 431.488-444.288 25.070 24.357-456.558 470.071z" />
<glyph unicode="&#xe904;" glyph-name="caret-down" d="M205.056 640h613.888l-306.944-350.784-306.944 350.784zM156.864 597.824l306.944-350.72c11.793-13.445 29.007-21.887 48.192-21.887s36.399 8.442 48.129 21.814l0.063 0.073 306.944 350.72c36.224 41.408 6.784 106.176-48.192 106.176h-613.888c-0.016 0-0.036 0-0.055 0-35.346 0-64-28.654-64-64 0-16.19 6.012-30.976 15.924-42.247l-0.062 0.071z" />
<glyph unicode="&#xe905;" glyph-name="caret-down-fill" d="M463.808 247.040l-306.944 350.848c-36.224 41.28-6.784 106.112 48.192 106.112h613.888c0.016 0 0.036 0 0.055 0 35.346 0 64-28.654 64-64 0-16.19-6.012-30.976-15.924-42.247l0.062 0.071-306.944-350.72c-11.793-13.445-29.007-21.887-48.192-21.887s-36.399 8.442-48.129 21.814l-0.063 0.073z" />
<glyph unicode="&#xe906;" glyph-name="caret-left" d="M640 141.056v613.888l-350.784-306.944 350.784-306.944zM597.824 92.864l-350.72 306.944c-13.445 11.793-21.887 29.007-21.887 48.192s8.442 36.399 21.814 48.129l0.073 0.063 350.72 306.944c11.2 9.851 25.986 15.863 42.176 15.863 35.346 0 64-28.654 64-64 0-0.019 0-0.039 0-0.058v0.003-613.888c0-0.016 0-0.036 0-0.055 0-35.346-28.654-64-64-64-16.19 0-30.976 6.012-42.247 15.924l0.071-0.062z" />
<glyph unicode="&#xe907;" glyph-name="caret-left-fill" d="M247.040 399.808l350.848-306.944c41.344-36.224 106.112-6.784 106.112 48.192v613.888c0 0.016 0 0.036 0 0.055 0 35.346-28.654 64-64 64-16.19 0-30.976-6.012-42.247-15.924l0.071 0.062-350.72-306.944c-13.445-11.793-21.887-29.007-21.887-48.192s8.442-36.399 21.814-48.129l0.073-0.063z" />
<glyph unicode="&#xe908;" glyph-name="caret-right" d="M384 141.056v613.888l350.784-306.944-350.784-306.944zM426.176 92.864l350.72 306.944c13.445 11.793 21.887 29.007 21.887 48.192s-8.442 36.399-21.814 48.129l-0.073 0.063-350.656 306.944c-41.536 36.224-106.24 6.784-106.24-48.192v-613.888c0-0.016 0-0.036 0-0.055 0-35.346 28.654-64 64-64 16.19 0 30.976 6.012 42.247 15.924l-0.071-0.062z" />
<glyph unicode="&#xe909;" glyph-name="caret-right-fill" d="M776.96 399.808l-350.848-306.944c-41.344-36.224-106.112-6.784-106.112 48.192v613.888c0 0.016 0 0.036 0 0.055 0 35.346 28.654 64 64 64 16.19 0 30.976-6.012 42.247-15.924l-0.071 0.062 350.72-306.944c13.445-11.793 21.887-29.007 21.887-48.192s-8.442-36.399-21.814-48.129l-0.073-0.063z" />
<glyph unicode="&#xe90a;" glyph-name="caret-up" d="M205.056 256h613.888l-306.944 350.784-306.944-350.784zM156.864 298.176l306.944 350.72c11.793 13.445 29.007 21.887 48.192 21.887s36.399-8.442 48.129-21.814l0.063-0.073 306.944-350.72c36.224-41.408 6.784-106.176-48.192-106.176h-613.888c-0.016 0-0.036 0-0.055 0-35.346 0-64 28.654-64 64 0 16.19 6.012 30.976 15.924 42.247l-0.062-0.071z" />
<glyph unicode="&#xe90b;" glyph-name="caret-up-fill" d="M463.808 648.96l-306.944-350.784c-36.224-41.408-6.784-106.176 48.192-106.176h613.888c0.016 0 0.036 0 0.055 0 35.346 0 64 28.654 64 64 0 16.19-6.012 30.976-15.924 42.247l0.062-0.071-306.944 350.72c-11.793 13.445-29.007 21.887-48.192 21.887s-36.399-8.442-48.129-21.814l-0.063-0.073z" />
<glyph unicode="&#xe90c;" glyph-name="check" d="M702.080 641.92c8.594 8.194 20.257 13.235 33.097 13.235 26.51 0 48-21.49 48-48 0-12.522-4.795-23.924-12.649-32.47l0.031 0.035-255.36-319.36c-8.791-9.449-21.296-15.341-35.177-15.341-13.256 0-25.257 5.373-33.943 14.061l-169.344 169.344c-9.411 8.787-15.277 21.267-15.277 35.117 0 26.51 21.49 48 48 48 13.85 0 26.33-5.866 35.092-15.249l0.026-0.028 134.016-133.952 222.272 283.2c0.417 0.512 0.836 0.971 1.278 1.406l0.002 0.002z" />
<glyph unicode="&#xe90d;" glyph-name="check2" d="M886.656 726.656c5.808-5.794 9.401-13.805 9.401-22.656s-3.593-16.862-9.401-22.655l-448.001-448.001c-5.794-5.808-13.805-9.401-22.656-9.401s-16.862 3.593-22.655 9.401l-224.001 224.001c-5.798 5.798-9.384 13.808-9.384 22.656 0 17.695 14.345 32.040 32.040 32.040 8.848 0 16.858-3.586 22.656-9.384v0l201.344-201.408 425.344 425.408c5.794 5.808 13.805 9.401 22.656 9.401s16.862-3.593 22.655-9.401l0.001-0.001z" />
<glyph unicode="&#xe90e;" glyph-name="check2-all" d="M790.656 681.344c5.798 5.798 9.384 13.808 9.384 22.656 0 17.695-14.345 32.040-32.040 32.040-8.848 0-16.858-3.586-22.656-9.384v0l-425.344-425.408-201.344 201.408c-5.798 5.798-13.808 9.384-22.656 9.384-17.695 0-32.040-14.345-32.040-32.040 0-8.848 3.586-16.858 9.384-22.656l224-224c5.794-5.808 13.805-9.401 22.656-9.401s16.862 3.593 22.655 9.401l448.001 448.001zM521.344 233.344l-57.344 57.408 45.248 45.248 34.752-34.752 425.344 425.408c5.798 5.798 13.808 9.384 22.656 9.384 17.695 0 32.040-14.345 32.040-32.040 0-8.848-3.586-16.858-9.384-22.656v0l-448-448c-5.794-5.808-13.805-9.401-22.656-9.401s-16.862 3.593-22.655 9.401l-0.001 0.001zM342.656 502.656l57.344-57.408-45.248-45.248-57.408 57.344c-5.798 5.798-9.384 13.808-9.384 22.656 0 17.695 14.345 32.040 32.040 32.040 8.848 0 16.858-3.586 22.656-9.384v0z" />
<glyph unicode="&#xe90f;" glyph-name="check-all" d="M574.080 641.92c8.594 8.194 20.257 13.235 33.097 13.235 26.51 0 48-21.49 48-48 0-12.522-4.795-23.924-12.649-32.47l0.031 0.035-255.36-319.36c-8.791-9.449-21.296-15.341-35.177-15.341-13.256 0-25.257 5.373-33.943 14.061l-169.344 169.344c-9.411 8.787-15.277 21.267-15.277 35.117 0 26.51 21.49 48 48 48 13.85 0 26.33-5.866 35.092-15.249l0.026-0.028 134.016-133.952 222.208 283.2c0.415 0.512 0.833 0.971 1.277 1.405l0.003 0.003zM515.2 312.96l58.88-58.88c8.683-8.668 20.671-14.028 33.91-14.028 13.865 0 26.357 5.879 35.119 15.279l0.026 0.029 255.488 319.36c8.816 8.707 14.277 20.795 14.277 34.158 0 26.51-21.49 48-48 48-14.366 0-27.258-6.311-36.055-16.312l-0.046-0.053-222.272-283.2-31.040 31.104-60.352-75.456z" />
<glyph unicode="&#xe910;" glyph-name="check-lg" d="M863.040 868.416c17.090 17.245 40.783 27.922 66.97 27.922 52.065 0 94.272-42.207 94.272-94.272 0-25.518-10.139-48.669-26.608-65.642l0.023 0.024-501.76-627.264c-17.265-18.55-41.819-30.117-69.075-30.117-26.005 0-49.551 10.53-66.607 27.558l-332.671 332.543c-17.053 17.061-27.6 40.627-27.6 66.656 0 52.074 42.214 94.288 94.288 94.288 26.045 0 49.624-10.56 66.688-27.632l263.104-263.168 436.48 556.16c0.829 1.054 1.667 1.993 2.558 2.878l0.002 0.002z" />
<glyph unicode="&#xe911;" glyph-name="x" d="M297.344 662.656c5.794 5.808 13.805 9.401 22.656 9.401s16.862-3.593 22.655-9.401l169.345-169.409 169.344 169.408c5.798 5.798 13.808 9.384 22.656 9.384 17.695 0 32.040-14.345 32.040-32.040 0-8.848-3.586-16.858-9.384-22.656v0l-169.408-169.344 169.408-169.344c5.798-5.798 9.384-13.808 9.384-22.656 0-17.695-14.345-32.040-32.040-32.040-8.848 0-16.858 3.586-22.656 9.384v0l-169.344 169.408-169.344-169.408c-5.798-5.798-13.808-9.384-22.656-9.384-17.695 0-32.040 14.345-32.040 32.040 0 8.848 3.586 16.858 9.384 22.656v0l169.408 169.344-169.408 169.344c-5.808 5.794-9.401 13.805-9.401 22.656s3.593 16.862 9.401 22.655l0.001 0.001z" />
<glyph unicode="&#xe912;" glyph-name="x-lg" d="M82.752 877.248c11.581 11.578 27.578 18.738 45.248 18.738s33.667-7.161 45.248-18.739l338.752-338.752 338.752 338.752c11.654 12.054 27.97 19.538 46.034 19.538 35.346 0 64-28.654 64-64 0-18.064-7.484-34.38-19.52-46.017l-0.018-0.017-338.752-338.752 338.752-338.752c11.116-11.497 17.966-27.179 17.966-44.462 0-35.346-28.654-64-64-64-17.282 0-32.964 6.85-44.48 17.983l0.018-0.017-338.752 338.752-338.752-338.752c-11.497-11.116-27.179-17.966-44.462-17.966-35.346 0-64 28.654-64 64 0 17.282 6.85 32.964 17.983 44.48l-0.017-0.018 338.752 338.752-338.752 338.752c-11.578 11.581-18.738 27.578-18.738 45.248s7.161 33.667 18.739 45.248v0z" />
<glyph unicode="&#xe913;" glyph-name="images" d="M994.693 837.12c-14.090 58.87-62.853 97.014-124.293 97.147q-125.952 0.276-251.72 0.133h-318.853q-72.428 0-144.835-0.113c-74.824-0.143-129.167-54.159-129.229-128.522q-0.297-357.673 0-715.377c0.061-73.277 55.552-128.594 129.096-128.645q357.12-0.276 714.209 0c74.834 0.061 129.188 54.62 129.229 129.72q0.205 356.516-0.102 713.021c0.004 0.382 0.006 0.833 0.006 1.285 0 11.114-1.278 21.93-3.696 32.309l0.188-0.958zM90.051 802.304c0 42.373 25.518 67.676 68.25 67.676h706.98c43.674 0 68.731-24.924 68.731-68.383v-547.779l-104.571 83.251c-41.308 32.911-83.835 33.925-126.444 3.072l-113.009-81.725c-18.842-13.609-32.072-12.534-48.742 4.096l-40.878 40.888q-35.543 35.584-71.158 71.096c-41.861 41.687-93.972 43.643-139.336 5.243q-73.359-62.034-146.831-123.904l-34.734-29.297c-1.556-1.311-3.154-2.55-5.263-4.168l-13.005-10.127zM934.072 108.308l-0.072-15.36c-0.092-41.247-25.6-66.888-66.652-66.908h-708.116c-43.653 0-67.758 23.818-69.704 68.844-1.024 22.61 6.144 37.96 24.576 53.002 53.832 43.837 107.837 89.303 160.082 133.274q29.696 25.006 59.392 49.961c18.688 15.657 33.372 14.807 50.719-2.877l111.718-113.992c39.803-40.602 90.204-44.319 134.912-9.902q31.283 24.105 62.464 48.343l46.868 36.28c17.295 13.312 30.075 13.22 47.165-0.451l17.132-13.732c40.131-32.133 80.241-64.256 120.064-96.748 4.997-4.096 8.817-11.95 9.062-18.698 0.563-17.039 0.481-34.324 0.389-51.036zM662.794 466.145h1.782c33.966 0 66.396 13.435 91.494 37.96 25.866 25.293 40.284 58.716 40.612 94.106 0.655 72.806-58.368 133.12-131.502 134.451h-2.386c-34.15 0-66.56-13.312-91.617-37.519-24.887-23.943-40.49-57.383-40.959-94.469l-0.001-0.087c-0.983-73.124 58.501-133.437 132.577-134.441zM665.17 668.16c19.412-0.691 36.707-9.21 48.923-22.479l0.045-0.049c11.195-11.902 18.073-27.976 18.073-45.655 0-0.913-0.018-1.821-0.055-2.725l0.004 0.13c-0.91-19.361-9.493-36.554-22.754-48.737l-0.051-0.046c-11.835-11.054-27.755-17.865-45.266-17.94h-0.015c-1.024 0-2.048 0-3.072 0.082-19.442 0.868-36.698 9.555-48.822 22.969l-0.054 0.061c-10.848 11.779-17.498 27.569-17.498 44.912 0 1.218 0.033 2.428 0.098 3.629l-0.007-0.167c2.068 37.827 33.843 67.512 70.451 66.017z" />
<glyph unicode="&#xe914;" glyph-name="envelope" d="M516.321 113.633q-193.618 0-387.215 0c-35.84 0-63.13 14.961-79.872 47.37-6.226 12.104-8.581 25.16-8.581 38.574q-0.123 248.402 0 496.794c0.082 50.647 36.792 85.903 88.422 85.924q315.249 0.092 630.508 0c48.282 0 96.573 0.195 144.855-0.061 35.584-0.195 62.3-15.688 78.674-47.739 6.144-12.083 8.397-25.19 8.407-38.615q0.072-247.921-0.051-495.862c-0.072-50.831-36.536-86.333-87.982-86.374q-193.546-0.133-387.164-0.010zM137.308 726.118c0.853-1.244 1.671-2.312 2.538-3.337l-0.049 0.060q157.952-157.164 315.945-314.245c9.052-8.991 19.374-16.333 31.652-20.48 35.389-11.858 65.536-3.011 91.597 22.876q154.962 154.235 309.944 308.429c1.843 1.833 4.516 3.164 4.997 6.697zM137.308 172.022l1.26-1.772h755.999c-0.585 0.893-1.151 1.658-1.756 2.389l0.035-0.044q-116.224 115.548-232.366 231.188c-4.495 4.485-6.666 3.072-10.291-0.594-13.752-13.824-27.331-27.863-41.789-40.96-48.527-43.817-122.245-47.104-174.572-8.192-18.708 13.926-34.048 31.508-50.401 47.944-5.581 5.601-8.335 5.12-13.701-0.195q-112.701-112.507-225.874-224.563c-1.969-1.76-4.112-3.467-6.349-5.050l-0.226-0.151zM97.004 686.070v-476.191c2.253 1.956 3.666 3.072 4.915 4.28q114.883 114.135 229.857 228.198c5.12 5.12 3.4 7.465-0.717 11.551q-113.971 113.091-227.748 226.396c-1.71 1.71-3.564 3.277-6.339 5.806zM935.578 686.264c-2.56-2.232-3.963-3.318-5.212-4.567q-114.872-114.166-229.837-228.239c-5.868-5.796-2.836-8.192 1.167-12.206q113.316-112.456 226.529-224.983c2.048-2.048 3.584-4.864 7.322-5.417z" />
<glyph unicode="&#xe915;" glyph-name="print" d="M511.744-38.205q-112.957 0-225.935 0c-54.815 0-90.9 36.127-90.941 90.962 0 38.287-0.184 76.585 0.174 114.872 0.061 7.045-1.659 9.288-8.868 8.888-33.229-1.874-65.075 3.123-93.481 21.791-43.008 28.293-66.171 68.291-66.652 119.859-0.717 76.257-0.399 152.525-0.133 228.792 0.069 78.36 63.448 141.893 141.742 142.213h0.031c6.646 0.051 13.312 0.41 19.927-0.102 5.97-0.461 7.434 1.69 7.383 7.465-0.266 31.324-0.205 62.648-0.102 93.972 0.225 69.222 46.387 126.198 114.012 140.759 8.527 1.87 18.321 2.941 28.365 2.941 0.295 0 0.59-0.001 0.884-0.003h-0.045q173.742-0.092 347.453-0.082c80.456-0.133 143.258-62.915 143.616-143.227 0.143-31.324 0.195-62.648-0.113-93.983-0.061-6.277 1.792-8.079 7.956-7.844 23.552 0.911 46.684-0.512 69.079-9.062 54.712-20.9 91.771-73.124 92.027-131.717q0.502-115.333 0-230.687c-0.42-77.558-63.396-140.288-140.882-141.179-6.646-0.072-13.312-0.502-19.917 0.102-6.912 0.625-8.315-2.048-8.264-8.52 0.287-38.605 0.174-77.21 0.133-115.814-0.061-54.139-36.342-90.358-90.563-90.388q-113.428-0.061-226.888-0.010zM512.563 632.177q-171.336 0-342.671-0.061c-49.388-0.082-86.784-37.161-86.958-86.252-0.266-75.622-0.512-151.245 0.133-226.867 0.307-37.059 18.76-63.488 52.419-78.848 16.62-7.619 34.488-6.697 52.224-6.851 6.072-0.061 7.342 1.966 7.281 7.588-0.297 22.784-0.123 45.568-0.123 68.342 0 18.002 0 18.002-18.227 19.19-14.735 0.963-26.368 12.339-27.279 26.696-0.029 0.483-0.046 1.048-0.046 1.616 0 13.771 9.739 25.267 22.705 27.976l0.186 0.032c3.963 0.809 8.192 0.625 12.288 0.625q327.475 0 654.971 0c0.928 0.033 2.018 0.051 3.113 0.051 2.241 0 4.464-0.078 6.666-0.232l-0.297 0.017c13.419-1.445 24.009-11.895 25.657-25.121l0.014-0.141c1.536-13.148-6.728-25.528-19.671-30.085-5.581-1.966-11.264-1.864-16.886-1.382-6.922 0.594-9.216-1.362-9.052-8.724 0.532-22.139 0.195-44.298 0.195-66.437 0-19.907 0-19.907 20.337-19.896 55.962 0 91.648 35.891 91.668 92.16q0 107.254 0 214.528c0 56.648-35.676 92.16-92.621 92.16zM512.092 328.315c-83.517 0-167.035-0.113-250.552 0.195-7.895 0-9.882-1.966-9.851-9.861 0.297-88.893 0.174-177.787 0.195-266.68q0-33.188 33.27-33.157h453.632c22.272 0 33.382 10.988 33.382 33.044 0 88.893-0.092 177.787 0.195 266.68 0 7.721-1.659 10.015-9.738 9.984-83.497-0.328-167.014-0.205-250.532-0.205zM512.092 689.183c83.231 0 166.472 0.102 249.702-0.154 7.741 0 10.906 1.024 10.701 10.025-0.696 30.044-0.143 60.119-0.287 90.194-0.287 50.944-37.181 87.808-88.33 87.869q-171.858 0.164-343.706 0c-51.2 0-88.064-36.864-88.269-87.9-0.123-29.747 0.266-59.505-0.215-89.242-0.133-8.335 1.649-11.059 10.65-11.018 83.231 0.389 166.472 0.225 249.713 0.225zM222.812 510.638c-14.531 0-29.061-0.133-43.592 0-17.408 0.205-30.075 12.554-29.901 28.795 0.174 15.831 12.728 28.027 29.583 28.129q44.544 0.256 89.088 0c16.865-0.113 29.348-12.38 29.43-28.283s-12.339-28.303-29.133-28.58c-15.145-0.236-30.31-0.051-45.476-0.061zM511.396 206.776c-24.023 0-48.046 0-72.059 0-18.975 0-31.969 11.95-31.744 28.897 0.215 16.517 13.087 28.058 31.58 28.078q73.011 0.072 146.012 0c18.432 0 31.232-11.796 31.273-28.396s-12.78-28.488-31.119-28.559c-24.637-0.092-49.295-0.020-73.943-0.020zM512.051 85.238c-24.33 0-48.671-0.061-73.001 0-18.432 0.061-31.293 11.674-31.447 28.232-0.164 16.906 12.831 28.672 31.867 28.744q72.53 0.061 145.070 0c19.098 0 32.061-11.766 31.928-28.672s-13.036-28.252-32.358-28.293c-23.982-0.051-48.036-0.010-72.059-0.010z" />
<glyph unicode="&#xe916;" glyph-name="chevron-compact-down" d="M99.392 526.336c5.38 10.543 16.159 17.637 28.596 17.637 5.206 0 10.122-1.243 14.467-3.449l-0.182 0.084 369.728-184.768 369.664 184.832c4.233 2.208 9.244 3.503 14.558 3.503 17.673 0 32-14.327 32-32 0-12.534-7.206-23.384-17.701-28.635l-0.185-0.084-384-192c-4.176-2.138-9.11-3.391-14.336-3.391s-10.16 1.253-14.517 3.475l0.181-0.084-384 192c-10.543 5.38-17.637 16.159-17.637 28.596 0 5.206 1.243 10.122 3.449 14.467l-0.084-0.182z" />
<glyph unicode="&#xe917;" glyph-name="chevron-compact-left" d="M590.336 860.608c10.543-5.38 17.637-16.159 17.637-28.596 0-5.206-1.243-10.122-3.449-14.467l0.084 0.182-184.768-369.728 184.832-369.664c2.208-4.233 3.503-9.244 3.503-14.558 0-17.673-14.327-32-32-32-12.534 0-23.384 7.206-28.635 17.701l-0.084 0.185-192 384c-2.138 4.176-3.391 9.11-3.391 14.336s1.253 10.16 3.475 14.517l-0.084-0.181 192 384c5.38 10.543 16.159 17.637 28.596 17.637 5.206 0 10.122-1.243 14.467-3.449l-0.182 0.084z" />
<glyph unicode="&#xe918;" glyph-name="chevron-compact-right" d="M433.664 860.608c4.176 2.138 9.109 3.391 14.336 3.391 12.446 0 23.233-7.106 28.524-17.481l0.084-0.181 192-384c2.138-4.176 3.391-9.11 3.391-14.336s-1.253-10.16-3.475-14.517l0.084 0.181-192-384c-5.335-10.68-16.185-17.886-28.719-17.886-17.673 0-32 14.327-32 32 0 5.314 1.295 10.325 3.587 14.735l-0.084-0.178 184.768 369.664-184.768 369.664c-2.138 4.176-3.391 9.109-3.391 14.336 0 12.446 7.106 23.233 17.481 28.524l0.181 0.084z" />
<glyph unicode="&#xe919;" glyph-name="chevron-compact-up" d="M497.664 604.608c4.176 2.138 9.11 3.391 14.336 3.391s10.16-1.253 14.517-3.475l-0.181 0.084 384-192c10.68-5.335 17.886-16.185 17.886-28.719 0-17.673-14.327-32-32-32-5.314 0-10.325 1.295-14.735 3.587l0.178-0.084-369.664 184.768-369.664-184.768c-4.233-2.208-9.244-3.503-14.558-3.503-17.673 0-32 14.327-32 32 0 12.534 7.206 23.384 17.701 28.635l0.185 0.084 384 192z" />
<glyph unicode="&#xe91a;" glyph-name="chevron-contract" d="M233.344 73.344c5.794-5.808 13.805-9.401 22.656-9.401s16.862 3.593 22.655 9.401l233.345 233.409 233.344-233.408c5.798-5.798 13.808-9.384 22.656-9.384 17.695 0 32.040 14.345 32.040 32.040 0 8.848-3.586 16.858-9.384 22.656v0l-256 256c-5.794 5.808-13.805 9.401-22.656 9.401s-16.862-3.593-22.655-9.401l-256.001-256.001c-5.808-5.794-9.401-13.805-9.401-22.656s3.593-16.862 9.401-22.655l0.001-0.001zM233.344 822.656c5.794 5.808 13.805 9.401 22.656 9.401s16.862-3.593 22.655-9.401l233.345-233.409 233.344 233.408c5.798 5.798 13.808 9.384 22.656 9.384 17.695 0 32.040-14.345 32.040-32.040 0-8.848-3.586-16.858-9.384-22.656l-256-256c-5.794-5.808-13.805-9.401-22.656-9.401s-16.862 3.593-22.655 9.401l-256.001 256.001c-5.808 5.794-9.401 13.805-9.401 22.656s3.593 16.862 9.401 22.655l0.001 0.001z" />
<glyph unicode="&#xe91b;" glyph-name="chevron-double-down" d="M105.344 534.656c5.794 5.808 13.805 9.401 22.656 9.401s16.862-3.593 22.655-9.401l361.345-361.409 361.344 361.408c5.798 5.798 13.808 9.384 22.656 9.384 17.695 0 32.040-14.345 32.040-32.040 0-8.848-3.586-16.858-9.384-22.656v0l-384-384c-5.794-5.808-13.805-9.401-22.656-9.401s-16.862 3.593-22.655 9.401l-384.001 384.001c-5.808 5.794-9.401 13.805-9.401 22.656s3.593 16.862 9.401 22.655l0.001 0.001zM105.344 790.656c5.794 5.808 13.805 9.401 22.656 9.401s16.862-3.593 22.655-9.401l361.345-361.409 361.344 361.408c5.798 5.798 13.808 9.384 22.656 9.384 17.695 0 32.040-14.345 32.040-32.040 0-8.848-3.586-16.858-9.384-22.656v0l-384-384c-5.794-5.808-13.805-9.401-22.656-9.401s-16.862 3.593-22.655 9.401l-384.001 384.001c-5.808 5.794-9.401 13.805-9.401 22.656s3.593 16.862 9.401 22.655l0.001 0.001z" />
<glyph unicode="&#xe91c;" glyph-name="chevron-double-left" d="M534.656 854.656c5.808-5.794 9.401-13.805 9.401-22.656s-3.593-16.862-9.401-22.655l-361.409-361.345 361.408-361.344c5.798-5.798 9.384-13.808 9.384-22.656 0-17.695-14.345-32.040-32.040-32.040-8.848 0-16.858 3.586-22.656 9.384v0l-384 384c-5.808 5.794-9.401 13.805-9.401 22.656s3.593 16.862 9.401 22.655l384.001 384.001c5.794 5.808 13.805 9.401 22.656 9.401s16.862-3.593 22.655-9.401l0.001-0.001zM790.656 854.656c5.808-5.794 9.401-13.805 9.401-22.656s-3.593-16.862-9.401-22.655l-361.409-361.345 361.408-361.344c5.798-5.798 9.384-13.808 9.384-22.656 0-17.695-14.345-32.040-32.040-32.040-8.848 0-16.858 3.586-22.656 9.384v0l-384 384c-5.808 5.794-9.401 13.805-9.401 22.656s3.593 16.862 9.401 22.655l384.001 384.001c5.794 5.808 13.805 9.401 22.656 9.401s16.862-3.593 22.655-9.401l0.001-0.001z" />
<glyph unicode="&#xe91d;" glyph-name="chevron-double-right" d="M233.344 854.656c5.794 5.808 13.805 9.401 22.656 9.401s16.862-3.593 22.655-9.401l384.001-384.001c5.808-5.794 9.401-13.805 9.401-22.656s-3.593-16.862-9.401-22.655l-384.001-384.001c-5.798-5.798-13.808-9.384-22.656-9.384-17.695 0-32.040 14.345-32.040 32.040 0 8.848 3.586 16.858 9.384 22.656v0l361.408 361.344-361.408 361.344c-5.808 5.794-9.401 13.805-9.401 22.656s3.593 16.862 9.401 22.655l0.001 0.001zM489.344 854.656c5.794 5.808 13.805 9.401 22.656 9.401s16.862-3.593 22.655-9.401l384.001-384.001c5.808-5.794 9.401-13.805 9.401-22.656s-3.593-16.862-9.401-22.655l-384.001-384.001c-5.798-5.798-13.808-9.384-22.656-9.384-17.695 0-32.040 14.345-32.040 32.040 0 8.848 3.586 16.858 9.384 22.656v0l361.408 361.344-361.408 361.344c-5.808 5.794-9.401 13.805-9.401 22.656s3.593 16.862 9.401 22.655l0.001 0.001z" />
<glyph unicode="&#xe91e;" glyph-name="chevron-double-up" d="M489.344 790.656c5.794 5.808 13.805 9.401 22.656 9.401s16.862-3.593 22.655-9.401l384.001-384.001c5.798-5.798 9.384-13.808 9.384-22.656 0-17.695-14.345-32.040-32.040-32.040-8.848 0-16.858 3.586-22.656 9.384v0l-361.344 361.408-361.344-361.408c-5.798-5.798-13.808-9.384-22.656-9.384-17.695 0-32.040 14.345-32.040 32.040 0 8.848 3.586 16.858 9.384 22.656l384 384zM489.344 534.656c5.794 5.808 13.805 9.401 22.656 9.401s16.862-3.593 22.655-9.401l384.001-384.001c5.798-5.798 9.384-13.808 9.384-22.656 0-17.695-14.345-32.040-32.040-32.040-8.848 0-16.858 3.586-22.656 9.384v0l-361.344 361.408-361.344-361.408c-5.798-5.798-13.808-9.384-22.656-9.384-17.695 0-32.040 14.345-32.040 32.040 0 8.848 3.586 16.858 9.384 22.656l384 384z" />
<glyph unicode="&#xe91f;" glyph-name="chevron-down" d="M105.344 662.656c5.794 5.808 13.805 9.401 22.656 9.401s16.862-3.593 22.655-9.401l361.345-361.409 361.344 361.408c5.798 5.798 13.808 9.384 22.656 9.384 17.695 0 32.040-14.345 32.040-32.040 0-8.848-3.586-16.858-9.384-22.656v0l-384-384c-5.794-5.808-13.805-9.401-22.656-9.401s-16.862 3.593-22.655 9.401l-384.001 384.001c-5.808 5.794-9.401 13.805-9.401 22.656s3.593 16.862 9.401 22.655l0.001 0.001z" />
<glyph unicode="&#xe920;" glyph-name="chevron-expand" d="M233.344 374.656c5.794 5.808 13.805 9.401 22.656 9.401s16.862-3.593 22.655-9.401l233.345-233.409 233.344 233.408c5.798 5.798 13.808 9.384 22.656 9.384 17.695 0 32.040-14.345 32.040-32.040 0-8.848-3.586-16.858-9.384-22.656v0l-256-256c-5.794-5.808-13.805-9.401-22.656-9.401s-16.862 3.593-22.655 9.401l-256.001 256.001c-5.808 5.794-9.401 13.805-9.401 22.656s3.593 16.862 9.401 22.655l0.001 0.001zM233.344 521.344c5.794-5.808 13.805-9.401 22.656-9.401s16.862 3.593 22.655 9.401l233.345 233.409 233.344-233.408c5.798-5.798 13.808-9.384 22.656-9.384 17.695 0 32.040 14.345 32.040 32.040 0 8.848-3.586 16.858-9.384 22.656v0l-256 256c-5.794 5.808-13.805 9.401-22.656 9.401s-16.862-3.593-22.655-9.401l-256.001-256.001c-5.808-5.794-9.401-13.805-9.401-22.656s3.593-16.862 9.401-22.655l0.001-0.001z" />
<glyph unicode="&#xe921;" glyph-name="chevron-left" d="M726.656 854.656c5.808-5.794 9.401-13.805 9.401-22.656s-3.593-16.862-9.401-22.655l-361.409-361.345 361.408-361.344c5.798-5.798 9.384-13.808 9.384-22.656 0-17.695-14.345-32.040-32.040-32.040-8.848 0-16.858 3.586-22.656 9.384v0l-384 384c-5.808 5.794-9.401 13.805-9.401 22.656s3.593 16.862 9.401 22.655l384.001 384.001c5.794 5.808 13.805 9.401 22.656 9.401s16.862-3.593 22.655-9.401l0.001-0.001z" />
<glyph unicode="&#xe922;" glyph-name="chevron-right" d="M297.344 854.656c5.794 5.808 13.805 9.401 22.656 9.401s16.862-3.593 22.655-9.401l384.001-384.001c5.808-5.794 9.401-13.805 9.401-22.656s-3.593-16.862-9.401-22.655l-384.001-384.001c-5.798-5.798-13.808-9.384-22.656-9.384-17.695 0-32.040 14.345-32.040 32.040 0 8.848 3.586 16.858 9.384 22.656v0l361.408 361.344-361.408 361.344c-5.808 5.794-9.401 13.805-9.401 22.656s3.593 16.862 9.401 22.655l0.001 0.001z" />
<glyph unicode="&#xe923;" glyph-name="chevron-up" d="M489.344 662.656c5.794 5.808 13.805 9.401 22.656 9.401s16.862-3.593 22.655-9.401l384.001-384.001c5.798-5.798 9.384-13.808 9.384-22.656 0-17.695-14.345-32.040-32.040-32.040-8.848 0-16.858 3.586-22.656 9.384v0l-361.344 361.408-361.344-361.408c-5.798-5.798-13.808-9.384-22.656-9.384-17.695 0-32.040 14.345-32.040 32.040 0 8.848 3.586 16.858 9.384 22.656l384 384z" />
<glyph unicode="&#xe924;" glyph-name="youtube" d="M515.264 832.064h5.696c52.608-0.192 319.168-2.112 391.040-21.44 44.276-12.301 78.412-46.543 90.348-89.977l0.212-0.903c6.464-24.32 11.008-56.512 14.080-89.728l0.64-6.656 1.408-16.64 0.512-6.656c4.16-58.496 4.672-113.28 4.736-125.248v-4.8c-0.064-12.416-0.64-70.912-5.248-131.84l-0.512-6.72-0.576-6.656c-3.2-36.608-7.936-72.96-15.040-99.712-12.112-44.357-46.264-78.614-89.657-90.666l-0.903-0.214c-74.24-19.968-356.416-21.376-395.52-21.44h-9.088c-19.776 0-101.568 0.384-187.328 3.328l-10.88 0.384-5.568 0.256-21.888 0.896c-71.040 3.136-138.688 8.192-169.856 16.64-44.282 12.254-78.428 46.486-90.349 89.914l-0.211 0.902c-7.104 26.688-11.84 63.104-15.040 99.712l-0.512 6.72-0.512 6.656c-2.975 38.282-4.874 83.69-5.243 129.463l-0.005 0.841v7.872c0.128 13.76 0.64 61.312 4.096 113.792l0.448 6.592 0.192 3.328 0.512 6.656 1.408 16.64 0.64 6.656c3.072 33.216 7.616 65.472 14.080 89.728 12.112 44.357 46.264 78.614 89.657 90.666l0.903 0.214c31.168 8.32 98.816 13.44 169.856 16.64l10.88 0.448 16.512 0.576 10.944 0.448c53.334 1.843 117.336 3.026 181.561 3.26l1.223 0.004h12.352zM409.6 626.624v-308.352l266.048 154.112-266.048 154.24z" />
<glyph unicode="&#xe925;" glyph-name="search" d="M486.013 69.575c-103.612 0-207.215 39.433-286.092 118.311-157.765 157.724-157.765 414.446 0 572.194s414.446 157.765 572.194 0 157.754-414.436 0-572.194c-78.898-78.877-182.49-118.311-286.102-118.311zM486.013 813.415c-0.175 0-0.379 0.001-0.584 0.001-93.56 0-178.258-37.956-239.531-99.305l-0.004-0.004c-132.4-132.4-132.4-347.838 0-480.238s347.845-132.41 480.238 0 132.4 347.845 0 480.238c-61.278 61.358-145.975 99.309-239.535 99.309-0.204 0-0.409 0-0.619-0.001h0.029zM909.887 17.6c-0.015 0-0.027 0-0.042 0-8.961 0-17.081 3.638-22.946 9.522l-160.763 160.763c-5.763 5.862-9.322 13.907-9.322 22.784 0 17.954 14.553 32.513 32.513 32.513 8.877 0 16.92-3.558 22.786-9.327l160.757-160.757c5.885-5.886 9.521-14.014 9.521-22.99 0-17.953-14.553-32.512-32.511-32.513v0z" />
<glyph unicode="&#xe926;" glyph-name="twitter" d="M321.664 0c386.432 0 597.824 320.192 597.824 597.376 0 8.96 0 18.048-0.384 27.008 41.305 30.129 76.111 66.218 103.931 107.413l0.965 1.515c-35.195-15.957-76.022-27.622-118.818-32.941l-2.078-0.211c43.511 26.326 76.242 66.733 92.179 114.796l0.429 1.492c-38.448-23.18-83.213-40.8-130.903-50.309l-2.665-0.443c-38.458 40.885-92.911 66.348-153.312 66.348-116.148 0-210.304-94.156-210.304-210.304 0-16.904 1.994-33.342 5.761-49.092l-0.289 1.432c-175.022 9.040-328.977 92.176-432.245 218.394l-0.843 1.062c-17.81-30.245-28.331-66.63-28.331-105.472 0-72.63 36.784-136.668 92.739-174.502l0.743-0.474c-35.063 1.227-67.646 10.755-96.185 26.665l1.081-0.553v-2.88c0.124-101.254 71.742-185.746 167.079-205.712l1.369-0.24c-16.322-4.674-35.069-7.362-54.444-7.362-0.322 0-0.644 0.001-0.966 0.002h0.050c-0.186-0.001-0.406-0.001-0.627-0.001-13.676 0-27.043 1.328-39.977 3.862l1.308-0.214c27.659-84.099 104.756-144.053 196.092-145.725l0.196-0.003c-70.956-56.135-161.735-90.049-260.434-90.049-0.241 0-0.482 0-0.723 0.001h0.037c-0.507-0.002-1.107-0.004-1.708-0.004-16.992 0-33.739 1.048-50.18 3.082l1.968-0.199c90.973-58.806 202.144-93.76 321.479-93.76 0.065 0 0.13 0 0.195 0h-0.010z" />
<glyph unicode="&#xe927;" glyph-name="share" d="M792.136 592.445c-44.247 1.208-85.842 18.371-119.214 53.893-4.987 5.304-8.192 5.325-14.182 1.72q-132.403-79.985-265.226-159.314c-6.369-3.799-7.864-6.973-5.284-14.1 11.080-30.556 12.288-61.87 4.639-93.389-1.761-7.27-0.573-11.018 6.646-14.674q125.696-63.611 250.88-128.154c7.27-3.748 10.455-2.335 15.473 3.359 47.503 53.883 107.008 74.035 176.128 55.040 67.891-18.657 109.425-65.321 122.88-134.574 17.306-89.426-42.476-177.521-131.912-196.823-89.221-19.251-179.016 35.942-201.452 123.73-7.352 28.795-7.905 57.59 0 86.292 1.618 5.878 0.686 8.673-5.048 11.592q-126.474 64.195-252.59 129.024c-6.39 3.287-9.472 2.396-13.906-3.072-63.488-77.875-174.080-86.415-248.637-19.456-82.77 74.383-70.81 211.2 23.624 270.039 70.164 43.725 156.037 33.505 214.671-25.825 4.465-4.516 7.496-4.69 12.769-1.505q134.144 80.896 268.483 161.249c5.683 3.4 5.786 6.523 3.953 12.001-38.287 114.913 51.313 231.373 172.657 224.625 83.476-4.649 151.276-70.789 159.744-155.832 8.059-81.101-47.288-159.744-126.74-180.070-14.5-3.707-29.184-5.775-48.353-5.775zM910.776 763.392c0 62.761-51.384 114.125-114.145 114.022-62.382-0.092-113.51-51.067-113.787-113.428-0.276-62.771 50.924-114.34 113.664-114.493s114.227 51.139 114.268 113.9zM112.763 419.512c0-62.761 51.415-114.094 114.186-113.971 62.382 0.113 113.49 51.108 113.746 113.48 0.246 62.761-50.975 114.319-113.664 114.452s-114.268-51.19-114.268-113.961zM910.776 131.768c0.389 62.781-50.698 114.452-113.439 114.688-62.403 0.276-113.859-50.391-114.483-112.722-0.645-62.802 50.176-114.688 112.947-115.2s114.534 50.534 114.975 113.265z" />
<glyph unicode="&#xe928;" glyph-name="speaker" d="M314.162 309.073c3.719-33.417 7.266-65.507 10.855-97.577 5.39-47.969 10.876-95.939 16.169-143.929 1.531-14.013-7.19-24.351-21.236-24.459q-63.966-0.463-127.944 0c-12.332 0.076-19.468 7.416-21.419 20.783-4.236 28.975-8.235 57.994-12.364 86.992-8.71 61.304-17.527 122.575-26.044 183.9-0.819 5.908-3.676 6.554-8.624 6.673-17.948 0.42-35.993-1.736-53.844 1.574-39.346 7.309-68.817 41.437-69.292 81.559q-0.776 65.971 0 131.943c0.428 45.279 36.733 81.938 81.831 82.937l0.094 0.002c45.274 0.938 90.625 0.409 135.93 0.269 0.186-0.002 0.405-0.003 0.626-0.003 8.176 0 15.989 1.552 23.162 4.377l-0.428-0.148q265.771 102.406 531.607 204.683c3.104 1.197 6.198 2.436 9.378 3.396 13.851 4.182 26.626-4.409 27.811-18.745 0.28-3.31 0.162-6.661 0.162-9.992v-665.684c0-2.005 0-3.999 0-6.005-0.475-18.498-13.723-27.704-31.261-21.15-27.714 10.381-55.267 21.226-82.896 31.854l-371.584 142.927c-3.083 1.185-6.219 2.232-10.693 3.827zM767.563 800.008c-2.749-0.862-4.958-1.412-7.071-2.232q-248.6-95.496-497.242-190.863c-6.468-2.469-7.19-6.145-7.179-11.987 0.162-69.292 0.259-138.572-0.107-207.853 0-7.772 2.738-10.833 9.529-13.442q241.215-92.468 482.301-185.259c6.404-2.458 12.58-5.821 19.77-6.64zM212.919 490.633c0 32.651-0.194 65.303 0.151 97.954 0.076 7.028-2.059 8.936-8.99 8.872-37.977-0.313-75.964-0.119-113.941-0.162-29.913 0-47.29-17.183-47.377-46.999q-0.183-59.471 0-118.942c0.076-29.773 17.506-47.311 47.161-47.43 37.297-0.129 74.606 0.226 111.903-0.226 8.624-0.107 11.469 1.907 11.308 10.963-0.56 31.983-0.216 63.977-0.216 95.96zM253.538 85.471c11.652 0 23.327 0.313 34.958-0.119 6.198-0.237 7.869 1.337 7.126 7.805q-13.054 113.056-25.451 226.189c-0.593 5.443-3.137 7.546-7.643 10.122-26.141 14.843-54.631 11.858-82.777 11.954-4.452 0-5.799-1.358-4.97-5.832 1.412-7.546 2.329-15.091 3.417-22.701 10.5-73.108 21.128-146.193 31.261-219.355 1.002-7.223 3.816-8.43 10.101-8.182 11.319 0.453 22.648 0.107 33.977 0.107zM1002.396 725.284c9.055-0.463 15.857-4.495 19.652-12.936 3.643-8.128 2.156-15.684-3.536-22.281-2.234-2.397-4.747-4.488-7.498-6.235l-0.155-0.092q-60.592-40.434-121.271-80.75c-1.994-1.41-4.266-2.716-6.657-3.805l-0.263-0.107c-2.435-1.103-5.279-1.745-8.274-1.745-6.828 0-12.876 3.341-16.597 8.477l-0.041 0.060c-2.636 3.51-4.222 7.939-4.222 12.74 0 5.351 1.971 10.243 5.225 13.987l-0.022-0.026c2.040 2.107 4.32 3.962 6.801 5.528l0.151 0.088q60.139 40.23 120.343 80.384c4.98 3.234 9.907 6.834 16.363 6.716zM853.617 320.326c0 0.028 0 0.062 0 0.096 0 11.508 9.329 20.837 20.837 20.837 2.825 0 5.518-0.562 7.975-1.581l-0.138 0.051c3.947-1.799 7.333-3.796 10.483-6.098l-0.166 0.116q57.315-38.128 114.598-76.33c2.759-1.854 5.606-3.622 8.161-5.724 9.529-7.836 11.298-19.813 4.474-29.321-6.587-9.184-18.153-11.858-28.318-5.53-15.221 9.518-30.010 19.737-44.951 29.698-27.122 18.077-54.178 36.241-81.365 54.232-7.179 4.7-11.739 10.65-11.588 19.554zM937.978 447.838c-20.298 0-40.607-0.28-60.905 0.086-17.603 0.323-28.124 14.66-22.012 29.418 3.709 8.979 11.028 13.356 20.417 13.399 42.267 0.173 84.544 0.313 126.811-0.097 13.032-0.119 21.753-9.702 21.623-21.483s-8.85-20.848-22.022-21.15c-21.29-0.485-42.601-0.129-63.912-0.129z" />
<glyph unicode="&#xe929;" glyph-name="video" d="M512.102 934.4h-0.102c-268.052 0-486.236-218.020-486.4-486.021s217.774-486.369 485.786-486.779h0.768c129.628 0 251.587 50.514 343.47 142.336 92.109 91.955 142.776 214.211 142.776 344.207-0.072 268.063-218.235 486.195-486.298 486.257zM512.102 21.105h-0.328c-234.875 0-426.271 191.181-426.701 426.301-0.215 114.104 44.032 221.389 124.529 302.080s187.955 125.338 302.234 125.42h0.317c114.033 0 221.184-44.39 301.824-125.030s125.030-188.017 124.887-302.162c-0.256-235.059-191.683-426.435-426.711-426.619zM681.37 482.888q-23.665 15.954-47.514 31.672l-68.106 45.384q-69.028 45.998-138.025 92.047c-9.083 6.062-19.169 11.336-32.051 9.165-21.084-3.604-33.679-19.456-33.71-42.363q-0.072-60.672 0-121.354v-94.331q0-62.986-0.061-125.952c0-17.93 7.168-30.822 21.504-38.339 5.105-2.821 11.183-4.5 17.65-4.546h0.014c8.192 0 16.62 2.857 25.149 8.55q64.768 43.387 129.628 86.559l125.501 83.732c13.568 9.062 21.053 21.412 21.074 34.816s-7.455 25.795-21.053 34.959zM626.903 447.918q-80.333-53.166-160.41-106.721l-44.401-29.491v272.732q102.195-67.983 204.278-136.192z" />
<glyph unicode="&#xe92a;" glyph-name="geo-alt-fill" d="M512-64s384 363.904 384 640c0 212.077-171.923 384-384 384s-384-171.923-384-384v0c0-276.096 384-640 384-640zM512 384c-106.039 0-192 85.961-192 192s85.961 192 192 192v0c106.039 0 192-85.961 192-192s-85.961-192-192-192v0z" />
<glyph unicode="&#xe92b;" glyph-name="geo-alt" d="M778.624 387.84c-33.536-67.968-78.976-135.68-125.44-196.48-46.778-60.563-92.999-114.169-141.878-165.209l0.694 0.729c-48.186 50.31-94.406 103.915-137.746 159.865l-3.438 4.615c-46.464 60.8-91.904 128.512-125.44 196.48-33.92 68.672-53.376 132.992-53.376 188.16 0 176.731 143.269 320 320 320s320-143.269 320-320v0c0-55.168-19.52-119.488-53.376-188.16zM512-64s384 363.904 384 640c0 212.077-171.923 384-384 384s-384-171.923-384-384v0c0-276.096 384-640 384-640zM512 448c-70.692 0-128 57.308-128 128s57.308 128 128 128v0c70.692 0 128-57.308 128-128s-57.308-128-128-128v0zM512 384c106.039 0 192 85.961 192 192s-85.961 192-192 192v0c-106.039 0-192-85.961-192-192s85.961-192 192-192v0z" />
<glyph unicode="&#xe92c;" glyph-name="circle-fill" d="M1024 448c0-282.77-229.23-512-512-512s-512 229.23-512 512c0 282.77 229.23 512 512 512s512-229.23 512-512z" />
<glyph unicode="&#xe92d;" glyph-name="circle" d="M512 0c-247.424 0-448 200.576-448 448s200.576 448 448 448v0c247.424 0 448-200.576 448-448s-200.576-448-448-448v0zM512-64c282.77 0 512 229.23 512 512s-229.23 512-512 512v0c-282.77 0-512-229.23-512-512s229.23-512 512-512v0z" />
<glyph unicode="&#xe92e;" glyph-name="arrow-right" d="M506.245 893.768c0.009 0 0.019 0 0.029 0 23.142 0 41.902-18.76 41.902-41.902 0-12.337-5.332-23.429-13.817-31.097l-0.036-0.032-413.379-372.736 413.379-372.736c8.522-7.702 13.854-18.796 13.854-31.135 0-23.147-18.765-41.912-41.912-41.912-10.808 0-20.661 4.091-28.094 10.809l0.036-0.032-447.898 403.876c-8.521 7.7-13.853 18.792-13.853 31.13s5.332 23.429 13.817 31.097l0.036 0.032 447.898 403.855c7.378 6.689 17.215 10.783 28.009 10.783 0.010 0 0.020 0 0.030 0h-0.002zM58.368 489.912h888.76c23.148 0 41.912-18.765 41.912-41.912s-18.765-41.912-41.912-41.912v0h-888.76c-23.148 0-41.912 18.765-41.912 41.912s18.765 41.912 41.912 41.912v0z" />
<glyph unicode="&#xe92f;" glyph-name="arrow-left" d="M517.755 2.232c-0.009 0-0.019 0-0.029 0-23.142 0-41.902 18.76-41.902 41.902 0 12.337 5.332 23.429 13.817 31.097l0.036 0.032 413.379 372.736-413.379 372.736c-8.522 7.702-13.854 18.796-13.854 31.135 0 23.147 18.765 41.912 41.912 41.912 10.808 0 20.661-4.091 28.094-10.809l-0.036 0.032 447.898-403.876c8.521-7.7 13.853-18.792 13.853-31.13s-5.332-23.429-13.817-31.097l-0.036-0.032-447.898-403.855c-7.378-6.689-17.215-10.783-28.009-10.783-0.010 0-0.020 0-0.030 0h0.002zM965.632 406.088h-888.76c-23.148 0-41.912 18.765-41.912 41.912s18.765 41.912 41.912 41.912v0h888.76c23.148 0 41.912-18.765 41.912-41.912s-18.765-41.912-41.912-41.912v0z" />
<glyph unicode="&#xe930;" glyph-name="arrow-up" d="M957.768 453.755c0-0.009 0-0.019 0-0.029 0-23.142-18.76-41.902-41.902-41.902-12.337 0-23.429 5.332-31.097 13.817l-0.032 0.036-372.736 413.379-372.736-413.379c-7.702-8.522-18.796-13.854-31.135-13.854-23.147 0-41.912 18.765-41.912 41.912 0 10.808 4.091 20.661 10.809 28.094l-0.032-0.036 403.876 447.898c7.7 8.521 18.792 13.853 31.13 13.853s23.429-5.332 31.097-13.817l0.032-0.036 403.855-447.898c6.689-7.378 10.783-17.215 10.783-28.009 0-0.010 0-0.020 0-0.030v0.002zM553.912 901.632v-888.76c0-23.148-18.765-41.912-41.912-41.912s-41.912 18.765-41.912 41.912v0 888.76c0 23.148 18.765 41.912 41.912 41.912s41.912-18.765 41.912-41.912v0z" />
<glyph unicode="&#xe931;" glyph-name="arrow-down" d="M66.232 442.245c0 0.009 0 0.019 0 0.029 0 23.142 18.76 41.902 41.902 41.902 12.337 0 23.429-5.332 31.097-13.817l0.032-0.036 372.736-413.379 372.736 413.379c7.702 8.522 18.796 13.854 31.135 13.854 23.147 0 41.912-18.765 41.912-41.912 0-10.808-4.091-20.661-10.809-28.094l0.032 0.036-403.876-447.898c-7.7-8.521-18.792-13.853-31.13-13.853s-23.429 5.332-31.097 13.817l-0.032 0.036-403.855 447.898c-6.689 7.378-10.783 17.215-10.783 28.009 0 0.010 0 0.020 0 0.030v-0.002zM470.088-5.632v888.76c0 23.148 18.765 41.912 41.912 41.912s41.912-18.765 41.912-41.912v0-888.76c0-23.148-18.765-41.912-41.912-41.912s-41.912 18.765-41.912 41.912v0z" />
<glyph unicode="&#xe932;" glyph-name="esquina-down-left" d="M31.901 876.9h103.332v-806.135h806.135v-103.332h-909.467z" />
<glyph unicode="&#xe933;" glyph-name="esquina-down-right" d="M992.566-32.566h-909.467v103.332h806.135v806.135h103.332z" />
<glyph unicode="&#xe934;" glyph-name="esquina-up-left" d="M31.901 928.099h909.467v-103.332h-806.135v-806.135h-103.332z" />
<glyph unicode="&#xe935;" glyph-name="esquina-up-right" d="M992.566 928.1h-909.467v-103.333h806.135v-806.134h103.332z" />
<glyph unicode="&#xe936;" glyph-name="pin" d="M879.616 566.682v0.184c0 202.977-164.506 367.534-367.514 367.534s-367.503-164.557-367.503-367.534c0 0-28.047-229.519 367.503-605.266 386.611 349.604 367.718 601.027 367.514 605.082z" />
<glyph unicode="&#xe937;" glyph-name="facebook" d="M595.784 701.676v-104.735h169.892l-20.951-190.833h-148.941v-444.508h-232.724v444.508h-104.735v190.833h104.735v104.735s-18.627 200.141 169.882 232.724h232.735v-169.892h-104.735c-2.324 0-60.508 2.324-65.157-62.833z" />
<glyph unicode="&#xe938;" glyph-name="instagram" d="M681.81 451.635c0-95.124-77.113-172.237-172.237-172.237s-172.237 77.113-172.237 172.237c0 95.124 77.113 172.237 172.237 172.237s172.237-77.113 172.237-172.237zM919.552 851.917c-50.944 50.944-121.293 82.483-206.203 82.483h-402.698c-172.247 0-283.843-116.449-283.843-283.832v-402.708c0-84.91 26.685-160.113 80.056-208.63 50.944-50.944 126.157-77.629 206.213-77.629h397.844c80.056 0 155.269 26.685 206.213 77.629s80.056 126.147 80.056 208.63v400.282c-2.427 82.483-26.685 152.832-77.64 203.776zM509.573 182.364c-147.978 0-266.885 121.252-266.885 266.844 0 147.988 121.303 266.854 266.854 266.854s269.312-116.439 269.312-266.854-121.293-266.844-269.281-266.844zM771.574 650.568c-31.539 0-58.225 21.832-58.225 58.225 0 31.529 21.842 58.214 58.225 58.214 31.539 0 58.225-26.685 58.225-58.214s-26.685-58.225-58.225-58.225z" />
<glyph unicode="&#xe939;" glyph-name="whatsapp" d="M1021.441 462.234c0 275.328-226.983 497.513-502.298 497.513s-499.928-224.603-499.928-499.929c0-94.187 26.571-181.13 72.456-255.999l-89.358-268.071 277.837 86.931c69.977-38.633 154.505-60.36 241.448-60.36 275.282 0 499.883 224.577 499.883 499.916h-0.043zM763.049 281.103c-12.050-28.985-62.777-55.585-84.507-58.002-21.731-2.414-21.731-16.923-147.314 31.389-125.585 48.312-202.871 173.853-210.116 183.554-7.244 7.287-50.661 65.256-50.661 125.629s31.346 89.336 43.418 101.408 24.102 14.487 33.803 14.487h24.177c9.657 0 16.902 4.829 28.985-19.317 7.244-24.154 33.813-82.113 36.23-89.358 2.414-7.244 4.827-12.039 0-21.741-2.382-7.244-4.84-12.072-12.085-19.316-4.829-7.244-9.657-14.487-16.902-21.741-4.829-4.829-12.082-12.072-4.829-24.144 7.255-12.074 31.389-50.717 67.619-84.531 45.887-41.034 86.931-53.085 99.017-60.363 12.082-7.275 19.326-7.232 26.569 2.427 7.245 9.659 28.986 33.813 38.643 48.302 9.659 14.486 16.902 12.072 28.986 7.244 12.072-2.415 72.446-31.4 84.528-38.643 12.072-2.372 21.731-7.244 24.144-12.072 2.369-4.849 2.369-28.985-9.703-65.211z" />
<glyph unicode="&#xe93a;" glyph-name="long-arrow-left" horiz-adv-x="5120" d="M129.464 458.173h4881.398v-20.352h-4881.398v20.352zM240.466 310.318l-140.759 137.682 140.759 137.682 14.228-14.551-125.88-123.131 125.88-123.131z" />
<glyph unicode="&#xe93b;" glyph-name="long-arrow-right" horiz-adv-x="5120" d="M99.707 458.173h4881.398v-20.352h-4881.398v20.352zM4870.098 585.682l140.764-137.682-140.764-137.682-14.228 14.551 125.885 123.131-125.885 123.131z" />
</font>
</defs>
</svg>
