<?xml version="1.0" encoding="utf-8"?>
<!-- Generator: Adobe Illustrator 16.0.0, SVG Export Plug-In . SVG Version: 6.00 Build 0)  -->
<!DOCTYPE svg PUBLIC "-//W3C//DTD SVG 1.1//EN" "http://www.w3.org/Graphics/SVG/1.1/DTD/svg11.dtd">
<svg version="1.1" id="Layer_1" xmlns="http://www.w3.org/2000/svg" xmlns:xlink="http://www.w3.org/1999/xlink" x="0px" y="0px"
	 width="500px" height="1000px" viewBox="0 0 500 1000" enable-background="new 0 0 500 1000" xml:space="preserve">
<g>
	<polygon fill="#DFD8D2" points="411.601,966.238 378.483,966.238 378.483,962.475 407.837,962.475 407.837,933.122 
		411.601,933.122 	"/>
</g>
<g>
	<polygon fill="#DFD8D2" points="411.601,648.21 378.483,648.21 378.483,644.446 407.837,644.446 407.837,615.093 411.601,615.093 	
		"/>
</g>
<g>
	<polygon fill="#DFD8D2" points="411.601,358.485 378.483,358.485 378.483,354.722 407.837,354.722 407.837,325.369 
		411.601,325.369 	"/>
</g>
<g>
	<polygon fill="#DFD8D2" points="123.398,966.238 90.282,966.238 90.282,962.475 119.635,962.475 119.635,933.122 123.398,933.122 	
		"/>
</g>
<g>
	<polygon fill="#DFD8D2" points="123.398,648.21 90.282,648.21 90.282,644.446 119.635,644.446 119.635,615.093 123.398,615.093 	
		"/>
</g>
<g>
	<polygon fill="#DFD8D2" points="123.398,358.485 90.282,358.485 90.282,354.722 119.635,354.722 119.635,325.369 123.398,325.369 	
		"/>
</g>
<g>
	<polygon fill="#DFD8D2" points="411.601,68.76 378.483,68.76 378.483,64.997 407.837,64.997 407.837,35.644 411.601,35.644 	"/>
</g>
</svg>
