<?xml version="1.0" encoding="utf-8"?>
<!-- Generator: Adobe Illustrator 16.0.0, SVG Export Plug-In . SVG Version: 6.00 Build 0)  -->
<!DOCTYPE svg PUBLIC "-//W3C//DTD SVG 1.1//EN" "http://www.w3.org/Graphics/SVG/1.1/DTD/svg11.dtd">
<svg version="1.1" id="Layer_1" xmlns="http://www.w3.org/2000/svg" xmlns:xlink="http://www.w3.org/1999/xlink" x="0px" y="0px"
	 width="1000px" height="340px" viewBox="0 0 1000 340" enable-background="new 0 0 1000 340" xml:space="preserve">
<path fill="#FFFFFF" d="M304.86,82.528c3.421-5.995,8.091-10.667,14.015-14.015c5.921-3.346,12.561-5.021,19.918-5.021
	c8.606,0,16.147,2.207,22.621,6.621c6.473,4.414,10.997,10.521,13.573,18.318H357.22c-1.765-3.678-4.247-6.437-7.447-8.276
	c-3.2-1.838-6.898-2.759-11.091-2.759c-4.488,0-8.479,1.048-11.973,3.145c-3.495,2.096-6.217,5.059-8.166,8.883
	c-1.95,3.826-2.924,8.314-2.924,13.463c0,5.076,0.974,9.545,2.924,13.407c1.949,3.863,4.671,6.842,8.166,8.939
	c3.494,2.097,7.485,3.145,11.973,3.145c4.193,0,7.891-0.939,11.091-2.814c3.2-1.877,5.682-4.652,7.447-8.332h17.767
	c-2.576,7.873-7.081,13.997-13.518,18.373c-6.439,4.378-13.997,6.567-22.676,6.567c-7.357,0-13.997-1.673-19.918-5.022
	c-5.924-3.347-10.594-7.999-14.015-13.958c-3.421-5.96-5.131-12.727-5.131-20.305C299.729,95.311,301.439,88.524,304.86,82.528"/>
<rect x="388.228" y="59.851" fill="#FFFFFF" width="15.448" height="81.659"/>
<path fill="#FFFFFF" d="M476.617,80.375v61.134h-15.559v-7.725c-1.986,2.648-4.58,4.728-7.78,6.234
	c-3.2,1.508-6.675,2.263-10.427,2.263c-4.783,0-9.013-1.01-12.691-3.035c-3.679-2.023-6.566-5.002-8.662-8.938
	c-2.097-3.935-3.144-8.625-3.144-14.07V80.375h15.448v33.656c0,4.855,1.214,8.591,3.642,11.201c2.428,2.612,5.737,3.918,9.931,3.918
	c4.266,0,7.615-1.306,10.043-3.918c2.426-2.61,3.64-6.346,3.64-11.201V80.375H476.617z"/>
<path fill="#FFFFFF" d="M515.516,82.141c3.494-1.838,7.485-2.759,11.973-2.759c5.224,0,9.948,1.288,14.181,3.862
	c4.229,2.576,7.576,6.235,10.041,10.98c2.464,4.745,3.696,10.245,3.696,16.497c0,6.255-1.232,11.791-3.696,16.608
	c-2.465,4.82-5.812,8.552-10.041,11.201c-4.232,2.648-8.957,3.973-14.181,3.973c-4.563,0-8.552-0.903-11.973-2.705
	c-3.422-1.802-6.163-4.138-8.222-7.007v8.718h-15.448V59.85h15.448v29.463C509.281,86.372,512.021,83.98,515.516,82.141
	 M537.363,101.176c-1.508-2.685-3.493-4.725-5.957-6.124c-2.466-1.397-5.132-2.097-8.002-2.097c-2.795,0-5.425,0.718-7.889,2.152
	c-2.467,1.434-4.453,3.514-5.959,6.234c-1.508,2.723-2.263,5.923-2.263,9.601c0,3.68,0.755,6.88,2.263,9.601
	c1.506,2.722,3.492,4.8,5.959,6.235c2.464,1.434,5.094,2.151,7.889,2.151c2.87,0,5.536-0.734,8.002-2.207
	c2.464-1.471,4.449-3.567,5.957-6.29c1.509-2.721,2.264-5.958,2.264-9.711C539.627,107.043,538.872,103.862,537.363,101.176"/>
<path fill="#FFFFFF" d="M592.648,94.28c2.464-4.782,5.83-8.46,10.098-11.036c4.265-2.574,9.01-3.862,14.234-3.862
	c3.972,0,7.76,0.865,11.366,2.593c3.603,1.73,6.473,4.027,8.607,6.897V59.851h15.668v81.659h-15.668v-9.049
	c-1.914,3.017-4.599,5.445-8.057,7.283c-3.458,1.838-7.466,2.759-12.027,2.759c-5.149,0-9.859-1.324-14.124-3.972
	c-4.268-2.649-7.634-6.381-10.098-11.201c-2.465-4.818-3.696-10.354-3.696-16.608C588.952,104.542,590.184,99.063,592.648,94.28
	 M634.856,101.287c-1.472-2.684-3.458-4.746-5.959-6.179c-2.501-1.435-5.188-2.153-8.054-2.153c-2.87,0-5.52,0.701-7.945,2.098
	c-2.428,1.398-4.397,3.439-5.905,6.124c-1.508,2.686-2.261,5.867-2.261,9.545c0,3.68,0.753,6.896,2.261,9.656
	c1.508,2.759,3.494,4.874,5.959,6.345c2.464,1.472,5.094,2.207,7.892,2.207c2.866,0,5.553-0.717,8.054-2.151
	c2.501-1.435,4.487-3.494,5.959-6.18c1.471-2.685,2.207-5.905,2.207-9.656C637.063,107.19,636.327,103.974,634.856,101.287"/>
<path fill="#FFFFFF" d="M724.129,115.577h-44.691c0.365,4.414,1.913,7.872,4.635,10.373c2.72,2.501,6.068,3.752,10.04,3.752
	c5.74,0,9.822-2.465,12.25-7.394h16.662c-1.766,5.886-5.15,10.722-10.152,14.511c-5.002,3.79-11.145,5.684-18.428,5.684
	c-5.887,0-11.164-1.307-15.835-3.918c-4.672-2.611-8.314-6.308-10.925-11.091c-2.612-4.781-3.916-10.298-3.916-16.552
	c0-6.326,1.284-11.879,3.86-16.662c2.574-4.781,6.18-8.46,10.815-11.036c4.635-2.574,9.967-3.862,16-3.862
	c5.812,0,11.017,1.252,15.616,3.752c4.596,2.502,8.166,6.051,10.703,10.648c2.536,4.599,3.807,9.878,3.807,15.836
	C724.57,111.826,724.423,113.812,724.129,115.577 M708.569,105.204c-0.075-3.972-1.508-7.153-4.303-9.545
	c-2.798-2.39-6.219-3.586-10.264-3.586c-3.827,0-7.046,1.158-9.656,3.475c-2.61,2.318-4.21,5.537-4.799,9.656H708.569z"/>
<path fill="#FFFFFF" d="M815.719,87.658c-1.766-3.237-4.193-5.7-7.284-7.394c-3.089-1.691-6.695-2.537-10.813-2.537
	c-4.563,0-8.607,1.031-12.14,3.089c-3.531,2.061-6.289,5.004-8.276,8.828c-1.985,3.827-2.979,8.24-2.979,13.242
	c0,5.151,1.011,9.638,3.035,13.463c2.022,3.826,4.835,6.769,8.44,8.829c3.604,2.059,7.797,3.088,12.58,3.088
	c5.886,0,10.705-1.561,14.457-4.689c3.751-3.127,6.216-7.485,7.393-13.077h-26.484V98.693h41.713v13.463
	c-1.032,5.37-3.237,10.336-6.622,14.896c-3.385,4.563-7.743,8.222-13.076,10.98c-5.334,2.759-11.31,4.139-17.931,4.139
	c-7.433,0-14.145-1.672-20.14-5.022c-5.997-3.347-10.703-7.999-14.125-13.958c-3.421-5.96-5.131-12.727-5.131-20.305
	c0-7.576,1.71-14.363,5.131-20.359c3.422-5.995,8.128-10.667,14.125-14.015c5.995-3.346,12.671-5.021,20.029-5.021
	c8.68,0,16.221,2.116,22.621,6.345c6.4,4.232,10.814,10.171,13.243,17.822H815.719z"/>
<path fill="#FFFFFF" d="M858.09,138.585c-4.708-2.611-8.404-6.307-11.089-11.091c-2.687-4.781-4.028-10.298-4.028-16.552
	c0-6.252,1.379-11.769,4.137-16.553c2.762-4.781,6.53-8.477,11.313-11.089c4.78-2.611,10.112-3.918,15.999-3.918
	c5.886,0,11.218,1.307,16.001,3.918c4.78,2.612,8.552,6.308,11.31,11.089c2.761,4.784,4.141,10.301,4.141,16.553
	c0,6.254-1.418,11.771-4.249,16.552c-2.835,4.784-6.66,8.48-11.477,11.091c-4.819,2.611-10.207,3.918-16.166,3.918
	C868.095,142.503,862.798,141.196,858.09,138.585 M881.871,126.998c2.465-1.361,4.432-3.402,5.902-6.125
	c1.473-2.72,2.207-6.031,2.207-9.931c0-5.811-1.527-10.28-4.579-13.408c-3.052-3.125-6.787-4.689-11.199-4.689
	c-4.415,0-8.111,1.564-11.091,4.689c-2.979,3.128-4.469,7.597-4.469,13.408c0,5.813,1.451,10.282,4.359,13.408
	c2.904,3.127,6.565,4.689,10.979,4.689C876.776,129.039,879.404,128.361,881.871,126.998"/>
<rect x="917.237" y="59.851" fill="#FFFFFF" width="15.447" height="81.659"/>
<path fill="#FFFFFF" d="M975.941,93.066h-10.702v48.444h-15.671V93.066h-6.952v-12.69h6.952v-3.09
	c0-7.504,2.134-13.022,6.399-16.553c4.267-3.531,10.705-5.186,19.313-4.966v13.021c-3.753-0.072-6.366,0.553-7.835,1.876
	c-1.474,1.325-2.207,3.716-2.207,7.173v2.539h10.702V93.066z"/>
<path fill="#FFFFFF" d="M302.651,222.963c2.464-4.781,5.83-8.458,10.098-11.034c4.264-2.574,9.009-3.863,14.234-3.863
	c3.972,0,7.76,0.866,11.366,2.594c3.603,1.729,6.473,4.027,8.608,6.896v-29.021h15.669v81.658h-15.669v-9.048
	c-1.914,3.018-4.599,5.444-8.057,7.282s-7.466,2.759-12.027,2.759c-5.15,0-9.86-1.324-14.124-3.972
	c-4.268-2.648-7.634-6.382-10.098-11.2c-2.465-4.818-3.696-10.354-3.696-16.608C298.956,233.226,300.187,227.747,302.651,222.963
	 M344.859,229.97c-1.472-2.684-3.458-4.745-5.959-6.18s-5.187-2.151-8.054-2.151c-2.87,0-5.519,0.7-7.945,2.097
	c-2.428,1.398-4.397,3.439-5.905,6.124c-1.508,2.687-2.261,5.867-2.261,9.546c0,3.68,0.753,6.896,2.261,9.655
	c1.508,2.759,3.494,4.874,5.959,6.346c2.464,1.472,5.094,2.206,7.891,2.206c2.867,0,5.553-0.717,8.054-2.151s4.487-3.493,5.959-6.18
	c1.471-2.685,2.207-5.903,2.207-9.655C347.066,235.875,346.331,232.656,344.859,229.97"/>
<path fill="#FFFFFF" d="M434.132,244.261H389.44c0.366,4.414,1.913,7.873,4.635,10.373c2.72,2.502,6.068,3.752,10.04,3.752
	c5.74,0,9.822-2.464,12.25-7.394h16.662c-1.765,5.886-5.15,10.723-10.152,14.51c-5.002,3.79-11.145,5.684-18.428,5.684
	c-5.887,0-11.164-1.305-15.835-3.917c-4.672-2.611-8.314-6.308-10.925-11.09c-2.612-4.781-3.916-10.299-3.916-16.553
	c0-6.326,1.285-11.88,3.861-16.662c2.574-4.782,6.179-8.459,10.815-11.035c4.635-2.574,9.967-3.863,16-3.863
	c5.812,0,11.017,1.252,15.616,3.751c4.596,2.504,8.166,6.053,10.703,10.65c2.538,4.599,3.807,9.877,3.807,15.835
	C434.573,240.509,434.426,242.495,434.132,244.261 M418.572,233.889c-0.075-3.974-1.508-7.155-4.303-9.546
	c-2.797-2.391-6.218-3.586-10.263-3.586c-3.827,0-7.046,1.158-9.657,3.476c-2.61,2.317-4.21,5.536-4.798,9.656H418.572z"/>
<rect x="445.828" y="188.534" fill="#FFFFFF" width="15.448" height="81.659"/>
<path fill="#FFFFFF" d="M517.995,193.169v47.671c0,5.224,1.362,9.214,4.084,11.974c2.72,2.758,6.546,4.138,11.476,4.138
	c5.002,0,8.865-1.38,11.586-4.138c2.724-2.76,4.084-6.75,4.084-11.974v-47.671h15.561v47.56c0,6.549-1.418,12.085-4.249,16.608
	c-2.833,4.523-6.622,7.928-11.366,10.208c-4.745,2.279-10.025,3.42-15.836,3.42c-5.738,0-10.944-1.141-15.613-3.42
	c-4.674-2.28-8.369-5.685-11.092-10.208c-2.722-4.523-4.082-10.06-4.082-16.608v-47.56H517.995z"/>
<path fill="#FFFFFF" d="M602.91,210.936c3.199-1.838,6.858-2.759,10.979-2.759v16.221h-4.082c-4.855,0-8.518,1.142-10.979,3.421
	c-2.468,2.281-3.698,6.254-3.698,11.917v30.457h-15.448v-61.134h15.448v9.49C597.115,215.313,599.709,212.774,602.91,210.936"/>
<path fill="#FFFFFF" d="M681.973,209.059v61.134h-15.56v-7.725c-1.986,2.648-4.579,4.728-7.779,6.235
	c-3.201,1.507-6.676,2.262-10.427,2.262c-4.783,0-9.014-1.009-12.692-3.034c-3.678-2.022-6.565-5.002-8.661-8.938
	c-2.098-3.936-3.145-8.625-3.145-14.069v-35.864h15.449v33.656c0,4.855,1.213,8.591,3.642,11.201
	c2.427,2.612,5.737,3.918,9.931,3.918c4.267,0,7.614-1.306,10.042-3.918c2.427-2.61,3.641-6.346,3.641-11.201v-33.656H681.973z"/>
<path fill="#FFFFFF" d="M733.174,210.769c3.458,1.804,6.181,4.139,8.166,7.008v-8.718H756.9v61.575
	c0,5.665-1.143,10.721-3.422,15.173c-2.28,4.451-5.701,7.982-10.262,10.594c-4.563,2.611-10.078,3.917-16.553,3.917
	c-8.68,0-15.799-2.023-21.353-6.067c-5.556-4.048-8.699-9.565-9.436-16.554h15.339c0.809,2.796,2.557,5.021,5.242,6.676
	c2.686,1.655,5.939,2.483,9.766,2.483c4.487,0,8.128-1.343,10.925-4.027c2.795-2.687,4.192-6.75,4.192-12.194v-9.489
	c-1.985,2.868-4.728,5.26-8.22,7.172c-3.496,1.912-7.487,2.869-11.973,2.869c-5.15,0-9.86-1.324-14.124-3.972
	c-4.269-2.648-7.634-6.382-10.098-11.2c-2.466-4.818-3.696-10.354-3.696-16.608c0-6.18,1.23-11.658,3.696-16.442
	c2.464-4.781,5.811-8.458,10.041-11.034c4.23-2.574,8.956-3.863,14.181-3.863C725.708,208.065,729.716,208.968,733.174,210.769
	 M739.133,229.97c-1.472-2.684-3.457-4.745-5.959-6.18c-2.501-1.435-5.186-2.151-8.054-2.151c-2.87,0-5.519,0.7-7.944,2.097
	c-2.429,1.398-4.397,3.439-5.905,6.124c-1.508,2.687-2.261,5.867-2.261,9.546c0,3.68,0.753,6.896,2.261,9.655
	s3.494,4.874,5.959,6.346c2.464,1.472,5.094,2.206,7.891,2.206c2.868,0,5.553-0.717,8.054-2.151c2.502-1.435,4.487-3.493,5.959-6.18
	c1.472-2.685,2.207-5.903,2.207-9.655C741.34,235.875,740.604,232.656,739.133,229.97"/>
<path fill="#FFFFFF" d="M829.731,209.059v61.134h-15.561v-7.725c-1.985,2.648-4.578,4.728-7.778,6.235
	c-3.201,1.507-6.676,2.262-10.428,2.262c-4.782,0-9.013-1.009-12.691-3.034c-3.678-2.022-6.565-5.002-8.661-8.938
	c-2.097-3.936-3.144-8.625-3.144-14.069v-35.864h15.447v33.656c0,4.855,1.213,8.591,3.643,11.201
	c2.428,2.612,5.736,3.918,9.931,3.918c4.267,0,7.614-1.306,10.042-3.918c2.427-2.61,3.64-6.346,3.64-11.201v-33.656H829.731z"/>
<path fill="#FFFFFF" d="M844.682,222.963c2.465-4.781,5.812-8.458,10.042-11.034c4.23-2.574,8.956-3.863,14.182-3.863
	c4.56,0,8.551,0.921,11.973,2.758c3.419,1.841,6.16,4.158,8.219,6.953v-8.718h15.561v61.134h-15.561v-8.938
	c-1.985,2.87-4.727,5.242-8.219,7.119c-3.496,1.875-7.524,2.813-12.085,2.813c-5.15,0-9.839-1.324-14.069-3.972
	c-4.23-2.648-7.577-6.382-10.042-11.2s-3.695-10.354-3.695-16.608C840.986,233.226,842.217,227.747,844.682,222.963 M886.89,229.97
	c-1.471-2.684-3.458-4.745-5.958-6.18c-2.501-1.435-5.187-2.151-8.055-2.151c-2.87,0-5.519,0.7-7.945,2.097
	c-2.428,1.398-4.396,3.439-5.904,6.124c-1.508,2.687-2.262,5.867-2.262,9.546c0,3.68,0.754,6.896,2.262,9.655
	s3.494,4.874,5.959,6.346s5.094,2.206,7.891,2.206c2.868,0,5.554-0.717,8.055-2.151c2.5-1.435,4.487-3.493,5.958-6.18
	c1.473-2.685,2.207-5.903,2.207-9.655C889.097,235.875,888.362,232.656,886.89,229.97"/>
<polygon fill="#FFFFFF" points="978.261,209.059 940.41,299.104 923.97,299.104 937.211,268.647 912.713,209.059 930.038,209.059 
	945.818,251.765 961.819,209.059 "/>
<polygon fill="#002D46" points="32.489,276.378 128.555,301.022 224.62,276.378 224.62,38.447 32.489,38.447 "/>
<polygon fill="#B45541" points="225.607,275.818 225.607,118.688 31.528,118.688 "/>
<path fill="#C8AA55" d="M194.985,118.688c1.131-0.591,1.131-1.118,0-1.684l-18.899-5.019l-10.026-2.769
	c1.704-0.573,3.368-1.684,4.999-3.348c3.934-5.54,15.019-4.441,17.828-12.236c0.566-1.658,0.566-1.658-1.125-1.092
	c-3.329,1.665-4.427,0.545-10.006,0c-7.215,0-9.992,0.545-13.874,3.881c-1.138,1.118-2.256,1.118-2.795,1.684l4.973-9.454
	l10.026-17.28c0.566-1.085,0-1.632-1.093-1.085l-17.26,10.011l-8.329,5.007c0.573-1.671,0.573-3.341,0.573-6.111
	c-0.573-6.118,7.756-13.354,4.446-21.156c-0.559-1.665-1.085-1.066-1.697,0.579c-1.099,3.315-2.749,3.315-7.217,6.664
	c-4.986,5.006-6.67,7.236-7.236,12.794c0,1.119-0.532,2.223-0.532,2.796l-3.322-10.584l-5.02-18.907c0-1.105-1.105-1.105-1.105,0
	l-5.591,18.907l-2.75,10.011c-0.586-1.643-1.69-3.354-3.349-4.44c-5.012-4.486-3.893-15.563-11.676-18.36
	c-1.677-0.526-2.23,0-1.105,1.119c1.678,3.315,0,5.005,0,10.012c-0.572,7.229,0,10.026,3.341,14.465
	c1.113,0.54,1.638,1.651,1.638,2.75l-9.452-5.546L82.162,70.286c-0.598-0.547-1.132,0-1.132,1.085l10.013,17.28l4.986,8.888
	c-1.658-0.559-3.335-1.118-5.572-1.118c-6.67,1.118-13.881-7.77-21.117-4.447c-1.657,1.111-1.657,1.658,0,1.658
	c3.336,1.125,3.336,3.348,7.236,7.243c4.454,5.552,6.672,6.657,12.23,7.216c1.085,0,2.237,0.552,3.335,1.125l-10.577,2.769
	l-19.439,5.019c-0.573,0.566-0.573,1.093,0,1.684H194.985z"/>
<path fill="#FFFFFF" d="M127.742,165.579c8.584,0,16.453,2.907,22.714,7.822l-8.742,8.802c-3.986-2.784-8.802-4.408-13.972-4.408
	c-13.505,0-24.491,11.053-24.491,24.558c0,13.538,10.986,24.583,24.491,24.583c5.17,0,9.986-1.632,13.972-4.368l8.742,8.742
	c-6.261,4.927-14.13,7.899-22.714,7.899c-20.261,0-36.779-16.575-36.779-36.856C90.963,182.083,107.481,165.579,127.742,165.579"/>
<path fill="#FFFFFF" d="M127.742,153.277c11.946,0,22.926,4.315,31.424,11.439l8.71-8.689
	c-10.736-9.361-24.827-15.038-40.134-15.038c-33.76,0-61.369,27.602-61.369,61.362c0,33.824,27.609,61.381,61.369,61.381
	c33.786,0,61.362-27.557,61.362-61.381v-0.066v-0.066v-6.064h-61.362v12.427h48.693c-3.067,24.142-23.761,42.897-48.693,42.897
	c-26.977,0-49.093-22.058-49.093-49.127C78.649,175.327,100.765,153.277,127.742,153.277"/>
<path fill="#C8AA55" d="M128.555,312.302L21.739,284.238V27.698H235.37v256.54L128.555,312.302z M32.489,276.378l96.066,24.645
	l96.065-24.645V38.447H32.489V276.378z"/>
</svg>
