<?xml version="1.0" encoding="utf-8"?>
<!-- Generator: Adobe Illustrator 16.0.0, SVG Export Plug-In . SVG Version: 6.00 Build 0)  -->
<!DOCTYPE svg PUBLIC "-//W3C//DTD SVG 1.1//EN" "http://www.w3.org/Graphics/SVG/1.1/DTD/svg11.dtd">
<svg version="1.1" id="Layer_1" xmlns="http://www.w3.org/2000/svg" xmlns:xlink="http://www.w3.org/1999/xlink" x="0px" y="0px"
	 width="1000px" height="176px" viewBox="0 0 1000 176" enable-background="new 0 0 1000 176" xml:space="preserve">
<g>
	<path fill="#F9F7F6" d="M164.037,72.206c2.091-3.549,4.912-6.329,8.488-8.326c3.576-1.997,7.49-2.996,11.754-2.996
		c4.871,0,9.203,1.201,12.995,3.59c3.792,2.388,6.545,5.775,8.259,10.161h-9.015c-1.188-2.402-2.834-4.21-4.939-5.398
		c-2.105-1.174-4.547-1.768-7.3-1.768c-3.036,0-5.736,0.675-8.097,2.038c-2.375,1.363-4.224,3.306-5.56,5.857
		c-1.336,2.55-2.011,5.506-2.011,8.879c0,3.387,0.675,6.343,2.011,8.893c1.336,2.537,3.185,4.508,5.56,5.885
		c2.361,1.376,5.061,2.077,8.097,2.077c2.753,0,5.195-0.594,7.3-1.78c2.105-1.188,3.751-2.983,4.939-5.398h9.015
		c-1.714,4.385-4.467,7.759-8.259,10.134c-3.792,2.362-8.124,3.55-12.995,3.55c-4.305,0-8.232-0.998-11.781-2.996
		c-3.549-1.983-6.37-4.764-8.461-8.313c-2.079-3.563-3.118-7.571-3.118-12.051C160.918,79.776,161.958,75.755,164.037,72.206"/>
	<rect x="214.277" y="58.523" fill="#F9F7F6" width="7.503" height="48.688"/>
	<path fill="#F9F7F6" d="M264.49,70.951v36.26h-7.503v-4.278c-1.187,1.498-2.739,2.672-4.642,3.522
		c-1.903,0.85-3.94,1.282-6.086,1.282c-2.847,0-5.411-0.594-7.665-1.781c-2.267-1.174-4.035-2.928-5.33-5.263
		c-1.296-2.321-1.943-5.129-1.943-8.421V70.951h7.435v20.202c0,3.253,0.81,5.735,2.429,7.476c1.633,1.728,3.846,2.591,6.653,2.591
		c2.807,0,5.033-0.863,6.68-2.591c1.646-1.74,2.469-4.223,2.469-7.476V70.951H264.49z"/>
	<path fill="#F9F7F6" d="M287.08,72.044c2.227-1.12,4.683-1.687,7.409-1.687c3.198,0,6.099,0.77,8.69,2.308
		c2.578,1.538,4.629,3.725,6.114,6.545c1.497,2.834,2.239,6.072,2.239,9.703c0,3.643-0.742,6.91-2.239,9.783
		c-1.485,2.861-3.536,5.102-6.154,6.707c-2.605,1.606-5.492,2.402-8.65,2.402c-2.807,0-5.29-0.553-7.463-1.646
		c-2.172-1.095-3.899-2.497-5.168-4.211v5.263h-7.503V58.523h7.503v17.826C283.126,74.595,284.867,73.164,287.08,72.044
		 M302.355,82.435c-1.039-1.822-2.388-3.198-4.089-4.143c-1.686-0.944-3.495-1.417-5.425-1.417c-1.889,0-3.67,0.486-5.357,1.444
		c-1.687,0.972-3.049,2.375-4.088,4.21c-1.026,1.849-1.539,4.022-1.539,6.518c0,2.497,0.513,4.683,1.539,6.545
		c1.039,1.876,2.401,3.28,4.088,4.251c1.687,0.958,3.468,1.444,5.357,1.444c1.93,0,3.739-0.486,5.425-1.484
		c1.701-0.985,3.05-2.416,4.089-4.305c1.026-1.89,1.539-4.075,1.539-6.585C303.895,86.416,303.381,84.257,302.355,82.435"/>
	<path fill="#F9F7F6" d="M335.835,79.25c1.525-2.807,3.576-4.993,6.194-6.558c2.605-1.552,5.519-2.335,8.717-2.335
		c2.362,0,4.697,0.526,7.004,1.552c2.308,1.026,4.143,2.402,5.493,4.116V58.522h7.57v48.688h-7.57v-5.466
		c-1.228,1.755-2.929,3.212-5.102,4.347c-2.172,1.146-4.655,1.713-7.462,1.713c-3.158,0-6.045-0.797-8.65-2.402
		c-2.618-1.605-4.669-3.846-6.194-6.706c-1.511-2.875-2.267-6.14-2.267-9.784C333.568,85.282,334.325,82.057,335.835,79.25
		 M361.705,82.529c-1.039-1.835-2.388-3.239-4.048-4.21c-1.674-0.958-3.468-1.444-5.398-1.444c-1.93,0-3.724,0.472-5.398,1.417
		c-1.66,0.944-3.009,2.321-4.048,4.143c-1.026,1.821-1.539,3.98-1.539,6.477c0,2.51,0.513,4.696,1.539,6.585
		c1.039,1.891,2.388,3.32,4.089,4.306c1.686,0.999,3.468,1.484,5.357,1.484c1.93,0,3.724-0.485,5.398-1.444
		c1.66-0.972,3.009-2.375,4.048-4.25c1.026-1.863,1.539-4.05,1.539-6.546C363.244,86.55,362.73,84.378,361.705,82.529"/>
	<path fill="#F9F7F6" d="M413.646,91.881h-27.691c0.216,2.888,1.282,5.222,3.212,6.978c1.929,1.754,4.304,2.631,7.111,2.631
		c4.035,0,6.883-1.688,8.556-5.074h8.097c-1.107,3.334-3.091,6.073-5.965,8.191c-2.861,2.133-6.437,3.198-10.688,3.198
		c-3.468,0-6.571-0.782-9.311-2.335c-2.739-1.564-4.885-3.751-6.45-6.585c-1.552-2.834-2.335-6.1-2.335-9.838
		c0-3.724,0.756-7.004,2.267-9.837c1.525-2.821,3.644-5.007,6.383-6.545c2.739-1.539,5.897-2.308,9.446-2.308
		c3.428,0,6.478,0.756,9.15,2.24c2.672,1.498,4.763,3.59,6.248,6.289c1.497,2.699,2.24,5.802,2.24,9.311
		C413.916,89.56,413.82,90.788,413.646,91.881 M406.088,85.822c-0.054-2.766-1.039-4.979-2.969-6.639
		c-1.929-1.674-4.318-2.51-7.165-2.51c-2.592,0-4.804,0.823-6.653,2.469c-1.836,1.647-2.942,3.873-3.293,6.68H406.088z"/>
	<path fill="#F9F7F6" d="M471.699,74.635c-1.187-2.281-2.833-3.994-4.939-5.155c-2.105-1.174-4.547-1.754-7.3-1.754
		c-3.037,0-5.736,0.688-8.097,2.037c-2.375,1.363-4.224,3.293-5.56,5.803c-1.336,2.497-2.011,5.384-2.011,8.677
		s0.675,6.193,2.011,8.718c1.336,2.523,3.185,4.466,5.56,5.829c2.361,1.363,5.06,2.038,8.097,2.038c4.075,0,7.381-1.134,9.931-3.428
		c2.537-2.28,4.103-5.37,4.67-9.271h-17.165v-5.992h25.194v5.857c-0.486,3.549-1.741,6.828-3.779,9.81
		c-2.037,2.983-4.695,5.358-7.961,7.14c-3.279,1.768-6.909,2.657-10.89,2.657c-4.305,0-8.232-0.998-11.781-2.995
		c-3.549-1.983-6.37-4.764-8.461-8.313c-2.079-3.563-3.118-7.571-3.118-12.051c0-4.467,1.039-8.488,3.118-12.037
		c2.091-3.549,4.912-6.329,8.488-8.326c3.576-1.997,7.489-2.996,11.754-2.996c4.871,0,9.203,1.201,12.995,3.59
		c3.792,2.388,6.545,5.775,8.259,10.161H471.699z"/>
	<path fill="#F9F7F6" d="M495.908,105.471c-2.753-1.566-4.926-3.752-6.504-6.586c-1.579-2.833-2.375-6.1-2.375-9.837
		c0-3.685,0.809-6.95,2.428-9.797c1.633-2.861,3.847-5.047,6.653-6.586c2.807-1.538,5.938-2.307,9.406-2.307
		c3.468,0,6.599,0.769,9.419,2.307c2.807,1.539,5.02,3.725,6.64,6.586c1.619,2.847,2.429,6.113,2.429,9.797
		c0,3.684-0.824,6.948-2.497,9.81c-1.659,2.848-3.939,5.047-6.814,6.613c-2.861,1.552-6.032,2.334-9.5,2.334
		C501.764,107.805,498.674,107.022,495.908,105.471 M510.617,99.91c1.687-0.931,3.063-2.308,4.116-4.143
		c1.052-1.85,1.579-4.089,1.579-6.72c0-2.632-0.5-4.858-1.513-6.681c-1.012-1.822-2.348-3.185-4.021-4.102
		c-1.66-0.931-3.468-1.39-5.398-1.39c-1.93,0-3.711,0.459-5.356,1.39c-1.647,0.917-2.955,2.28-3.914,4.102
		c-0.972,1.822-1.444,4.048-1.444,6.681c0,3.912,0.999,6.923,2.996,9.055c1.984,2.118,4.507,3.184,7.53,3.184
		C507.122,101.286,508.93,100.827,510.617,99.91"/>
	<rect x="531.439" y="58.523" fill="#F9F7F6" width="7.503" height="48.688"/>
	<path fill="#F9F7F6" d="M564.015,77.078h-6.72v30.133h-7.557V77.078h-4.278v-6.127h4.278v-2.564c0-4.169,1.105-7.206,3.318-9.108
		c2.213-1.917,5.695-2.861,10.433-2.861v6.248c-2.281,0-3.888,0.432-4.806,1.282c-0.917,0.85-1.389,2.334-1.389,4.439v2.564h6.72
		V77.078z"/>
	<path fill="#F9F7F6" d="M590.695,79.182c1.511-2.807,3.576-4.993,6.18-6.559c2.618-1.551,5.52-2.334,8.717-2.334
		c2.375,0,4.711,0.526,7.019,1.552c2.294,1.025,4.129,2.402,5.492,4.116V58.454h7.57v48.688h-7.57v-5.465
		c-1.229,1.754-2.929,3.212-5.102,4.346c-2.173,1.146-4.669,1.713-7.476,1.713c-3.158,0-6.032-0.796-8.65-2.401
		c-2.604-1.606-4.669-3.847-6.18-6.706c-1.512-2.875-2.268-6.142-2.268-9.784C588.428,85.214,589.184,81.989,590.695,79.182
		 M616.551,82.461c-1.025-1.835-2.375-3.239-4.049-4.21c-1.66-0.958-3.469-1.444-5.397-1.444c-1.931,0-3.725,0.472-5.386,1.417
		c-1.673,0.944-3.021,2.321-4.048,4.143c-1.039,1.821-1.552,3.98-1.552,6.477c0,2.51,0.513,4.696,1.552,6.585
		c1.026,1.889,2.39,3.32,4.075,4.305c1.688,0.998,3.482,1.484,5.358,1.484c1.929,0,3.737-0.486,5.397-1.444
		c1.674-0.971,3.023-2.375,4.049-4.25c1.038-1.862,1.552-4.049,1.552-6.545C618.103,86.482,617.589,84.31,616.551,82.461"/>
	<path fill="#F9F7F6" d="M668.504,91.813H640.8c0.216,2.888,1.296,5.222,3.226,6.977c1.93,1.754,4.305,2.631,7.111,2.631
		c4.035,0,6.883-1.687,8.542-5.073h8.098c-1.094,3.333-3.077,6.072-5.951,8.19c-2.875,2.133-6.438,3.198-10.688,3.198
		c-3.468,0-6.571-0.782-9.311-2.334c-2.753-1.565-4.899-3.752-6.451-6.585c-1.564-2.834-2.335-6.1-2.335-9.838
		c0-3.725,0.756-7.004,2.268-9.838c1.512-2.82,3.644-5.006,6.384-6.544c2.738-1.539,5.883-2.308,9.445-2.308
		c3.414,0,6.465,0.756,9.137,2.24c2.685,1.498,4.763,3.59,6.261,6.289c1.483,2.699,2.227,5.802,2.227,9.311
		C668.761,89.491,668.68,90.72,668.504,91.813 M660.934,85.753c-0.041-2.767-1.025-4.979-2.955-6.639
		c-1.93-1.674-4.331-2.51-7.18-2.51c-2.591,0-4.803,0.823-6.639,2.469c-1.85,1.647-2.942,3.873-3.292,6.68H660.934z"/>
	<rect x="676.129" y="58.454" fill="#F9F7F6" width="7.503" height="48.688"/>
	<path fill="#F9F7F6" d="M718.043,61.409v29.148c0,3.468,0.917,6.072,2.739,7.826c1.821,1.769,4.345,2.646,7.598,2.646
		c3.292,0,5.843-0.877,7.665-2.646c1.821-1.754,2.727-4.358,2.727-7.826V61.409h7.502v29.013c0,3.738-0.81,6.896-2.429,9.487
		c-1.62,2.577-3.792,4.507-6.518,5.789c-2.713,1.269-5.722,1.903-9.015,1.903s-6.288-0.635-8.975-1.903
		c-2.698-1.282-4.844-3.212-6.423-5.789c-1.579-2.591-2.362-5.749-2.362-9.487V61.409H718.043z"/>
	<path fill="#F9F7F6" d="M767.892,71.84c1.822-1.025,3.981-1.552,6.478-1.552v7.773h-1.902c-2.942,0-5.169,0.742-6.681,2.24
		c-1.511,1.485-2.267,4.076-2.267,7.759v19.082h-7.503v-36.26h7.503v5.263C764.612,74.309,766.07,72.866,767.892,71.84"/>
	<path fill="#F9F7F6" d="M814.124,70.882v36.26h-7.503v-4.278c-1.188,1.498-2.739,2.672-4.643,3.522
		c-1.902,0.85-3.939,1.281-6.086,1.281c-2.847,0-5.41-0.594-7.665-1.78c-2.267-1.175-4.034-2.929-5.329-5.264
		c-1.296-2.32-1.943-5.128-1.943-8.421V70.882h7.435v20.201c0,3.253,0.811,5.736,2.43,7.477c1.633,1.728,3.846,2.591,6.652,2.591
		c2.808,0,5.033-0.863,6.681-2.591c1.646-1.74,2.469-4.224,2.469-7.477V70.882H814.124z"/>
	<path fill="#F9F7F6" d="M846.065,71.976c2.173,1.12,3.873,2.51,5.102,4.17v-5.263h7.57v36.853c0,3.333-0.702,6.303-2.105,8.92
		c-1.416,2.605-3.441,4.656-6.1,6.154c-2.645,1.484-5.815,2.227-9.501,2.227c-4.912,0-9-1.147-12.238-3.454
		c-3.252-2.294-5.087-5.426-5.532-9.379h7.435c0.58,1.889,1.794,3.413,3.657,4.574c1.862,1.16,4.089,1.754,6.679,1.754
		c3.023,0,5.467-0.931,7.343-2.767c1.861-1.848,2.793-4.52,2.793-8.029v-6.059c-1.282,1.714-2.996,3.158-5.168,4.318
		c-2.173,1.16-4.643,1.74-7.409,1.74c-3.158,0-6.032-0.796-8.65-2.401c-2.604-1.606-4.669-3.847-6.18-6.706
		c-1.512-2.875-2.269-6.142-2.269-9.784c0-3.63,0.757-6.855,2.269-9.662c1.511-2.807,3.576-4.993,6.18-6.559
		c2.618-1.551,5.492-2.334,8.65-2.334C841.396,70.289,843.893,70.855,846.065,71.976 M849.614,82.461
		c-1.024-1.835-2.375-3.239-4.048-4.21c-1.66-0.958-3.468-1.444-5.397-1.444c-1.931,0-3.725,0.472-5.386,1.417
		c-1.673,0.944-3.021,2.321-4.048,4.143c-1.039,1.821-1.552,3.98-1.552,6.477c0,2.51,0.513,4.696,1.552,6.585
		c1.026,1.889,2.39,3.32,4.076,4.305c1.687,0.998,3.481,1.484,5.357,1.484c1.93,0,3.737-0.486,5.397-1.444
		c1.673-0.971,3.023-2.375,4.048-4.25c1.039-1.862,1.553-4.049,1.553-6.545C851.167,86.482,850.653,84.31,849.614,82.461"/>
	<path fill="#F9F7F6" d="M901.434,70.882v36.26h-7.503v-4.278c-1.187,1.498-2.726,2.672-4.629,3.522
		c-1.916,0.85-3.939,1.281-6.099,1.281c-2.848,0-5.398-0.594-7.665-1.78c-2.254-1.175-4.035-2.929-5.331-5.264
		c-1.281-2.32-1.929-5.128-1.929-8.421V70.882h7.435v20.201c0,3.253,0.811,5.736,2.429,7.477c1.62,1.728,3.833,2.591,6.641,2.591
		c2.806,0,5.047-0.863,6.679-2.591c1.647-1.74,2.47-4.224,2.47-7.477V70.882H901.434z"/>
	<path fill="#F9F7F6" d="M911.069,79.182c1.524-2.807,3.575-4.993,6.193-6.559c2.605-1.551,5.492-2.334,8.65-2.334
		c2.847,0,5.344,0.567,7.462,1.687c2.133,1.12,3.833,2.51,5.102,4.17v-5.263h7.57v36.259h-7.57v-5.396
		c-1.269,1.714-2.996,3.144-5.195,4.277c-2.199,1.146-4.696,1.713-7.503,1.713c-3.117,0-5.966-0.796-8.556-2.401
		c-2.591-1.606-4.629-3.847-6.153-6.706c-1.512-2.875-2.268-6.142-2.268-9.784C908.802,85.214,909.558,81.989,911.069,79.182
		 M936.938,82.461c-1.038-1.835-2.388-3.239-4.048-4.21c-1.674-0.958-3.468-1.444-5.397-1.444s-3.725,0.472-5.398,1.417
		c-1.659,0.944-3.009,2.321-4.048,4.143c-1.026,1.821-1.539,3.98-1.539,6.477c0,2.51,0.513,4.696,1.539,6.585
		c1.039,1.889,2.389,3.32,4.089,4.305c1.687,0.998,3.468,1.484,5.357,1.484c1.93,0,3.724-0.486,5.397-1.444
		c1.66-0.971,3.01-2.375,4.048-4.25c1.026-1.862,1.539-4.049,1.539-6.545C938.477,86.482,937.964,84.31,936.938,82.461"/>
	<polygon fill="#F9F7F6" points="988.555,70.882 966.315,124.186 958.557,124.186 965.925,106.548 951.647,70.882 960.001,70.882 
		970.201,98.52 980.796,70.882 	"/>
	<polygon fill="#002D46" points="16.999,142.958 66.628,155.69 116.259,142.958 116.259,20.036 16.999,20.036 	"/>
	<polygon fill="#B45541" points="116.769,142.669 116.769,61.491 16.502,61.491 	"/>
	<path fill="#C8AA55" d="M100.949,61.491c0.584-0.306,0.584-0.578,0-0.87l-9.764-2.593l-5.179-1.431
		c0.88-0.296,1.739-0.87,2.583-1.729c2.032-2.862,7.758-2.294,9.21-6.322c0.292-0.857,0.292-0.857-0.581-0.564
		c-1.72,0.86-2.288,0.282-5.17,0c-3.727,0-5.162,0.282-7.167,2.005c-0.588,0.578-1.166,0.578-1.445,0.87l2.57-4.884l5.179-8.928
		c0.293-0.56,0-0.843-0.564-0.56l-8.918,5.172l-4.302,2.587c0.296-0.863,0.296-1.726,0.296-3.158
		c-0.296-3.16,4.006-6.898,2.297-10.929c-0.289-0.86-0.561-0.551-0.877,0.299c-0.568,1.712-1.42,1.712-3.729,3.443
		c-2.576,2.586-3.445,3.738-3.738,6.61c0,0.577-0.275,1.148-0.275,1.444l-1.716-5.468l-2.593-9.768c0-0.57-0.571-0.57-0.571,0
		l-2.889,9.768l-1.42,5.172c-0.303-0.849-0.874-1.733-1.731-2.294c-2.589-2.318-2.011-8.04-6.032-9.485
		c-0.867-0.272-1.152,0-0.571,0.578c0.867,1.712,0,2.586,0,5.172c-0.296,3.735,0,5.18,1.726,7.473
		c0.576,0.28,0.847,0.854,0.847,1.421l-4.883-2.865l-8.881-5.172c-0.309-0.283-0.585,0-0.585,0.56l5.173,8.928l2.576,4.592
		c-0.856-0.289-1.723-0.578-2.878-0.578c-3.447,0.578-7.172-4.014-10.91-2.298c-0.856,0.575-0.856,0.857,0,0.857
		c1.724,0.581,1.724,1.73,3.738,3.742c2.301,2.869,3.447,3.439,6.319,3.728c0.56,0,1.155,0.285,1.723,0.581l-5.465,1.431
		l-10.043,2.593c-0.296,0.292-0.296,0.564,0,0.87H100.949z"/>
	<path fill="#FFFFFF" d="M66.209,85.716c4.435,0,8.5,1.502,11.735,4.041l-4.516,4.547c-2.06-1.438-4.548-2.277-7.219-2.277
		c-6.977,0-12.653,5.71-12.653,12.688c0,6.994,5.676,12.7,12.653,12.7c2.671,0,5.159-0.844,7.219-2.257l4.516,4.517
		c-3.235,2.545-7.3,4.082-11.735,4.082c-10.467,0-19.001-8.564-19.001-19.042C47.208,94.242,55.742,85.716,66.209,85.716"/>
	<path fill="#FFFFFF" d="M66.209,79.36c6.172,0,11.844,2.229,16.235,5.91l4.499-4.489c-5.546-4.836-12.826-7.769-20.734-7.769
		c-17.441,0-31.705,14.26-31.705,31.702c0,17.475,14.264,31.711,31.705,31.711c17.455,0,31.702-14.236,31.702-31.711v-0.034v-0.034
		v-3.133H66.209v6.42h25.156c-1.584,12.472-12.275,22.161-25.156,22.161c-13.937,0-25.363-11.396-25.363-25.38
		C40.846,90.752,52.272,79.36,66.209,79.36"/>
	<path fill="#C8AA55" d="M66.628,161.517l-55.183-14.498V14.483h110.367v132.536L66.628,161.517z M16.999,142.958l49.63,12.732
		l49.631-12.732V20.036H16.999V142.958z"/>
</g>
</svg>
