<?xml version="1.0" encoding="utf-8"?>
<!-- Generator: Adobe Illustrator 16.0.0, SVG Export Plug-In . SVG Version: 6.00 Build 0)  -->
<!DOCTYPE svg PUBLIC "-//W3C//DTD SVG 1.1//EN" "http://www.w3.org/Graphics/SVG/1.1/DTD/svg11.dtd">
<svg version="1.1" id="Layer_1" xmlns="http://www.w3.org/2000/svg" xmlns:xlink="http://www.w3.org/1999/xlink" x="0px" y="0px"
	 width="1000px" height="1000px" viewBox="0 0 1000 1000" enable-background="new 0 0 1000 1000" xml:space="preserve">
<path fill="#FFFFFF" d="M854.552,543.677c-6.917,37.941-19.648,73.187-37.012,105.395l38.442,44.182
	c36.261-59.948,57.927-129.848,59.614-204.973c2.871-129.51-54.129-246.204-145.443-324.281l52.193-132.63l-111.046,157.25
	l-0.844,1.181C819.649,267.202,880.18,403.289,854.552,543.677 M300.927,770.234c-13.061-9.106-25.546-18.972-37.351-29.68
	l-0.165,0.422c-86.931-79.933-132.382-200.926-108.349-325.04c6.072-31.113,15.006-59.78,26.472-86.256l-43.671-50.168
	c-31.115,56.661-49.579,121.332-51.092,190.387c-2.954,133.135,57.247,252.78,153.204,330.772L160.969,968.63l104.717-148.396
	l34.819-49.326L300.927,770.234z M203.55,286.595c0.926-1.771,2.192-3.373,3.283-5.059c7.421-11.214,15.511-22.006,24.28-32.293
	l-1.256-0.422C309.11,149.159,435.42,105.652,568.801,130.02c36.003,6.661,69.73,18.466,100.588,34.486l46.121-40.135
	c-59.943-36.34-129.922-58.009-205.14-59.695c-137.014-3.036-259.773,60.876-337.513,161.634L49.162,177.658L203.375,286.51
	L203.55,286.595z M820.072,709.863l-28.336-19.983c-4.303,5.818-8.687,11.468-13.318,16.948c-0.844,1.012-1.605,2.023-2.367,2.951
	c-1.266,1.518-2.697,2.867-3.963,4.384c-4.971,5.481-9.942,10.962-15.171,16.105l0.083,0.084
	c-79.768,80.1-196.372,121.078-316.022,99.156c-35.582-6.492-68.97-18.044-99.663-33.896l-48.221,42.074
	c58.514,33.979,126.3,54.215,198.811,55.816c128.081,2.783,243.593-52.781,321.59-142.241l137.344,50.928L820.072,709.863z"/>
<path fill="#FFFFFF" d="M704.497,400.22c-2.439-2.614-6.659-2.614-9.273-0.169l-43.003,40.219l-20.481-6.577l-0.504-0.168
	l-42.839-13.744c-4.045-1.265-8.347,0.843-9.694,4.722c-0.258,0.675-0.258,1.349-0.258,2.023c-3.2-2.023-7.585-4.131-14.584-6.408
	l0.679-1.265c1.596-2.444,2.861-3.794,3.88-4.384c15.089-29.426,30.518-26.138,33.554-45.446
	c4.972-11.467-14.584-53.288,7.421-31.113c9.531,9.696,19.053-3.626,24.198-12.985c4.127,3.963,5.146,2.53,5.064,1.602
	c-1.524-3.457-0.176-9.022,0.247-10.539c7.338-5.818,3.623-3.963,8.934-6.999c0,0,1.183-1.602,1.265-2.698l1.021-0.168
	c0,0,0.751,0.674,1.852,0.674l0.165-0.506l-0.669-0.674c0,0,1.688-2.192,1.771-3.373c1.431-0.084,1.174-5.396-0.257-5.987
	l0.422-0.674l1.101-1.096l0.844,0.169l0.834-1.349l-0.751-0.085l-0.845,0.338l-0.082-0.085l-0.514-0.337l0.174-0.59l-0.421,0.084
	l-0.762-1.011l0.257-0.675l-0.176,0.084c-0.163,0.422-0.587-0.337-0.504,0.422l-0.587-0.506l-0.422,0.421l0.763,0.169l-0.258,0.674
	l-0.34-0.421c0,0,0.082,0.843-0.422,1.012c-0.165-0.506,0-2.361,0.597-2.53l-0.597-1.096l-0.165,0.422l-0.422-0.169l0.258-2.024
	l-0.515-1.601l0.092-0.422l0.165-0.253l0.082,0.253l-0.082-0.843c0,0,0.422,0.084,0.927,0.337c-0.669,0.337-0.083,1.77-0.083,1.77
	l-0.082,0.253c0.247,0.506,0.669,0.422,0.669,0.422l0.68,0.253c-1.02-1.433-0.258-2.445-0.258-2.445l0.176,0.253
	c0.587-0.169,0.504-1.012,0.669-1.687c-0.247,0.675-0.341-0.337-0.341-0.337h-0.328l-0.845,0.422l0.082-0.422
	c0,0-0.422-0.59-0.339-1.096l0.422-0.843c0,0-0.258,0.421-0.844,0.084l-0.247-0.843l-0.093-0.168l-0.165-0.085l-0.257,0.927
	c0,0-0.844-0.505-1.009,0.085l-0.341-0.169c0.341-0.843,2.193-1.518,2.193-1.518l-1.266-0.59l0.257,0.253
	c-0.422,0.422-0.257,0.506-0.257,0.506l-0.834-1.265c0,0-0.937,0.591-0.937,1.35h-0.505c0.68-0.675-0.082-2.277-0.082-2.277
	l0.34-0.759l0.247-0.084l-0.669-0.591l-0.68-0.674l-0.586,0.843v-0.59l-1.514,0.927l-0.093-2.192
	c-0.587-0.169-0.504-0.253-0.504-0.253s-1.935,1.434-1.771,2.699h-0.504c0.422-0.76-0.166-1.265-0.166-1.265l0.166-0.843
	l0.164-0.085c0,0-0.422,0.422-0.752,0.337c0.083-0.337-0.597-1.348-0.597-1.348s2.285-2.193,2.368-3.963c0,0,1.008-1.097,1.43-1.518
	c-0.339-0.084-0.164-0.928-0.164-0.928l-2.192,0.169c0,0-0.515,0.084-0.937,0.253l1.184-1.18c0.505-1.518,0.597-1.939,1.009-3.457
	c0,0-0.833,0.337-1.009,0.843c-0.844-1.096-1.431,0.843-2.696,0.675c-0.844,1.939-3.88,1.348-5.477,2.023
	c-0.257-0.337,0-0.337,0-0.337l-0.597,0.421l-2.779,0.506c-1.184-0.338-1.522,0.169-1.522,0.169
	c-1.256,0.506-1.596,0.843-1.596,0.843l-0.68,0.337c0.083-1.096,0.083-2.276,0.083-2.276c1.441,0,2.284-0.506,3.211-0.338
	l0.504-0.843c0,0-0.586-0.253-1.184-0.084l-0.339-1.181c1.266,0.928,2.614-0.421,2.614-0.421l-0.164-0.59c0,0,0-0.844-0.587-1.097
	c0.247-0.168,0.926,0,0.926,0c0.752,0.169,1.513-0.337,1.935-1.18c0.34,0.169,0.175,0.422,0.175,0.422l1.01-1.181l-2.11,0.253
	l0.164,0.59l-1.595-0.253c-0.598-0.59,0.165-0.759-0.257-1.433c-0.247,0.506-0.341,0.169-0.341,0.169l0.094,0.674l-0.423,0.085
	c0,0-0.679-0.169-0.679-0.759l-0.247,0.084c0,0-1.102,1.349-1.688,1.771c0.586,1.349-3.037,1.18-4.304,1.602l-0.422,0.59
	l-0.422-0.506c-0.422,0.084-1.091,0.674-1.091,0.674c-0.597,0.928-3.458,1.181-3.458,1.181l-1.945-0.59l-0.505,0.506v-0.085v0.085
	l-1.008-0.085c-0.927-1.939-5.064,0.422-5.99-1.686c-0.927,0.506-1.935-0.084-2.615-0.59c0,0-0.669,0.084-1.266-0.253l-0.165,0.253
	l0.762,0.843c-0.762,1.602-2.788,1.265-4.302,0.927l0.34-0.506l-1.019-0.421c0,0,0.679,0.843-0.083,0.843
	c0.844,0.337,1.184,1.518,2.532,1.939l-0.175,0.591c-0.927,0.253-1.678-0.844-2.522-0.591c0,0,0.083,1.096,0.845,1.096
	c0,0,1.349,1.855,0.586,2.614c0,0-1.348-0.59-1.852-1.77l-0.422,0.927l-0.258-0.337c0,0-3.623-1.012-4.468,1.265
	c0.587-0.169,0.681,0.253,0.681,0.253c-0.424,0.253-0.516,0.758-0.516,0.758l-0.669,1.012l0.845-0.168h0.246l0.516,0.759
	l-0.093,0.589c-0.669,0.085-1.092,0.675-1.092,0.675l0.165,1.265l-0.247-0.169h-0.505l-0.339-0.169l0.339-0.505l-0.257-0.084
	l-0.082-0.591l0.247,0.169l0.175-0.422c-1.019-0.084-1.266,1.012-1.266,1.012l-0.175-0.168l0.092,0.505
	c-0.926-0.253-2.614-1.349-3.633-1.264c0.422,1.264,1.184,0.674,1.184,0.674l-1.513,2.024l0.669,1.349l0.679,0.927
	c0,0,0.504-0.337,0.927-0.084l-0.083-0.337l0.247-0.085c0,0,0.68,0.085,1.185,0.337c0,0.759-1.185,0.169-1.185,0.169
	s0,0.253-0.504,0.338l0.082,0.927h0.762c0,0,0.927,0.084,0.258,0.759c-0.094-0.675-0.422-0.169-0.34-0.759l-0.34,0.337l-0.927-0.421
	l-0.34,0.505c-0.586-0.337-0.503,0.254-0.503,0.254l0.082-0.422l-0.587-0.253c-0.34,0.506-0.598,0.506-1.009,0.168l0.411,0.253
	c-0.328,0.254-0.751,0.338-0.751,0.338l-0.258,0.506l-1.265-0.506l-0.248,0.843c0,0,0.587,0.253,1.174,0.674l0.514-0.505
	l0.587,0.252l-0.339,0.422l1.009-0.253c0,0-0.329,0.759-1.009,0.59l0.082,0.254l-0.422,0.168l-0.165-0.506l-0.257-0.337
	c0,0-0.083,0.843-0.669,0.675l0.082,0.506l-0.165,0.084l-0.679-0.253l0.175-0.506l-1.019-0.338l-0.34,1.013
	c0.421-0.675,0.421,0.168,0.421,0.168l-0.328,0.337c0,0-0.598,0.506-1.185,0.506v0.337l1.092,0.253
	c0.258,1.771-1.596,2.53-3.026,3.036v-0.591l-0.762,0.085c0,0,0.762,0.506,0.082,0.927c0.845-0.168,1.771,0.59,3.201,0.169
	l0.175,0.59c-0.679,0.759-1.944,0.337-1.944,0.337l0.761,0.928c0,0,2.193,0.843,1.935,1.939l-2.438-0.421l0.165,0.843l-0.422-0.085
	c-0.34,1.771-3.623,1.181-3.036,3.457c0.514-0.421,0.843-0.169,0.843-0.169s-0.082,1.013-0.751,1.181l0.669,0.928l0.587-0.506
	c0,0,0.598,0.421,0.257-0.169c0.68,0.421,0.845,0.337,0.845,0.337l0.34,0.59l-0.762,1.771l0.587,0.169l-0.083,0.421h-0.247
	l-0.257,0.085v-0.675h-0.34l-0.422-0.253l0.597-0.168l-0.258-0.169l-1.184,0.928l0.68,0.168l0.165,0.506
	c-1.092,0.422-3.037,0.253-3.788,0.928c0,0,1.255-0.085,2.101,1.011c0,0-0.165,1.434-0.846,1.434c0,0,1.268,0.758,1.524,1.517
	l0.586-0.674l0.68-0.085l-0.257,1.35l-0.247,1.011c0,0-0.423,0.506-1.019,0.506l0.596,0.169l-0.504,0.506l0.082,0.506
	c0,0-0.843,0.253-1.441,0.253l0.341,0.758l-4.807,2.53c0,0-9.355,1.012-9.099-1.939c0.165-2.951,1.173-6.998,1.348-9.444
	c0.165-2.361,6.155-18.043,6.155-18.043s1.853-12.058-1.266-15.599c-3.211-3.541-9.191-10.202-9.191-10.202l-8.007-16.695
	c0,0-17.457-16.104-29.603-17.032c-12.392-0.843-36.765-0.506-47.551,8.516c-10.797,9.106-21.079,35.497-21.244,39.713
	c-0.34,4.132-4.899,24.705-4.899,24.705s-8.255,7.42-10.54,9.359c-2.275,1.939-13.401,23.525-13.401,23.525
	s-12.649,25.632-16.951,43.844c-4.385,18.212-17.786,37.521-10.118,50.758c5.146,9.022,14.08,17.791,32.462,19.056
	c18.465,1.349,22.263-0.759,22.263-0.759s0.422,20.91,9.531,31.113c6.741,7.504-2.789,22.091-2.789,22.091l-4.045,48.649
	c0,0-14.08,15.684-14.502,21.08c-0.423,5.312,4.806,11.044,4.806,11.044s-29.508,15.179-37.351,21.755
	c-7.843,6.661-17.034,13.743-22.51,13.321c-5.568-0.421-16.612-0.59-16.612-0.59l-13.833,4.385c0,0-11.888,2.108-12.31,7.419
	c-0.34,5.397,6.659,18.973,9.613,30.018c2.872,10.877,6.33,40.388,11.219,40.725c4.971,0.422,19.473,4.384,22.51,4.553
	c3.036,0.254,5.732-7.588,2.614-11.13c-3.119-3.457-6.155-17.115-6.155-17.115s2.357-15.937,2.532-18.298
	c0.165-2.36,6.741-16.188,6.741-16.188s14.842-9.107,17.878-8.938c3.037,0.253,25.547-3.541,30.775-7.926
	c5.229-4.384,20.482-11.045,20.482-11.045s18.218,5.396,21.677,7.504c5.558,0.422,10.879-9.021,10.879-9.021l8.007-13.49
	l2.439-8.771c0,0,3.036,0.845,4.303,4.808c1.348,3.963-1.771,11.466-1.771,11.466l0.845,6.072c0,0-1.431,20.741-2.614,36.171
	c-1.092,15.43-1.349,27.403-1.349,27.403s-5.651,15.346-8.605,17.791c-2.943,2.528-9.942,10.033-9.942,10.033
	s-6.155,11.214-3.541,14.08c2.615,2.867,24.445,2.951,24.445,2.951l28.582,6.155l18.979,1.434l12.311,0.674
	c0,0,9.438-11.636-15.1-13.405c-24.538-1.771-33.39-16.695-33.39-16.695l8.019-24.536l12.393-34.907l5.393-24.62
	c0,0,13.493,0.928,17.198,1.266c3.623,0.169,5.816-80.691,5.816-80.691l-3.026-45.278l-6.999-17.875c0,0-13.833-15.767-8.605-15.346
	c2.955,0.169,5.064-2.866,6.917-7.251c2.779,0.843,6.073,1.771,10.035,2.782l0.083-0.168c3.962,0.843,7.843,1.433,11.044,1.602
	c2.027,0.084,4.303,0.421,6.412,0.674l0.082,0.085h0.165c6.659,0.927,13.236,2.614,15.099,2.951c1.679,0.253,6.237,3.373,8.76,5.143
	l1.266-0.506l1.863,1.18c0,0,1.935-0.589,3.201,0.085c3.376-1.94,6.658-1.855,10.539-2.277l0.844-0.59l5.558,0.675l0.598,0.168
	c1.596,0.169,2.778,0.338,2.778,0.338s1.102,0.084,2.193,0.253l0.679-0.085l4.549,0.591l0.257-1.602
	c-1.688-1.097-4.477-1.35-6.668-1.687c0,0-8.771-1.77-9.604-2.023l-0.422-1.097l0.926-0.168c3.036,0.337,7.586,0.759,7.586,0.759
	h0.164l0.597,0.084l16.695,5.313c4.045,1.264,8.347-0.759,9.696-4.722v-0.59l43.671-40.893
	C707.029,406.796,707.111,402.749,704.497,400.22 M652.478,283.779v0.759l-0.679-0.338L652.478,283.779 M651.47,282.598
	c0.165,0.675,0,0.759-0.422,1.349l-0.175,0.169c0.257-0.674-0.165-1.264-0.165-1.264 M642.279,264.133l0.082,0.675l0.082-0.675
	l0.597,0.084c-0.339,0.338-0.514,0.928-0.514,0.928l-1.092-0.169L642.279,264.133 M631.317,262.784l-0.598,0.59L631.317,262.784
	 M627.776,264.555l1.514-0.338v0.759h-0.34l-0.422-0.337l0.093,0.59c-0.258-0.843-1.103,0.253-1.103,0.253L627.776,264.555
	 M595.139,437.572l10.797,3.457c-1.266-0.169-2.871-0.338-4.127-0.675C599.616,439.595,597.506,438.752,595.139,437.572
	 M591.176,287.404c0.422-0.506,0.598-0.253,0.598-0.253l0.34-0.337l-0.516,1.855l-0.926,0.337l-0.844,0.254l1.019-0.422
	c0,0-1.349,1.349-1.862,0.422l1.605-0.507c0.082-0.927-0.505-1.011-0.505-1.011L591.176,287.404 M595.9,279.478l0.083,0.169
	l-0.329,0.422L595.9,279.478 M607.202,266.157l0.082-0.085v0.085H607.202z M607.367,266.072L607.367,266.072l1.604-0.253
	L607.367,266.072 M629.464,270.71c0,0,0.165-0.759,0.67-0.759L629.464,270.71 M606.521,268.77l-1.008,0.675l0.257-0.253l0.33-0.422
	H606.521l0.259-0.168l-0.165,0.168H606.521z M588.737,285.043l-0.762,0.76L588.737,285.043 M588.15,283.526v-0.084l-0.423,0.843
	l0.423-0.843V283.526z M587.306,284.285l-0.175-0.169L587.306,284.285 M588.562,288.838V288.5V288.838c0,0-0.165,1.012-0.834,1.433
	l-0.422-0.421C587.306,289.85,588.058,288.585,588.562,288.838 M587.214,286.477l-1.256,0.253L587.214,286.477 M649.02,286.308
	c-0.082,1.012,0.506,1.518,0.763,2.192l0.34-0.421l-0.515,2.614l-0.247-0.169C650.204,289.006,647.837,287.657,649.02,286.308
	 M646.159,276.528c0,0-0.175,1.011-0.681,1.011L646.159,276.528 M639.747,272.48c0.761,0,0.586-0.927,0.586-0.927
	c0.68,1.433-0.329,2.529-1.008,3.541l0.587-1.602 M638.563,266.494l-0.926,2.529L638.563,266.494 M637.39,273.492
	c0,0-0.093,0.506-0.175,1.265C637.215,274.757,636.875,273.492,637.39,273.492 M635.105,273.408
	c0.515,0.506,0.339,0.674,0.679,1.096l-0.082-0.843l0.339-0.084l0.083,0.59l-0.844,0.421L635.105,273.408 M634.179,272.059
	l-0.083,1.012L634.179,272.059 M633.005,268.939l0.422,0.506l-0.175-0.084l-0.339-0.843L633.005,268.939 M632.161,268.181
	c0,0,1.091,0.758,0.504,1.18c0,0-1.008,0.843-1.945,0.168C630.72,269.529,631.398,268.349,632.161,268.181 M630.72,268.939
	c0,0-1.256-0.084-2.356,0.253l-0.082-0.843c1.43-0.337,1.853,0.759,1.853,0.759 M625.409,266.578v0.253l-0.504,0.253l-1.01-0.59
	c0.588-0.084,1.092-0.169,1.092-0.169 M623.052,264.808c0.165,0.758-0.762,0.59-0.762,0.59S622.63,265.145,623.052,264.808
	 M620.778,268.686l0.422,0.337l-1.185,0.759v-0.084l-0.082-0.675l0.082-0.084L620.778,268.686 M618.081,265.061l0.422,0.252
	c0.082,0.422-0.339,0.253-0.339,0.253l-0.762,0.085L618.081,265.061 M617.402,267.59l-0.341,0.422
	c0.176,0.421,0.258,0.59,0.258,0.59l0.165,0.168l-0.506,0.253l-0.082-0.674l0.165-0.506l-0.083-0.253H617.402 M609.641,269.023
	c0.516-0.253,0.516,0.085,0.516,0.085l0.587,0.59l-1.515,0.59l-1.183-0.506l-0.597,0.085c0,0,1.019,0.253,0.422,0.506l-1.174-1.012
	c0.752-0.169,1.092,0.421,1.092,0.421c1.183-0.759,0.761-1.096,0.761-1.096L609.641,269.023 M609.394,264.049h-0.926H609.394
	 M607.284,263.796h0.083l0.679-0.085c0,0,0.586,0.506,0.082,0.591l-0.257-0.169h-0.751L607.284,263.796 M606.78,266.072
	l-1.102-0.421C605.679,265.651,607.037,265.566,606.78,266.072 M602.652,269.867l-0.422,0.843l-0.762-0.169L602.652,269.867
	 M600.625,271.553c0,0-0.679,1.012-1.009,0.675c0.33-0.169,0.669-1.097,0.669-1.097 M596.158,273.239
	c1.091,0.084,0.844,0.675,0.844,0.675l0.751,0.168c-0.926-0.168-1.255-0.505-1.255-0.505L596.158,273.239 M596.24,278.298v0.169
	l-0.34,0.168L596.24,278.298 M595.561,278.298c-0.246,0.085-0.165,0.253-0.165,0.253l-0.257,0.169l-0.422,0.506
	C594.717,279.226,594.892,278.214,595.561,278.298 M593.461,279.563l0.587,0.59l-1.009,0.928l-0.597-0.337L593.461,279.563
	 M591.773,280.828l-0.258,0.084l-0.082-0.168L591.773,280.828 M590.507,280.996l0.34,0.253l-0.175,0.084l-0.329-0.252
	L590.507,280.996 M586.288,291.367l0.174,1.096c0,0-0.926,0.844-1.183,0.675c0.082-0.843,0.422-1.265,0.422-1.265 M585.114,294.318
	v0.169l-0.175,0.169L585.114,294.318 M580.894,304.436v-0.084v0.169V304.436z"/>
<path fill="#FFFFFF" d="M642.547,453.17l0.082-0.084L642.547,453.17z"/>
<polygon fill="#FFFFFF" points="642.547,453.17 642.031,453.591 643.215,453.76 "/>
<polygon fill="#FFFFFF" points="566.958,300.22 567.123,299.124 566.701,300.557 "/>
<path fill="#FFFFFF" d="M567.123,299.107l0.926-2.866c-0.422,0.843-0.762,1.855-0.762,1.855"/>
</svg>
