<?xml version="1.0" encoding="utf-8"?>
<!-- Generator: Adobe Illustrator 16.0.0, SVG Export Plug-In . SVG Version: 6.00 Build 0)  -->
<!DOCTYPE svg PUBLIC "-//W3C//DTD SVG 1.1//EN" "http://www.w3.org/Graphics/SVG/1.1/DTD/svg11.dtd">
<svg version="1.1" id="Layer_1" xmlns="http://www.w3.org/2000/svg" xmlns:xlink="http://www.w3.org/1999/xlink" x="0px" y="0px"
	 width="1000px" height="1000px" viewBox="0 0 1000 1000" enable-background="new 0 0 1000 1000" xml:space="preserve">
<path fill="#18263F" d="M186.684,820.606c-10.267-3.785-21.736-25.356-21.873-39.392c-0.043-1.154-0.085-2.31-0.129-3.465
	c0.074-10.534,0.147-21.066,0.22-31.601c3.397-0.116,6.793-0.333,10.19-0.333c217.088-0.018,434.175-0.018,651.264-0.003
	c3.088,0,6.175,0.211,9.262,0.322c0.132,5.521,0.263,11.042,0.395,16.563c-0.212,2.117-0.72,4.252-0.589,6.348
	c1.412,22.729-9.742,39.241-26.126,53.205c-8.039,4.27-238.982,113.342-270.745,129.056c-21.501,10.636-42.438,11.441-63.912,0.934
	C472.992,951.435,194.846,824.522,186.684,820.606 M535.44,835.281c-9.593,0-19.199,0.303-28.773-0.119
	c-5.402-0.238-6.843,1.655-6.731,6.814c0.105,4.784,0.72,7.321,6.513,7.146c13.603-0.41,27.232,0.137,40.839-0.231
	c6.812-0.185,7.941,2.302,6.002,8.247c-6.915,21.197-21.025,34.936-42.838,39.229c-25.605,5.039-49.272-7.69-60.396-31.063
	c-10.342-21.73-4.955-47.842,13.29-64.402c18.359-16.666,45.466-19.083,66.861-4.661c7.194,4.85,9.496-0.156,12.428-3.632
	c4.663-5.528-2.164-6.671-4.627-8.346c-23.17-15.759-53.339-15.436-76.765,0.412c-23.109,15.634-34.733,44.032-29.152,71.222
	c7.074,34.466,38.553,58.12,73.935,55.559c33.752-2.444,62.044-32.204,63.643-66.4c0.338-7.228-0.776-10.798-9.183-9.956
	C552.215,835.926,543.795,835.279,535.44,835.281 M500.744,883.719c5.025,0.53,10.646-1.243,16.083-3.496
	c2.988-1.238,7.71-2.211,7.438-5.678c-0.21-2.68-3.942-5.158-6.261-7.579c-3.135-3.271-5.577,0.117-8.22,1.085
	c-11.347,4.157-24.429,0.324-31.485-9.289c-7.476-10.182-7.621-22.858-0.378-32.788c7.843-10.751,20.043-14.384,33.856-8.649
	c7.693,3.194,9.862-2.986,12.057-6.51c2.293-3.685-3.152-4.896-5.809-6.169c-15.819-7.582-33.485-4.791-46.447,7.066
	c-12.275,11.231-16.276,29.591-10.005,45.924C467.54,873.177,482.823,883.625,500.744,883.719"/>
<path fill="#952439" d="M11.789,738.744c0.122-21.288,0.238-55.096,0.254-76.386c50.777-0.08,922.605,0.227,966.568-0.102
	c7.406-0.056,9.794,2.125,9.374,9.451c-0.494,8.625,0.135,17.313,0.276,25.976c0.002,3.219,0.005,6.438,0.008,9.656
	c0.004,1.076,0.008,2.15,0.013,3.227c-0.033,5.771-0.066,11.543-0.1,17.314c-0.19,3.461-0.378,6.922-0.568,10.384
	c-4.603,5.809-10.837,7.313-17.897,7.099c-6.714-0.204-881.081,0.92-953.194-0.824C12.816,744.448,11.789,738.853,11.789,738.744
	 M201.484,686.719v-0.167c-2.777,0-5.564,0.154-8.328-0.037c-3.841-0.267-5.644,1.063-5.559,5.191
	c0.184,8.943,0.092,17.895,0.036,26.843c-0.02,3.187,0.717,5.399,4.569,5.278c7.088-0.224,14.203,0.011,21.264-0.521
	c5.457-0.41,9.835-3.247,9.105-9.397c-0.763-6.44-3.062-12.386-1.267-19.385c1.116-4.349-4.093-7.216-8.726-7.725
	C208.922,686.397,205.185,686.719,201.484,686.719 M518.748,704.486c-0.016,20.551-0.016,20.551,19.173,19.179
	c13.015-0.931,17.582-5.832,17.538-18.826c-0.042-12.642-5.136-17.793-18.072-18.276
	C518.762,685.867,518.762,685.867,518.748,704.486 M361.156,723.919c-0.164,0,1.705,0.159,3.539-0.027
	c9.505-0.967,14.075-6.406,13.518-16.368c-0.602-10.735-8.858-3.81-13.375-5.363c-2.305-0.792-6.749-1.59-6.665,3.58
	c0.075,4.691,3.877,2.641,6.224,3.183c1.617,0.374,4.017-0.789,4.531,1.792c0.478,2.397-0.883,4.445-3.004,5.188
	c-5.083,1.78-10.634,2.595-14.957-1.141c-4.496-3.883-3.801-9.573-2.369-14.729c1.41-5.068,5.747-5.875,10.33-5.981
	c3.143-0.073,6.084,0.473,9.014,1.681c2.851,1.175,4.881-0.786,6.138-2.885c1.7-2.842-1.126-3.603-2.862-4.634
	c-6.943-4.124-21.466-3.005-27.216,2.347c-7.084,6.595-6.746,15.152-4.405,23.293C342.354,723.439,350.664,724.366,361.156,723.919
	 M404.393,724.339c14.6-0.026,21.26-6.237,21.098-19.677c-0.15-12.493-7.232-18.787-21.156-18.805
	c-14.262-0.018-21.31,6.592-21.11,19.796C383.419,718.349,390.232,724.362,404.393,724.339 M805.35,723.867
	c-0.026,0,2.16,0.222,4.287-0.037c9.208-1.12,13.911-7.175,12.843-16.869c-1.069-9.703-8.803-2.913-12.987-4.993
	c-0.247-0.123-0.609-0.018-0.919-0.013c-2.769,0.038-5.927-0.438-5.835,3.849c0.084,3.952,3.188,2.766,5.433,3.147
	c1.855,0.315,4.825-1.119,4.994,2.291c0.137,2.759-1.637,4.776-4.319,5.24c-4.859,0.842-10.122,1.9-14.017-2.104
	c-4.149-4.268-3.422-9.891-1.76-14.869c1.778-5.33,6.833-5.734,11.606-5.359c2.713,0.214,5.358,1.201,8.053,1.749
	c2.977,0.605,4.741-1.304,5.805-3.541c1.105-2.328-1.21-3.03-2.697-3.971c-6.249-3.953-20.396-3.212-26.531,1.384
	c-5.989,4.488-8.587,15.138-5.599,23.816C786.94,722.98,794.59,724.438,805.35,723.867 M730.313,722.698
	c-4.516-6.522-6.889-11.36-0.301-18.35c5.966-6.331,0.022-16.568-9.197-17.538c-6.423-0.675-12.972-0.048-19.452-0.314
	c-4.124-0.172-5.333,1.541-5.243,5.461c0.205,8.958,0.143,17.925,0.023,26.887c-0.045,3.429,1.027,5.133,4.76,5.002
	c3.095-0.108,4.344-1.266,4.509-4.404c0.159-3.006-1.64-7.154,3.84-7.839c4.791-0.597,6.584,2.593,8.198,5.995
	C719.886,722.732,723.345,725.397,730.313,722.698 M244.177,704.594c0,20.865,0,20.865,20.033,19.002
	c11.927-1.109,16.746-6.594,16.573-18.863c-0.168-11.979-5.438-17.504-17.327-18.162
	C244.177,685.504,244.177,685.504,244.177,704.594 M865.787,701.203c0-2.777,0.074-5.559-0.021-8.332
	c-0.1-2.904,0.934-6.282-4.167-6.403c-5.673-0.135-4.582,3.639-4.636,6.847c-0.084,4.938-0.093,9.878-0.022,14.815
	c0.089,6.267-3.166,8.823-9.174,8.927c-5.982,0.102-9.446-2.34-9.557-8.559c-0.104-5.863-0.134-11.729-0.064-17.593
	c0.036-3.088-1.162-4.449-4.372-4.392c-2.829,0.052-4.831,0.497-4.729,3.949c0.235,8.014,0.204,16.041,0.635,24.043
	c0.218,4.026,2.868,6.659,6.535,8.271c16.902,7.431,29.541-0.593,29.575-18.795C865.792,703.056,865.79,702.13,865.787,701.203
	 M562.981,705.213c0,18.619,0,18.619,18.979,18.607c1.233,0,2.499,0.178,3.695-0.036c2.901-0.516,7.653,1.876,7.51-3.884
	c-0.126-5.025-4.378-3.097-7.069-3.344c-3.06-0.282-6.164-0.123-9.248-0.089c-2.824,0.032-4.718-0.717-4.692-4.104
	c0.029-3.718,2.541-3.606,5.042-3.637c3.394-0.042,6.787-0.059,10.18-0.028c2.561,0.024,5.015,0.159,5.156-3.516
	c0.136-3.542-1.953-4.003-4.73-3.931c-2.774,0.07-5.565,0.171-8.325-0.045c-2.787-0.219-7.015,1.3-7.096-3.481
	c-0.085-5.036,4.3-2.999,6.979-3.448c1.2-0.202,2.549,0.251,3.68-0.092c3.494-1.059,10.134,3.177,9.916-3.933
	c-0.205-6.678-6.68-2.574-10.226-3.695c-0.28-0.089-0.613-0.012-0.922-0.012C562.981,686.534,562.981,686.534,562.981,705.213
	 M288.264,704.896c0,4.335,0.161,8.677-0.045,13.003c-0.203,4.256,1.222,6.202,5.817,5.992c6.798-0.31,13.62-0.093,20.433-0.104
	c2.503-0.006,4.097-0.854,4.039-3.764c-0.061-2.991-1.878-3.516-4.279-3.51c-2.786,0.006-5.614,0.28-8.349-0.102
	c-3.131-0.438-8.37,2.301-8.24-4.103c0.119-5.742,4.918-3.066,7.772-3.533c2.414-0.394,4.944-0.168,7.418-0.082
	c2.954,0.103,4.756-0.846,4.562-4.18c-0.176-3.054-2.266-3.228-4.553-3.232c-3.406-0.006-6.812-0.049-10.218-0.045
	c-2.669,0.003-5.126-0.313-5.003-3.834c0.107-3.038,2.391-3.112,4.625-3.139c1.548-0.017,3.228,0.37,4.619-0.1
	c3.839-1.297,11.102,3.42,11.201-3.479c0.116-7.894-7.586-3.809-11.523-3.919C288.25,686.257,288.242,686.535,288.264,704.896
	 M686.928,701.709c0-2.469,0.234-4.965-0.059-7.397c-0.378-3.129,2.097-8.045-4.478-7.759c-6.384,0.278-3.883,5.118-4.151,8.249
	c-0.368,4.288-0.209,8.633-0.077,12.948c0.186,6.097-2.526,9.13-8.74,9.289c-6.315,0.161-10.114-2.283-10.246-8.948
	c-0.109-5.552-0.158-11.109-0.016-16.658c0.087-3.404-0.922-5.102-4.688-4.933c-3.149,0.142-4.44,1.412-4.336,4.479
	c0.261,7.696,0.306,15.402,0.738,23.087c0.223,3.956,2.438,6.787,6.155,8.545c16.392,7.754,29.883-0.391,29.899-18.125
	C686.93,703.56,686.93,702.635,686.928,701.709 M178.369,701.825c0.026-0.001,0.053-0.001,0.079-0.001
	c0-2.783,0.089-5.571-0.024-8.351c-0.128-3.168,1.154-7.125-4.571-6.961c-5.983,0.172-3.805,4.519-3.998,7.393
	c-0.31,4.62-0.177,9.277-0.074,13.915c0.137,6.19-2.895,9.013-8.974,9.222c-6.432,0.221-10.005-2.371-9.971-9.117
	c0.028-5.568-0.131-11.14,0.01-16.704c0.093-3.699-1.614-4.733-5.068-4.703c-3.804,0.032-3.635,2.452-3.635,4.967
	c0,7.115-0.064,14.232,0.057,21.346c0.106,6.233,3.768,9.602,9.565,10.763c4.875,0.977,9.796,0.997,14.773,0.391
	c7.741-0.941,11.567-5.235,11.814-12.88C178.452,708.014,178.369,704.918,178.369,701.825 M775.754,701.752h0.139
	c0-3.407-0.115-6.817,0.032-10.218c0.148-3.424-1.004-5.024-4.731-5.05c-3.956-0.026-4.546,2.012-4.481,5.224
	c0.111,5.57-0.122,11.15,0.047,16.719c0.2,6.582-3.396,8.637-9.301,8.613c-6.019-0.024-9.328-2.526-9.227-8.868
	c0.089-5.572-0.112-11.15,0.036-16.721c0.093-3.479-1.097-5.091-4.787-4.943c-2.96,0.119-4.652,0.941-4.594,4.231
	c0.133,7.429-0.15,14.874,0.283,22.281c0.295,5.037,3.27,8.748,8.26,10.116c6.683,1.832,13.509,1.87,20.184-0.034
	c4.979-1.42,7.703-5.105,8.087-10.212C775.978,709.196,775.754,705.466,775.754,701.752 M871.344,722.821
	c3.586,1.146,6.222,1.729,9.021-0.846c6.682-6.148,14.495-6.02,21.678,0.29c2.517,2.21,5.17,1.716,7.744,1.157
	c2.076-0.45,1.333-2.401,0.741-3.765c-4.399-10.144-8.567-20.404-13.413-30.334c-2.287-4.688-9.496-4.431-11.654,0.318
	C880.512,700.526,876.064,711.637,871.344,722.821 M82.601,724.025c4.341,0.072,8.723,0.209,12.665-1.991
	c1.704-0.949,4.702-1.582,3.167-4.473c-1.093-2.061-2.791-4.32-5.87-3.278c-2.02,0.684-3.923,1.983-5.976,2.248
	c-4.673,0.604-9.552,0.669-12.565-3.832c-2.994-4.474-2.909-9.49-0.406-14.114c2.645-4.887,7.585-4.792,12.271-4.394
	c2.097,0.178,4.11,1.2,6.192,1.714c2.934,0.727,4.743-1.112,5.986-3.264c1.318-2.281-0.906-3.119-2.334-4.114
	c-5.996-4.183-20.387-3.602-26.428,1.38c-7.424,6.122-8.044,14.259-5.583,22.796C66.44,722.146,73.85,724.348,82.601,724.025
	 M468.092,704.636c0,4.312-0.009,8.624,0.003,12.936c0.008,3.112-0.356,6.199,4.435,6.308c4.735,0.105,5.069-2.806,4.551-5.992
	c-1.296-7.974,2.851-9.572,9.507-8.74c1.515,0.19,3.079,0.083,4.616,0.009c2.641-0.128,5.892,0.652,5.643-3.854
	c-0.242-4.371-3.501-3.416-6.094-3.535c-2.459-0.113-4.932,0.064-7.39-0.061c-2.598-0.132-5.916,0.779-6.084-3.574
	c-0.169-4.377,3.031-3.818,5.737-3.874c3.387-0.07,6.776-0.066,10.163-0.033c2.41,0.024,4.103-0.457,4.203-3.463
	c0.108-3.278-1.356-4.38-4.4-4.222c-2.15,0.111-4.31,0.009-6.467,0.008C468.073,686.534,468.073,686.534,468.092,704.636
	 M910.68,687.554c0.746,1.448,1.395,2.805,2.125,4.116c5.152,9.219,14.338,16.608,12.716,28.898
	c-0.386,2.922,2.129,3.143,4.467,3.26c3.199,0.161,4.791-1.275,4.358-4.34c-1.163-8.228,3.799-13.918,7.773-20.152
	c2.433-3.816,5.995-7.092,6.738-11.903c-6.072-2.659-8.961,0.526-11.919,5.225c-6.533,10.374-6.995,10.384-13.335,0.104
	C920.471,687.681,917.16,684.826,910.68,687.554 M432.977,704.617c-0.001,19.207,0.01,19.521,15.51,19.002
	c4.373-0.146,12.519,3.7,12.577-3.67c0.056-6.99-7.912-3.099-12.037-3.184c-5.995-0.124-7.363-2.404-7.038-7.745
	c0.356-5.824-0.034-11.689,0.106-17.534c0.08-3.346-0.812-5.04-4.618-5.013c-3.92,0.028-4.584,2.021-4.506,5.22
	C433.075,696,432.997,700.31,432.977,704.617 M121.804,723.82c0.922,0,1.916,0.225,2.757-0.038c3.932-1.223,11.208,3.021,11.44-3.17
	c0.287-7.67-7.503-3.899-11.383-3.836c-6.811,0.111-8.493-2.494-7.997-8.659c0.444-5.503-0.013-11.073,0.113-16.61
	c0.076-3.32-0.811-5.078-4.618-5.025c-3.681,0.051-4.827,1.6-4.747,5.027c0.137,5.845,0.026,11.694,0.027,17.542
	C107.398,723.822,107.4,723.822,121.804,723.82 M602.158,704.736c-0.029,19.212-0.029,19.211,19.437,19.085
	c1.236-0.008,2.474,0.021,3.71-0.012c2.465-0.065,5.136,0.23,5.289-3.464c0.151-3.626-2.281-3.608-4.89-3.887
	c-14.952-1.603-14.946-1.645-14.951-17.095c-0.001-2.78-0.104-5.566,0.005-8.344c0.116-2.965-0.76-4.56-4.141-4.515
	c-3.128,0.041-4.54,1.158-4.481,4.321C602.223,695.463,602.158,700.1,602.158,704.736"/>
<path fill="#18263F" d="M11.063,507.096c-0.97-9.241,3.963-11.726,11.993-11.76c11.371-0.05,128.016-0.333,132.443-0.361
	c5.374,0.734,10.602,1.28,8.885-6.994c-0.008-32.92-0.103-325.205,0.023-328.6c0.826-8.604,3.883-11.488,5.825-17.231
	c0.246-0.356,0.234-0.703-0.036-1.041c9.187-14.46,76.079-50.137,90.928-56.394c1.48-0.368,3.012-0.596,4.431-1.126
	c49.119-18.317,99.703-31.063,151.677-37.419c45.726-5.593,91.699-7.85,137.787-3.887c25.771,2.215,51.462,5.017,76.868,9.907
	c31.832,6.127,63.046,14.659,93.788,24.923c8.008,3.64,29.96,12.213,32.726,13.456c21.458,9.646,42.667,19.756,61.765,33.727
	c3.425,5.873,6.85,11.746,10.272,17.62c1.142,3.511,4.815,6.98,5.812,13.508c-0.18,5.513-0.481,8.54-0.924,12.794
	c-13.02,7.048-25.928,14.311-39.086,21.093c-18.369,9.47-36.925,18.582-55.4,27.847c-8.451-17.388-19.833-25.23-35.67-20.016
	c-13.395,4.41-29.117,3.513-39.973,15.145c-1.653,1.772-5.213,2.813-7.727,2.56c-13.136-1.325-24.539,5.601-37.011,7.266
	c-3.18,0.424-6.787,1.752-5.749,5.713c1.572,6.01-1.283,11.468-1.04,17.307c0.377,9.073-4.033,13.342-13.653,14.873
	c-28.495,4.535-57.941,1.491-86.216,12.136c0.236-8.878,2.45-15.702,7.014-21.84c8.433-11.34,12.388-24.616,11.912-38.243
	c-0.829-23.762-2.972-47.635-11.654-70.098c-8.494-21.977-24.705-36.032-48.388-37.836c-32.023-2.439-61.384,5.484-85.183,28.621
	c-3.224,3.135-6.846,4.902-11.23,5.968c-13.919,3.388-28.284,2.924-42.302,5.312c-8.106,1.381-13.433,9.046-14.58,21.145
	c-0.765,8.062,3.404,12.874,10.637,15.333c8.961,3.045,18.024,4.104,27.283,1.032c7.298-2.422,10.842,0.228,11.825,8.049
	c1.122,8.927-0.675,16.462-6.915,23.024c-4.185,4.402-6.844,10.916-2.615,15.032c5.089,4.953,6.466,11.485,10.338,16.395
	c5.72,7.257,10.623,13.733,8.631,23.674c-0.758,3.79,1.757,7.151,5.773,8.531c3.767,1.295,8.422,1.765,8.719,6.918
	c0.337,5.854-6.056,5.307-8.883,8.259c-0.882,0.921-2.893,0.722-4.363,1.124c-18.717,5.109-29.3,18.692-29.502,37.838
	c-0.178,16.837-2.129,18.523-19.131,16.104c-2.403-0.342-4.737-1.283-7.053-2.088c-12.312-4.284-24.744-7.425-37.999-7.32
	c-28.957,0.228-45.145,26.475-31.975,52.363c13.291,26.127,30.704,29.354,52.322,9.573c12.194-11.16,22.217-24.176,30.457-38.406
	c4.072-7.032,10.993-5.929,16.842-7.88c2.983-0.994,4.309,1.957,5.152,4.262c5.956,16.29,10.649,32.861,10.593,50.421
	c-2.31,0.859-4.703,1.543-6.915,2.604C304.126,438.06,246.42,467.79,185.88,491.377c-1.645,0.641-4.313,0.653-4.181,3.557
	c61.387,0,750.952-1.173,792.332-1.537c9.104-0.08,14.273,3.997,14.832,13.462c-1.025,12.81,0.053,124.029,0.195,147.538
	c-1.034,5.964-4.071,7.972-10.548,7.917c-44.347-0.37-917.397,0.051-966.446,0.108l-0.118-0.254
	c-0.146-0.712-0.291-1.425-0.438-2.137C11.193,655.742,11.542,511.663,11.063,507.096 M593.128,584.397
	c0,17.629,0.383,35.27-0.186,52.88c-0.232,7.215,2.121,8.617,8.845,8.508c25.045-0.408,50.1-0.162,75.15-0.162
	c16.759,0,16.463-0.003,16.602-16.428c0.053-6.121-1.713-7.876-7.809-7.689c-14.521,0.447-29.067,0.142-43.603,0.142
	c-20.034-0.001-19.794,0.005-19.386-19.984c0.114-5.525,2.029-6.633,7.011-6.542c14.84,0.27,29.688,0.096,44.532,0.096
	c17.194,0,16.99,0.007,16.467-17.431c-0.146-4.877-1.565-6.33-6.391-6.246c-15.459,0.268-30.926,0.097-46.389,0.096
	c-15.509-0.001-15.191-0.001-15.235-15.943c-0.017-5.907,1.867-7.264,7.408-7.133c14.836,0.354,29.687,0.121,44.532,0.121
	c18.782-0.001,18.574,0.007,17.9-18.812c-0.179-4.996-1.842-6.191-6.511-6.164c-28.762,0.168-57.525,0.21-86.286-0.035
	c-5.403-0.046-6.821,1.77-6.749,6.916C593.289,548.52,593.133,566.46,593.128,584.397 M65.32,584.621
	c0,17.96,0.216,35.924-0.126,53.878c-0.109,5.71,1.544,7.329,7.291,7.257c25.388-0.313,50.782-0.134,76.174-0.133
	c16.747,0,16.456-0.003,16.643-16.368c0.069-6.022-1.498-7.94-7.675-7.753c-14.849,0.451-29.722,0.145-44.586,0.145
	c-19.459,0-19.248,0.005-18.857-19.722c0.105-5.311,1.654-6.916,6.901-6.812c15.168,0.298,30.345,0.104,45.518,0.104
	c16.617,0,16.28,0,16.302-16.713c0.008-6.129-2.24-7.066-7.57-6.978c-17.336,0.288-34.693-0.292-52.014,0.296
	c-7.537,0.255-10.146-2.161-9.042-9.356c0.278-1.814,0.265-3.742,0.002-5.561c-0.927-6.399,1.476-8.587,8.103-8.374
	c14.848,0.477,29.722,0.149,44.585,0.149c17.834-0.001,17.479-0.003,17.585-17.472c0.039-6.567-2.464-7.576-8.134-7.53
	c-27.867,0.228-55.74,0.322-83.604-0.049c-6.499-0.086-7.698,2.282-7.601,8.041C65.514,549.317,65.324,566.97,65.32,584.621
	 M235.318,521.812c-3.731,0.288-11.177,0.476-18.506,1.503c-21.152,2.966-31.856,13.571-33.171,32.316
	c-1.358,19.339,7.098,29.881,28.858,35.675c4.17,1.109,8.49,1.677,12.758,2.384c10.356,1.719,20.773,3.117,31.067,5.14
	c6.738,1.323,12.502,4.358,12.088,12.713c-0.406,8.22-6.4,10.77-13.11,11.916c-18.425,3.146-36.855,1.932-53.443-6.422
	c-9.819-4.945-14.869-3.335-19.523,5.339c-0.435,0.812-0.914,1.672-1.584,2.275c-6.239,5.609-2.783,8.579,2.901,11.091
	c28.753,12.702,58.441,15.14,88.677,6.921c18.413-5.006,25.504-16.197,24.83-36.068c-0.543-16.035-8.66-25.087-26.658-29.624
	c-2.994-0.754-6.082-1.138-9.07-1.912c-13.159-3.406-27.05-2.75-40.01-7.278c-5.12-1.789-8.646-4.604-8.48-10.631
	c0.167-6.06,3.825-8.57,9.129-9.974c13.631-3.605,26.865-1.182,40.249,1.741c5.25,1.146,10.129,7.325,15.144,3.962
	c4.614-3.093,7.102-9.212,10.956-13.622c3.924-4.488,2.278-6.622-2.389-8.696C271.027,523.895,255.192,522,235.318,521.812
	 M567.828,568.757h0.135v-24.142c0-21.512,0.003-21.26-21.355-20.997c-5.962,0.074-7.194,2.084-7.12,7.547
	c0.279,20.423,0.145,40.853,0.101,61.28c-0.05,23.77-7.297,31.078-30.919,31.247c-2.782,0.02-5.577-0.064-8.346-0.317
	c-16.282-1.489-23.287-8.79-23.493-25.084c-0.223-17.639-0.076-35.283-0.081-52.924c-0.005-22.771,0.005-22.627-23.348-21.702
	c-4.746,0.188-6.445,1.419-6.403,6.341c0.218,25.378-0.243,50.765,0.256,76.135c0.386,19.635,9.978,32.104,28.779,37.392
	c20.623,5.801,41.663,5.95,62.29,0.135c20.146-5.68,28.782-17.494,29.438-38.703C568.133,592.906,567.828,580.827,567.828,568.757
	 M949.244,645.604c0.421-4.101-1.509-6.692-2.717-9.464c-13.449-30.856-27.133-61.613-40.388-92.554
	c-8.866-20.694-8.609-20.474-30.698-20.817c-6.55-0.102-9.207,2.533-11.462,7.928c-6.787,16.234-13.99,32.295-20.963,48.451
	c-9.388,21.75-18.713,43.526-28.573,66.473c5.394,0,9.689-0.536,13.801,0.103c11.114,1.729,18.314-1.547,20.527-13.481
	c1.038-5.604,5.035-7.392,10.938-7.159c12.668,0.499,25.462,1.102,38.028-0.132c11.027-1.084,16.5,3.09,19.277,13.091
	c0.912,3.282,1.323,7.64,6.588,7.587C932.162,645.541,940.723,645.604,949.244,645.604 M429.578,627.907
	c-5.09-4.599-10.359-8.878-15.027-13.735c-3.157-3.285-5.416-2.775-8.449-0.145c-6.58,5.705-14.771,7.555-23.059,8.825
	c-18.208,2.793-36.164-3.991-41.91-16.771c-6.229-13.853-5.849-28.197-0.019-42.27c2.487-6.005,7.061-10.426,12.877-12.738
	c14.969-5.952,31.002-7.429,44.798,0.851c9.171,5.504,13.959,4.057,19.754-2.782c0.993-1.173,2.084-2.378,3.376-3.163
	c8.247-5.009,5.661-8.849-0.984-12.888c-22.084-13.42-45.755-13.369-69.904-8.211c-24.499,5.233-38.622,20.641-42.736,45.284
	c-1.436,8.601-1.281,17.286-0.512,25.896c2.317,25.918,15.335,41.373,40.398,47.97c16.109,4.239,32.509,4.238,48.733,1.12
	C409.181,642.792,420.496,637.844,429.578,627.907 M715.761,584.349c0,17.029,0.57,34.084-0.232,51.075
	c-0.424,8.964,2.779,10.569,10.862,10.38c22.28-0.522,44.58-0.181,66.872-0.181c16.562,0,16.249-0.004,16.463-16.483
	c0.079-6.155-1.729-7.777-7.74-7.63c-16.399,0.403-32.822-0.148-49.221,0.282c-6.329,0.167-8.467-1.367-8.344-8.07
	c0.425-23.214,0.163-46.438,0.163-69.66c0-20.693,0.001-20.478-21.03-20.419c-5.95,0.017-8.088,1.465-7.939,7.767
	C716.033,549.047,715.762,566.701,715.761,584.349"/>
<path fill="#EEEEEE" d="M535.44,835.28c8.354-0.001,16.774,0.646,25.046-0.182c8.407-0.841,9.521,2.729,9.183,9.956
	c-1.599,34.197-29.891,63.957-63.643,66.401c-35.382,2.562-66.861-21.093-73.936-55.559c-5.581-27.189,6.043-55.589,29.153-71.222
	c23.426-15.848,53.595-16.171,76.765-0.413c2.463,1.676,9.29,2.819,4.627,8.347c-2.932,3.476-5.233,8.481-12.428,3.633
	c-21.395-14.423-48.501-12.006-66.862,4.66c-18.244,16.561-23.632,42.673-13.29,64.401c11.124,23.373,34.791,36.103,60.396,31.063
	c21.813-4.292,35.923-18.031,42.838-39.229c1.939-5.945,0.811-8.432-6.002-8.247c-13.605,0.368-27.236-0.178-40.839,0.232
	c-5.793,0.174-6.408-2.362-6.513-7.148c-0.112-5.158,1.329-7.051,6.73-6.813C516.241,835.585,525.848,835.281,535.44,835.28"/>
<path fill="#EEEEEE" d="M500.744,883.719c-17.921-0.094-33.204-10.542-39.171-26.083c-6.271-16.333-2.27-34.692,10.005-45.924
	c12.962-11.857,30.628-14.648,46.447-7.066c2.656,1.273,8.102,2.484,5.809,6.169c-2.194,3.523-4.363,9.704-12.057,6.51
	c-13.813-5.734-26.013-2.102-33.856,8.649c-7.243,9.93-7.098,22.606,0.378,32.788c7.056,9.613,20.138,13.446,31.485,9.289
	c2.643-0.968,5.085-4.356,8.22-1.085c2.318,2.421,6.051,4.899,6.261,7.579c0.272,3.467-4.449,4.439-7.438,5.678
	C511.39,882.476,505.77,884.249,500.744,883.719"/>
<path fill="#EEEEEE" d="M201.484,686.719c3.701,0,7.438-0.321,11.094,0.081c4.633,0.509,9.842,3.376,8.726,7.725
	c-1.795,6.999,0.504,12.944,1.267,19.385c0.73,6.15-3.648,8.987-9.105,9.398c-7.061,0.53-14.176,0.296-21.264,0.52
	c-3.852,0.121-4.589-2.092-4.569-5.278c0.056-8.948,0.148-17.898-0.036-26.844c-0.085-4.127,1.718-5.457,5.559-5.19
	c2.764,0.19,5.551,0.037,8.328,0.037V686.719z M204.621,716.826c3.26-0.729,8.719,1.461,8.34-4.388
	c-0.35-5.406-5.594-3.558-8.942-3.633c-2.966-0.066-7.519-1.665-7.172,4.162C197.186,718.645,201.769,716.007,204.621,716.826
	 M204.324,693.985c-2.485,1.092-7.467-2.256-7.385,3.681c0.068,4.794,4.171,3.547,6.954,3.512c3.116-0.039,7.909,1.35,8.215-3.285
	C212.445,692.787,207.491,694.539,204.324,693.985"/>
<path fill="#EEEEEE" d="M518.748,704.486c0.015-18.619,0.015-18.619,18.639-17.924c12.937,0.483,18.03,5.636,18.072,18.276
	c0.043,12.993-4.523,17.896-17.538,18.826C518.732,725.036,518.732,725.036,518.748,704.486 M527.813,705.181
	c1.736,3.882-3.805,11.796,6.665,11.377c8.52-0.341,11.887-3.439,11.937-11.7c0.049-8.169-4.605-10.297-11.835-10.721
	C524.99,693.574,528.877,700.508,527.813,705.181"/>
<path fill="#EEEEEE" d="M361.156,723.919c-10.492,0.447-18.802-0.479-21.559-10.063c-2.341-8.142-2.679-16.699,4.405-23.293
	c5.75-5.353,20.273-6.472,27.216-2.348c1.736,1.03,4.562,1.792,2.862,4.634c-1.257,2.1-3.287,4.06-6.138,2.885
	c-2.931-1.208-5.871-1.754-9.015-1.681c-4.583,0.106-8.919,0.913-10.329,5.981c-1.432,5.155-2.127,10.846,2.369,14.729
	c4.323,3.734,9.874,2.921,14.957,1.141c2.121-0.743,3.482-2.791,3.003-5.188c-0.513-2.581-2.913-1.418-4.53-1.792
	c-2.347-0.542-6.149,1.509-6.224-3.183c-0.084-5.169,4.36-4.372,6.665-3.58c4.517,1.554,12.773-5.373,13.375,5.363
	c0.557,9.962-4.013,15.401-13.518,16.368C362.861,724.078,360.992,723.919,361.156,723.919"/>
<path fill="#EEEEEE" d="M404.394,724.339c-14.161,0.024-20.975-5.99-21.168-18.686c-0.2-13.204,6.847-19.813,21.109-19.796
	c13.924,0.018,21.006,6.312,21.156,18.804C425.654,718.102,418.993,724.313,404.394,724.339 M405.176,694.082
	c-9.041-0.1-12.843,3.341-12.869,11.179c-0.027,7.702,4.148,11.734,12.119,11.707c7.729-0.028,12.313-4.405,11.965-11.919
	C416.055,697.784,412.46,693.582,405.176,694.082"/>
<path fill="#EEEEEE" d="M805.35,723.868c-10.76,0.569-18.409-0.888-21.645-10.281c-2.987-8.678-0.39-19.328,5.6-23.816
	c6.135-4.596,20.282-5.337,26.531-1.384c1.487,0.941,3.804,1.643,2.697,3.971c-1.063,2.237-2.828,4.146-5.805,3.541
	c-2.694-0.549-5.34-1.535-8.053-1.749c-4.773-0.375-9.828,0.029-11.606,5.359c-1.662,4.979-2.389,10.602,1.759,14.869
	c3.896,4.005,9.158,2.946,14.019,2.104c2.682-0.464,4.455-2.481,4.317-5.239c-0.168-3.411-3.138-1.977-4.993-2.292
	c-2.244-0.383-5.349,0.804-5.433-3.147c-0.092-4.286,3.067-3.81,5.835-3.849c0.31-0.004,0.673-0.11,0.919,0.013
	c4.185,2.08,11.918-4.71,12.987,4.993c1.068,9.694-3.634,15.749-12.842,16.869C807.51,724.088,805.323,723.868,805.35,723.868"/>
<path fill="#EEEEEE" d="M730.313,722.698c-6.968,2.699-10.427,0.034-12.863-5.101c-1.614-3.402-3.407-6.592-8.198-5.995
	c-5.479,0.684-3.681,4.833-3.84,7.839c-0.165,3.139-1.414,4.296-4.509,4.404c-3.732,0.131-4.805-1.573-4.76-5.002
	c0.119-8.962,0.182-17.929-0.023-26.887c-0.09-3.921,1.119-5.633,5.243-5.461c6.48,0.267,13.029-0.36,19.452,0.314
	c9.22,0.97,15.163,11.207,9.197,17.538C723.424,711.338,725.797,716.176,730.313,722.698 M713.249,704.402
	c3.188-0.574,8.472,0.751,8.708-5.01c0.281-6.855-5.471-5.076-9.43-5.271c-3.545-0.177-7.417-1.05-7.289,5.071
	C705.362,705.117,709.098,704.325,713.249,704.402"/>
<path fill="#EEEEEE" d="M244.177,704.594c0-19.09,0-19.09,19.279-18.023c11.889,0.658,17.16,6.183,17.328,18.162
	c0.172,12.27-4.647,17.754-16.574,18.863C244.177,725.459,244.177,725.459,244.177,704.594 M252.724,705.411
	c2.454,3.465-3.821,11.614,6.839,11.185c7.796-0.315,12.124-3.269,12.271-11.416c0.157-8.612-4.922-10.678-12.399-11.033
	C249.669,693.684,254.483,700.955,252.724,705.411"/>
<path fill="#EEEEEE" d="M865.789,701.203c0.001,0.927,0.003,1.853,0.001,2.778c-0.034,18.202-12.673,26.225-29.575,18.795
	c-3.667-1.612-6.317-4.243-6.534-8.271c-0.432-8.002-0.4-16.029-0.636-24.042c-0.102-3.453,1.9-3.898,4.729-3.949
	c3.21-0.06,4.409,1.303,4.372,4.391c-0.069,5.863-0.039,11.73,0.064,17.592c0.11,6.22,3.574,8.661,9.557,8.56
	c6.008-0.104,9.263-2.659,9.174-8.926c-0.07-4.938-0.062-9.879,0.022-14.816c0.054-3.208-1.037-6.982,4.636-6.847
	c5.101,0.121,4.067,3.499,4.168,6.402C865.861,695.646,865.787,698.426,865.789,701.203"/>
<path fill="#EEEEEE" d="M562.981,705.213c0-18.678,0-18.678,18.828-18.666c0.309,0,0.642-0.076,0.922,0.012
	c3.546,1.122,10.021-2.982,10.226,3.695c0.218,7.109-6.422,2.873-9.916,3.933c-1.131,0.343-2.479-0.109-3.68,0.092
	c-2.68,0.449-7.065-1.587-6.98,3.448c0.081,4.781,4.31,3.263,7.097,3.48c2.76,0.217,5.551,0.116,8.325,0.045
	c2.777-0.071,4.865,0.39,4.73,3.932c-0.142,3.675-2.596,3.54-5.156,3.516c-3.393-0.031-6.787-0.014-10.18,0.028
	c-2.501,0.031-5.013-0.081-5.042,3.637c-0.026,3.386,1.868,4.136,4.692,4.104c3.084-0.035,6.188-0.194,9.248,0.088
	c2.691,0.248,6.943-1.683,7.069,3.344c0.144,5.76-4.608,3.368-7.51,3.885c-1.196,0.213-2.462,0.035-3.695,0.036
	C562.981,723.831,562.981,723.831,562.981,705.213"/>
<path fill="#EEEEEE" d="M288.255,704.896c-0.013-18.36-0.005-18.639,18.285-18.127c3.938,0.109,11.639-3.976,11.524,3.918
	c-0.1,6.898-7.363,2.183-11.202,3.479c-1.391,0.471-3.071,0.082-4.619,0.101c-2.234,0.024-4.517,0.1-4.625,3.139
	c-0.123,3.519,2.334,3.836,5.003,3.833c3.406-0.004,6.813,0.039,10.218,0.045c2.287,0.004,4.377,0.178,4.554,3.232
	c0.193,3.334-1.609,4.281-4.563,4.18c-2.473-0.085-5.004-0.312-7.418,0.083c-2.853,0.466-7.653-2.21-7.771,3.532
	c-0.131,6.403,5.108,3.665,8.239,4.102c2.735,0.382,5.563,0.109,8.35,0.103c2.4-0.006,4.217,0.52,4.278,3.511
	c0.059,2.908-1.535,3.758-4.039,3.762c-6.813,0.011-13.635-0.205-20.433,0.105c-4.594,0.209-6.019-1.736-5.817-5.993
	C288.425,713.573,288.265,709.23,288.255,704.896"/>
<path fill="#EEEEEE" d="M686.929,701.709c0.001,0.926,0.001,1.851,0.001,2.776c-0.017,17.733-13.508,25.879-29.899,18.125
	c-3.717-1.758-5.933-4.589-6.155-8.545c-0.433-7.685-0.478-15.391-0.738-23.087c-0.104-3.067,1.187-4.337,4.336-4.479
	c3.767-0.169,4.775,1.528,4.688,4.933c-0.143,5.549-0.094,11.106,0.016,16.657c0.132,6.666,3.931,9.11,10.246,8.949
	c6.215-0.159,8.926-3.193,8.74-9.289c-0.132-4.315-0.291-8.661,0.077-12.948c0.269-3.131-2.232-7.971,4.151-8.249
	c6.574-0.287,4.101,4.63,4.478,7.759C687.162,696.745,686.928,699.24,686.929,701.709"/>
<path fill="#EEEEEE" d="M178.369,701.825c0,3.093,0.083,6.188-0.017,9.278c-0.247,7.645-4.073,11.938-11.814,12.88
	c-4.977,0.605-9.898,0.586-14.773-0.391c-5.797-1.161-9.459-4.528-9.565-10.764c-0.121-7.113-0.057-14.229-0.057-21.344
	c0-2.515-0.169-4.937,3.635-4.968c3.454-0.029,5.161,1.005,5.068,4.704c-0.141,5.563,0.018,11.135-0.01,16.702
	c-0.034,6.747,3.539,9.338,9.971,9.117c6.079-0.208,9.111-3.03,8.974-9.22c-0.103-4.638-0.236-9.296,0.074-13.915
	c0.193-2.875-1.985-7.221,3.998-7.393c5.725-0.165,4.443,3.793,4.571,6.96c0.113,2.779,0.024,5.567,0.024,8.352
	C178.422,701.825,178.395,701.825,178.369,701.825"/>
<path fill="#EEEEEE" d="M775.754,701.751c0,3.714,0.224,7.445-0.054,11.14c-0.384,5.106-3.107,8.792-8.087,10.212
	c-6.675,1.903-13.501,1.865-20.184,0.033c-4.99-1.367-7.965-5.077-8.26-10.114c-0.434-7.407-0.15-14.854-0.283-22.281
	c-0.059-3.291,1.634-4.114,4.594-4.232c3.69-0.146,4.879,1.465,4.787,4.943c-0.148,5.57,0.053,11.148-0.036,16.72
	c-0.102,6.343,3.208,8.845,9.227,8.869c5.904,0.024,9.501-2.031,9.301-8.613c-0.169-5.568,0.064-11.147-0.047-16.72
	c-0.064-3.212,0.525-5.25,4.481-5.223c3.728,0.024,4.88,1.627,4.731,5.05c-0.147,3.4-0.032,6.812-0.032,10.217H775.754z"/>
<path fill="#EEEEEE" d="M871.344,722.822c4.721-11.187,9.169-22.297,14.116-33.18c2.158-4.749,9.367-5.006,11.654-0.317
	c4.846,9.929,9.014,20.188,13.413,30.334c0.592,1.362,1.335,3.313-0.741,3.764c-2.574,0.558-5.228,1.053-7.744-1.157
	c-7.183-6.31-14.996-6.438-21.678-0.29C877.565,724.551,874.93,723.967,871.344,722.822 M891.038,697.686
	c-2.107,4.726-3.758,8.428-5.475,12.276c3.872,1.39,7.098,1.257,10.635,0.267C895.602,705.991,893.992,702.314,891.038,697.686"/>
<path fill="#EEEEEE" d="M82.609,724.021c-8.759,0.327-16.169-1.875-18.89-11.317c-2.461-8.537-1.84-16.673,5.583-22.795
	c6.041-4.982,20.433-5.563,26.429-1.382c1.428,0.995,3.651,1.835,2.334,4.115c-1.243,2.151-3.052,3.989-5.986,3.265
	c-2.082-0.516-4.095-1.536-6.192-1.716c-4.686-0.398-9.627-0.491-12.271,4.395c-2.503,4.624-2.588,9.641,0.406,14.115
	c3.013,4.501,7.892,4.436,12.565,3.832c2.053-0.267,3.956-1.565,5.976-2.249c3.079-1.041,4.776,1.218,5.87,3.278
	c1.534,2.892-1.464,3.523-3.167,4.474C91.324,724.234,86.942,724.098,82.609,724.021"/>
<path fill="#EEEEEE" d="M468.085,704.636c-0.012-18.101-0.012-18.102,18.431-18.089c2.156,0.002,4.316,0.104,6.466-0.007
	c3.044-0.158,4.508,0.944,4.4,4.222c-0.1,3.006-1.793,3.487-4.202,3.463c-3.388-0.033-6.777-0.037-10.163,0.033
	c-2.706,0.055-5.907-0.503-5.738,3.874c0.168,4.354,3.487,3.443,6.084,3.574c2.458,0.125,4.931-0.052,7.39,0.061
	c2.594,0.119,5.853-0.836,6.095,3.535c0.249,4.506-3.002,3.726-5.644,3.854c-1.537,0.075-3.1,0.181-4.616-0.008
	c-6.655-0.832-10.803,0.766-9.507,8.739c0.519,3.187,0.185,6.099-4.551,5.991c-4.791-0.108-4.426-3.194-4.435-6.306
	C468.083,713.26,468.092,708.948,468.085,704.636"/>
<path fill="#EEEEEE" d="M910.681,687.553c6.479-2.727,9.789,0.128,12.923,5.209c6.34,10.279,6.802,10.271,13.335-0.104
	c2.958-4.699,5.847-7.884,11.919-5.225c-0.743,4.812-4.306,8.088-6.738,11.902c-3.975,6.235-8.937,11.925-7.774,20.154
	c0.434,3.063-1.158,4.5-4.357,4.339c-2.338-0.117-4.853-0.338-4.467-3.26c1.622-12.29-7.563-19.68-12.715-28.899
	C912.074,690.359,911.426,689.001,910.681,687.553"/>
<path fill="#EEEEEE" d="M432.987,704.617c0.01-4.308,0.088-8.618-0.017-12.924c-0.077-3.199,0.587-5.192,4.507-5.22
	c3.806-0.026,4.698,1.667,4.617,5.014c-0.139,5.843,0.25,11.709-0.105,17.534c-0.325,5.34,1.043,7.62,7.038,7.744
	c4.125,0.085,12.093-3.808,12.037,3.184c-0.058,7.37-8.204,3.524-12.577,3.67C432.987,724.139,432.976,723.824,432.987,704.617"/>
<path fill="#EEEEEE" d="M121.804,723.82c-14.403,0.003-14.405,0.003-14.407-14.77c-0.001-5.847,0.109-11.698-0.028-17.542
	c-0.08-3.428,1.067-4.976,4.747-5.027c3.807-0.053,4.695,1.705,4.619,5.025c-0.126,5.537,0.331,11.107-0.114,16.611
	c-0.496,6.165,1.187,8.77,7.997,8.657c3.88-0.063,11.67-3.834,11.383,3.838c-0.231,6.189-7.508,1.946-11.439,3.17
	C123.72,724.045,122.727,723.82,121.804,723.82"/>
<path fill="#EEEEEE" d="M602.158,704.736c0-4.637,0.064-9.273-0.022-13.909c-0.059-3.163,1.354-4.28,4.481-4.321
	c3.381-0.045,4.257,1.55,4.141,4.515c-0.109,2.777-0.006,5.563-0.005,8.344c0.005,15.45-0.001,15.492,14.951,17.095
	c2.608,0.278,5.041,0.261,4.89,3.887c-0.153,3.694-2.824,3.398-5.289,3.464c-1.236,0.032-2.474,0.004-3.71,0.012
	C602.129,723.947,602.129,723.948,602.158,704.736"/>
<path fill="#EEEEEE" d="M369.526,407.409c0.057-17.56-4.637-34.13-10.593-50.42c-0.842-2.306-2.169-5.257-5.152-4.262
	c-5.849,1.95-12.77,0.848-16.842,7.88c-8.239,14.229-18.263,27.246-30.457,38.405c-21.617,19.781-39.03,16.555-52.321-9.572
	c-13.17-25.888,3.017-52.136,31.974-52.364c13.255-0.104,25.687,3.036,37.999,7.32c2.317,0.806,4.651,1.747,7.053,2.088
	c17.002,2.42,18.953,0.733,19.131-16.104c0.202-19.146,10.785-32.728,29.502-37.838c1.471-0.401,3.481-0.203,4.363-1.124
	c2.827-2.951,9.22-2.405,8.883-8.258c-0.297-5.154-4.952-5.623-8.719-6.919c-4.015-1.38-6.531-4.741-5.772-8.53
	c1.991-9.941-2.911-16.418-8.632-23.674c-3.872-4.911-5.249-11.442-10.338-16.395c-4.228-4.116-1.569-10.631,2.615-15.032
	c6.241-6.562,8.038-14.098,6.915-23.024c-0.983-7.822-4.527-10.471-11.825-8.05c-9.259,3.072-18.322,2.014-27.283-1.032
	c-7.232-2.459-11.401-7.27-10.637-15.333c1.148-12.098,6.474-19.764,14.58-21.145c14.018-2.388,28.383-1.924,42.302-5.311
	c4.384-1.067,8.006-2.833,11.231-5.968c23.798-23.138,53.16-31.06,85.182-28.622c23.684,1.804,39.894,15.859,48.389,37.836
	c8.682,22.463,10.824,46.336,11.653,70.098c0.476,13.627-3.479,26.903-11.912,38.243c-4.563,6.139-6.777,12.962-7.015,21.841
	c28.275-10.645,57.722-7.602,86.217-12.136c9.62-1.531,14.03-5.801,13.653-14.874c-0.243-5.838,2.613-11.297,1.04-17.307
	c-1.038-3.961,2.569-5.288,5.749-5.713c12.472-1.665,23.875-8.59,37.011-7.266c2.514,0.254,6.073-0.788,7.727-2.56
	c10.855-11.632,26.578-10.734,39.973-15.144c15.837-5.215,27.219,2.627,35.668,20.01c2.018,8.634-1.845,13.604-9.4,17.638
	c-9.022,4.816-19.813,5.415-27.767,12.93c-4.713,4.453-6.164,7.946-2.038,13.299c9.616,12.471,18.466,25.508,29.103,37.219
	c22.054,24.283,39.94,51.11,48.008,83.438c4.378,17.54-5.077,30.814-22.983,32.806c-3.67,0.408-7.404,0.333-11.109,0.337
	c-27.516,0.032-55.003,0.668-82.331,4.237c-13.492,1.762-26.823,4.24-39.398,9.792c-6.022,2.66-10.045,6.83-11.83,13.306
	c-4.834,17.548-9.842,35.048-14.781,52.567c-1.822,0.216-3.646,0.62-5.469,0.621c-73.244,0.033-146.488,0.033-219.732,0.012
	c-1.845,0-3.689-0.274-5.533-0.42c0.194-1.528,0.383-3.057,0.581-4.585C369.73,462.803,370.754,435.151,369.526,407.409
	 M655.654,286.812c-16.988,1.315-31.791,2.595-44.736,10.835c-2.715,1.728-7.677,1.721-7.533,5.734
	c0.177,4.941,5.253,5.244,8.992,6.484c16.426,5.45,32.754,11.251,46.333,22.426c7.972,6.561,17.498,8.615,26.987,11.211
	c4.693,1.284,6.11-0.466,4.284-4.407c-5.693-12.289-8.929-25.783-16.691-36.991C668.426,295.08,661.058,290.328,655.654,286.812"/>
<path fill="#952439" d="M596.31,494.721c4.938-17.519,9.947-35.019,14.782-52.567c1.784-6.476,5.807-10.646,11.829-13.305
	c12.575-5.553,25.906-8.03,39.398-9.793c27.328-3.569,54.815-4.205,82.331-4.237c3.705-0.004,7.439,0.071,11.11-0.337
	c17.905-1.991,27.36-15.265,22.982-32.806c-8.068-32.328-25.954-59.154-48.008-83.437c-10.637-11.712-19.487-24.748-29.103-37.22
	c-4.126-5.352-2.676-8.846,2.038-13.298c7.952-7.516,18.743-8.115,27.767-12.931c7.556-4.034,11.418-9.004,9.4-17.638
	c18.478-9.26,37.033-18.371,55.403-27.841c13.157-6.783,26.065-14.045,39.085-21.092c0.197,4.878,0.172,323.679,0.135,326.612
	c-46.35,0.129-92.699,0.353-139.049,0.353C663.045,495.185,629.677,494.886,596.31,494.721"/>
<path fill="#EEEEEE" d="M593.13,584.397c0.003-17.938,0.159-35.878-0.097-53.812c-0.073-5.146,1.345-6.961,6.748-6.915
	c28.761,0.243,57.524,0.202,86.287,0.034c4.668-0.026,6.331,1.167,6.51,6.163c0.674,18.819,0.882,18.813-17.9,18.813
	c-14.846,0-29.696,0.231-44.532-0.12c-5.541-0.132-7.425,1.224-7.408,7.131c0.044,15.943-0.273,15.944,15.235,15.944
	c15.463,0.001,30.93,0.173,46.389-0.096c4.825-0.084,6.245,1.368,6.391,6.245c0.523,17.439,0.728,17.433-16.466,17.432
	c-14.845,0-29.693,0.175-44.533-0.096c-4.981-0.091-6.896,1.017-7.01,6.542c-0.409,19.989-0.649,19.983,19.385,19.984
	c14.535,0,29.081,0.306,43.603-0.141c6.097-0.188,7.861,1.567,7.809,7.688c-0.139,16.425,0.157,16.428-16.602,16.428
	c-25.051,0-50.105-0.244-75.15,0.163c-6.724,0.109-9.077-1.293-8.844-8.508C593.511,619.666,593.128,602.025,593.13,584.397"/>
<path fill="#EEEEEE" d="M65.321,584.621c0.002-17.651,0.192-35.305-0.106-52.95c-0.097-5.759,1.101-8.127,7.6-8.04
	c27.864,0.37,55.737,0.275,83.605,0.048c5.67-0.046,8.172,0.963,8.133,7.53c-0.106,17.469,0.249,17.472-17.585,17.472
	c-14.863,0-29.737,0.328-44.584-0.149c-6.627-0.213-9.031,1.975-8.104,8.373c0.264,1.82,0.276,3.746-0.002,5.562
	c-1.103,7.194,1.506,9.611,9.042,9.355c17.321-0.587,34.679-0.007,52.015-0.295c5.33-0.089,7.578,0.849,7.569,6.979
	c-0.021,16.713,0.315,16.712-16.302,16.712c-15.173,0-30.349,0.195-45.517-0.104c-5.247-0.103-6.796,1.501-6.902,6.813
	c-0.39,19.727-0.601,19.722,18.858,19.723c14.863,0,29.736,0.305,44.586-0.145c6.176-0.188,7.744,1.729,7.674,7.752
	c-0.187,16.364,0.104,16.368-16.642,16.368c-25.393,0-50.786-0.181-76.175,0.134c-5.747,0.07-7.399-1.547-7.291-7.258
	C65.536,620.545,65.319,602.581,65.321,584.621"/>
<path fill="#EEEEEE" d="M235.317,521.812c19.874,0.188,35.709,2.083,50.713,8.748c4.667,2.074,6.313,4.209,2.39,8.696
	c-3.855,4.41-6.342,10.529-10.957,13.622c-5.015,3.363-9.894-2.815-15.144-3.962c-13.384-2.923-26.617-5.348-40.249-1.741
	c-5.304,1.403-8.962,3.914-9.129,9.974c-0.166,6.026,3.36,8.842,8.48,10.631c12.96,4.529,26.851,3.871,40.01,7.279
	c2.989,0.774,6.076,1.157,9.071,1.911c17.998,4.538,26.115,13.589,26.658,29.624c0.674,19.872-6.417,31.063-24.83,36.068
	c-30.237,8.22-59.925,5.78-88.678-6.921c-5.684-2.512-9.14-5.481-2.9-11.092c0.669-0.603,1.148-1.463,1.584-2.274
	c4.654-8.674,9.704-10.283,19.522-5.339c16.588,8.354,35.019,9.567,53.443,6.422c6.71-1.146,12.704-3.696,13.111-11.916
	c0.414-8.354-5.351-11.391-12.088-12.713c-10.295-2.022-20.712-3.421-31.068-5.14c-4.268-0.707-8.587-1.273-12.757-2.384
	c-21.761-5.794-30.216-16.336-28.859-35.675c1.316-18.745,12.02-29.351,33.171-32.316
	C224.141,522.287,231.587,522.1,235.317,521.812"/>
<path fill="#952439" d="M369.526,407.408c1.228,27.743,0.204,55.394-3.37,82.941c-0.198,1.528-0.387,3.058-0.581,4.585
	c-61.245-0.001-122.489-0.001-183.877-0.001c-0.132-2.903,2.536-2.916,4.182-3.557c60.54-23.587,118.247-53.317,176.731-81.364
	C364.823,408.951,367.216,408.269,369.526,407.408"/>
<path fill="#EEEEEE" d="M567.828,568.757c0,12.069,0.305,24.148-0.067,36.207c-0.655,21.209-9.291,33.023-29.438,38.703
	c-20.627,5.815-41.666,5.666-62.289-0.136c-18.802-5.288-28.394-17.757-28.779-37.391c-0.499-25.37-0.038-50.757-0.256-76.134
	c-0.042-4.923,1.656-6.154,6.402-6.342c23.354-0.926,23.344-1.069,23.349,21.701c0.005,17.643-0.143,35.285,0.081,52.925
	c0.206,16.294,7.211,23.596,23.492,25.084c2.769,0.253,5.563,0.337,8.346,0.317c23.622-0.169,30.869-7.477,30.919-31.248
	c0.044-20.427,0.178-40.856-0.101-61.279c-0.074-5.464,1.158-7.474,7.12-7.547c21.358-0.262,21.355-0.515,21.355,20.997v24.142
	H567.828z"/>
<path fill="#EEEEEE" d="M949.244,645.604c-8.521,0-17.082-0.063-25.642,0.024c-5.266,0.054-5.676-4.305-6.588-7.587
	c-2.777-10.001-8.25-14.175-19.277-13.091c-12.567,1.233-25.36,0.631-38.028,0.132c-5.902-0.232-9.899,1.555-10.938,7.159
	c-2.213,11.935-9.413,15.211-20.527,13.481c-4.111-0.639-8.408-0.103-13.801-0.103c9.86-22.946,19.185-44.723,28.573-66.473
	c6.974-16.156,14.176-32.217,20.963-48.451c2.255-5.395,4.912-8.029,11.462-7.928c22.089,0.344,21.832,0.123,30.698,20.817
	c13.255,30.939,26.938,61.697,40.388,92.554C947.735,638.912,949.665,641.504,949.244,645.604 M881.606,555.456
	c-6.564,15.174-12.429,28.61-18.169,42.102c-1.146,2.693-1.929,5.511,2.857,5.468c10.214-0.091,20.428-0.084,30.641,0.011
	c3.572,0.032,4.431-1.635,3.175-4.582C894.228,584.645,888.252,570.875,881.606,555.456"/>
<path fill="#EEEEEE" d="M429.578,627.906c-9.082,9.938-20.397,14.885-32.664,17.244c-16.225,3.118-32.624,3.12-48.733-1.12
	c-25.063-6.597-38.082-22.051-40.398-47.969c-0.769-8.612-0.925-17.297,0.512-25.898c4.114-24.643,18.237-40.05,42.735-45.282
	c24.15-5.159,47.82-5.21,69.904,8.21c6.646,4.039,9.232,7.879,0.985,12.888c-1.292,0.785-2.383,1.991-3.376,3.163
	c-5.795,6.839-10.583,8.286-19.754,2.783c-13.796-8.28-29.829-6.804-44.798-0.853c-5.816,2.313-10.391,6.735-12.878,12.739
	c-5.829,14.072-6.21,28.418,0.02,42.27c5.746,12.779,23.702,19.565,41.91,16.772c8.288-1.271,16.478-3.121,23.058-8.827
	c3.034-2.63,5.292-3.14,8.45,0.146C419.219,619.028,424.487,623.31,429.578,627.906"/>
<path fill="#EEEEEE" d="M715.761,584.349c0.001-17.647,0.272-35.302-0.146-52.939c-0.148-6.302,1.989-7.75,7.939-7.767
	c21.031-0.059,21.03-0.274,21.03,20.419c0,23.222,0.262,46.446-0.163,69.66c-0.123,6.703,2.015,8.237,8.344,8.07
	c16.398-0.431,32.821,0.121,49.221-0.282c6.012-0.147,7.819,1.475,7.74,7.63c-0.214,16.479,0.099,16.483-16.463,16.483
	c-22.292,0-44.592-0.342-66.872,0.181c-8.083,0.189-11.286-1.416-10.862-10.38C716.331,618.433,715.761,601.378,715.761,584.349"/>
<path fill="#952439" d="M204.621,716.827c-2.852-0.82-7.435,1.817-7.773-3.859c-0.348-5.828,4.205-4.229,7.171-4.162
	c3.348,0.074,8.592-1.772,8.942,3.633C213.34,718.288,207.881,716.098,204.621,716.827"/>
<path fill="#952439" d="M204.324,693.985c3.167,0.554,8.121-1.198,7.784,3.907c-0.306,4.635-5.099,3.246-8.215,3.285
	c-2.783,0.035-6.886,1.282-6.954-3.512C196.857,691.729,201.839,695.077,204.324,693.985"/>
<path fill="#952439" d="M527.813,705.181c1.063-4.673-2.823-11.606,6.767-11.044c7.229,0.424,11.884,2.552,11.835,10.721
	c-0.05,8.261-3.417,11.359-11.937,11.7C524.009,716.977,529.55,709.063,527.813,705.181"/>
<path fill="#952439" d="M405.176,694.082c7.284-0.5,10.879,3.702,11.215,10.967c0.348,7.514-4.236,11.891-11.965,11.919
	c-7.971,0.027-12.146-4.005-12.119-11.707C392.333,697.423,396.135,693.982,405.176,694.082"/>
<path fill="#952439" d="M713.249,704.402c-4.151-0.077-7.887,0.715-8.011-5.21c-0.128-6.121,3.744-5.248,7.289-5.071
	c3.959,0.195,9.711-1.584,9.43,5.271C721.721,705.153,716.438,703.828,713.249,704.402"/>
<path fill="#952439" d="M252.724,705.411c1.76-4.456-3.054-11.728,6.711-11.265c7.477,0.355,12.556,2.421,12.399,11.033
	c-0.147,8.147-4.475,11.101-12.271,11.416C248.902,717.025,255.178,708.876,252.724,705.411"/>
<path fill="#952439" d="M891.038,697.686c2.954,4.629,4.563,8.306,5.16,12.543c-3.537,0.99-6.763,1.123-10.635-0.267
	C887.28,706.113,888.931,702.411,891.038,697.686"/>
<path fill="#952439" d="M655.654,286.812c5.403,3.516,12.771,8.268,17.636,15.292c7.763,11.208,10.998,24.702,16.691,36.991
	c1.826,3.941,0.409,5.691-4.284,4.407c-9.489-2.596-19.016-4.65-26.987-11.211c-13.579-11.175-29.907-16.976-46.333-22.426
	c-3.739-1.24-8.815-1.543-8.992-6.484c-0.144-4.013,4.818-4.006,7.533-5.734C623.863,289.407,638.666,288.126,655.654,286.812"/>
<path fill="#18263F" d="M881.606,555.456c6.646,15.419,12.621,29.188,18.504,42.998c1.256,2.947,0.397,4.614-3.175,4.582
	c-10.213-0.095-20.427-0.102-30.641-0.011c-4.786,0.043-4.003-2.774-2.857-5.468C869.178,584.066,875.042,570.63,881.606,555.456"/>
</svg>
