<?xml version="1.0" encoding="utf-8"?>
<!-- Generator: Adobe Illustrator 16.0.0, SVG Export Plug-In . SVG Version: 6.00 Build 0)  -->
<!DOCTYPE svg PUBLIC "-//W3C//DTD SVG 1.1//EN" "http://www.w3.org/Graphics/SVG/1.1/DTD/svg11.dtd">
<svg version="1.1" id="Layer_1" xmlns="http://www.w3.org/2000/svg" xmlns:xlink="http://www.w3.org/1999/xlink" x="0px" y="0px"
	 width="1000px" height="1000px" viewBox="0 0 1000 1000" enable-background="new 0 0 1000 1000" xml:space="preserve">
<path fill="#D0AE56" d="M575.686,574.364c-3.086,3.323-6.467,6.409-10.088,9.258c-2.967,2.492-6.112,4.807-9.317,6.885
	c-1.959,1.305-3.916,2.491-5.993,3.501c-2.195,1.305-4.568,2.492-6.765,3.382c-47.476,22.195-105.514,6.231-134.532-38.929
	c-31.809-49.315-17.566-115.483,31.748-147.292c3.383-2.196,6.884-4.154,10.385-5.697c2.374-1.306,4.688-2.374,7.002-3.264
	c1.188-0.534,2.374-1.009,3.502-1.424c11.988-4.688,24.924-7.24,38.454-7.24c24.748,0,47.595,8.427,65.753,22.669l-25.279,25.459
	c-11.274-7.893-25.043-12.581-39.582-12.7h-0.892c-9.375,0-18.158,1.78-26.348,5.163c-1.068,0.415-2.077,0.771-3.145,1.306
	c-3.619,1.424-7.121,3.382-10.623,5.578c-32.934,21.126-42.311,65.278-21.127,98.095c19.049,29.612,56.438,40.532,87.71,26.883
	c0.892-0.237,1.781-0.652,2.731-1.187c1.423-0.653,2.849-1.306,4.153-2.077c1.306-0.653,2.433-1.425,3.619-2.196
	c3.442-2.195,6.588-4.629,9.496-7.299L575.686,574.364z"/>
<path fill="#D0AE56" d="M500.064,482.028v36.077h31.407h50.609h58.917c-1.556,12.587-4.8,24.655-9.474,35.947
	c-3.894,9.343-8.696,18.167-14.406,26.342c-25.564,37.375-68.517,61.901-117.054,61.901c-78.123,0-142.229-63.849-142.229-142.23
	c0-78.251,64.106-142.229,142.229-142.229c34.521,0,66.314,12.587,90.97,33.222l25.179-25.175
	c-31.018-27.123-71.895-43.605-116.148-43.605c-97.849,0-177.787,79.94-177.787,177.787c0,97.978,79.938,177.658,177.787,177.658
	c60.346,0,113.811-30.236,145.866-76.437c5.709-8.174,10.769-16.871,14.923-25.954c10.898-22.84,16.867-48.274,16.867-75.268v-0.258
	v-17.779H500.064z"/>
<path fill="#D0AE56" d="M500,988.538c-269.378,0-488.538-219.16-488.538-488.539c0-269.377,219.16-488.537,488.538-488.537
	S988.538,230.623,988.538,500C988.538,769.378,769.378,988.538,500,988.538 M500,24.313C237.7,24.313,24.313,237.701,24.313,500
	C24.313,762.3,237.7,975.688,500,975.688S975.688,762.3,975.688,500C975.688,237.701,762.3,24.313,500,24.313"/>
<path fill="#D0AE56" d="M500,787.045c-158.279,0-287.045-128.766-287.045-287.045c0-158.28,128.766-287.046,287.045-287.046
	c158.279,0,287.045,128.766,287.045,287.046C787.045,658.279,658.279,787.045,500,787.045 M500,225.805
	c-151.193,0-274.195,123.002-274.195,274.195c0,151.193,123.002,274.195,274.195,274.195c151.193,0,274.195-123.002,274.195-274.195
	C774.195,348.807,651.193,225.805,500,225.805"/>
<path fill="#D0AE56" d="M272.457,886.406c-3.03-1.783-6.932-0.773-8.715,2.257c-1.784,3.029-0.773,6.932,2.257,8.715
	c3.029,1.784,6.932,0.772,8.715-2.257C276.497,892.091,275.487,888.188,272.457,886.406"/>
<path fill="#D0AE56" d="M233.353,860.544c-2.827-2.09-6.813-1.493-8.903,1.334c-2.091,2.828-1.493,6.814,1.334,8.904
	c2.827,2.09,6.813,1.492,8.903-1.335S236.179,862.634,233.353,860.544"/>
<path fill="#D0AE56" d="M197.161,830.74c-2.593-2.374-6.62-2.195-8.993,0.397c-2.374,2.594-2.196,6.621,0.397,8.994
	c2.593,2.374,6.62,2.195,8.993-0.397C199.932,837.141,199.755,833.114,197.161,830.74"/>
<path fill="#D0AE56" d="M164.28,797.32c-2.331-2.632-6.354-2.875-8.986-0.544c-2.631,2.332-2.875,6.355-0.543,8.986
	c2.331,2.632,6.354,2.875,8.986,0.544C166.368,803.976,166.612,799.953,164.28,797.32"/>
<path fill="#D0AE56" d="M135.069,760.65c-2.044-2.861-6.02-3.523-8.881-1.479c-2.86,2.044-3.522,6.021-1.478,8.88
	c2.044,2.861,6.019,3.523,8.88,1.479C136.451,767.487,137.113,763.511,135.069,760.65"/>
<path fill="#D0AE56" d="M109.847,721.13c-1.734-3.059-5.619-4.132-8.678-2.397c-3.057,1.732-4.132,5.617-2.397,8.677
	c1.733,3.058,5.618,4.132,8.677,2.397C110.507,728.073,111.58,724.188,109.847,721.13"/>
<path fill="#D0AE56" d="M88.889,679.192c-1.405-3.224-5.156-4.696-8.38-3.291c-3.223,1.404-4.696,5.155-3.291,8.379
	c1.405,3.223,5.157,4.696,8.38,3.291S90.294,682.415,88.889,679.192"/>
<path fill="#D0AE56" d="M72.425,635.295c-1.062-3.352-4.639-5.209-7.99-4.148c-3.353,1.062-5.209,4.639-4.149,7.99
	c1.061,3.353,4.638,5.209,7.991,4.148C71.628,642.224,73.486,638.646,72.425,635.295"/>
<path fill="#D0AE56" d="M60.634,589.919c-0.705-3.444-4.069-5.665-7.514-4.96c-3.443,0.705-5.664,4.068-4.959,7.513
	c0.705,3.445,4.069,5.665,7.513,4.96S61.339,593.362,60.634,589.919"/>
<path fill="#D0AE56" d="M53.646,543.56c-0.341-3.499-3.455-6.06-6.954-5.717c-3.499,0.341-6.059,3.454-5.717,6.953
	c0.341,3.499,3.455,6.06,6.954,5.718S53.987,547.059,53.646,543.56"/>
<path fill="#D0AE56" d="M51.537,496.724c0.025-3.516-2.804-6.386-6.319-6.412c-3.516-0.026-6.387,2.803-6.412,6.319
	c-0.026,3.516,2.803,6.386,6.319,6.412C48.641,503.068,51.511,500.24,51.537,496.724"/>
<path fill="#D0AE56" d="M54.33,449.924c0.393-3.494-2.121-6.644-5.615-7.037c-3.493-0.393-6.645,2.121-7.037,5.615
	c-0.393,3.494,2.122,6.644,5.615,7.037C50.787,455.932,53.937,453.418,54.33,449.924"/>
<path fill="#D0AE56" d="M61.995,403.671c0.755-3.434-1.416-6.83-4.85-7.585c-3.433-0.755-6.83,1.416-7.585,4.85
	c-0.755,3.433,1.416,6.829,4.85,7.585C57.844,409.276,61.239,407.105,61.995,403.671"/>
<path fill="#D0AE56" d="M74.447,358.472c1.109-3.336-0.695-6.94-4.031-8.05c-3.336-1.109-6.94,0.695-8.05,4.031
	c-1.109,3.336,0.695,6.94,4.031,8.05C69.733,363.613,73.338,361.808,74.447,358.472"/>
<path fill="#D0AE56" d="M91.552,314.821c1.451-3.202,0.033-6.975-3.169-8.427s-6.975-0.033-8.427,3.169
	c-1.452,3.202-0.033,6.974,3.169,8.426C86.326,319.44,90.1,318.022,91.552,314.821"/>
<path fill="#D0AE56" d="M113.12,273.193c1.778-3.033,0.762-6.933-2.271-8.711c-3.033-1.779-6.933-0.762-8.711,2.271
	c-1.779,3.033-0.762,6.933,2.27,8.711C107.441,277.244,111.342,276.227,113.12,273.193"/>
<path fill="#D0AE56" d="M138.917,234.046c2.086-2.831,1.481-6.816-1.349-8.901c-2.831-2.085-6.815-1.481-8.901,1.349
	c-2.085,2.831-1.481,6.816,1.35,8.901C132.847,237.481,136.832,236.877,138.917,234.046"/>
<path fill="#D0AE56" d="M168.662,197.806c2.369-2.597,2.185-6.624-0.413-8.993c-2.597-2.37-6.623-2.185-8.993,0.412
	c-2.369,2.598-2.185,6.624,0.412,8.993C162.266,200.588,166.292,200.403,168.662,197.806"/>
<path fill="#D0AE56" d="M202.027,164.871c2.628-2.336,2.864-6.359,0.529-8.987c-2.336-2.628-6.359-2.865-8.987-0.529
	s-2.865,6.359-0.529,8.987C195.376,166.97,199.399,167.207,202.027,164.871"/>
<path fill="#D0AE56" d="M238.649,135.599c2.857-2.049,3.514-6.025,1.465-8.883c-2.049-2.857-6.026-3.513-8.883-1.464
	c-2.857,2.048-3.513,6.025-1.465,8.882C231.815,136.992,235.792,137.647,238.649,135.599"/>
<path fill="#D0AE56" d="M278.129,110.312c3.056-1.739,4.123-5.625,2.384-8.681c-1.739-3.056-5.626-4.123-8.682-2.384
	c-3.056,1.739-4.123,5.626-2.384,8.681C271.187,110.983,275.073,112.051,278.129,110.312"/>
<path fill="#D0AE56" d="M320.032,89.285c3.22-1.41,4.687-5.164,3.277-8.385c-1.41-3.22-5.164-4.688-8.384-3.277
	c-3.221,1.41-4.689,5.164-3.278,8.385C313.057,89.228,316.811,90.695,320.032,89.285"/>
<path fill="#D0AE56" d="M363.902,72.748c3.35-1.066,5.201-4.646,4.135-7.997c-1.067-3.35-4.647-5.201-7.997-4.135
	c-3.35,1.067-5.201,4.647-4.135,7.997S360.551,73.814,363.902,72.748"/>
<path fill="#D0AE56" d="M409.259,60.883c3.443-0.711,5.658-4.078,4.947-7.521c-0.71-3.444-4.078-5.659-7.52-4.948
	c-3.444,0.711-5.659,4.078-4.948,7.521C402.448,59.379,405.816,61.594,409.259,60.883"/>
<path fill="#D0AE56" d="M455.606,53.819c3.499-0.347,6.054-3.465,5.706-6.963c-0.348-3.499-3.465-6.054-6.964-5.706
	c-3.498,0.347-6.053,3.465-5.705,6.963C448.99,51.612,452.108,54.166,455.606,53.819"/>
<path fill="#D0AE56" d="M502.438,51.633c3.516,0.02,6.382-2.814,6.402-6.33c0.02-3.515-2.814-6.382-6.33-6.401
	c-3.515-0.02-6.382,2.814-6.401,6.329C496.088,48.747,498.922,51.613,502.438,51.633"/>
<path fill="#D0AE56" d="M549.243,54.35c3.494,0.387,6.641-2.132,7.027-5.627c0.388-3.494-2.131-6.64-5.626-7.027
	c-3.494-0.387-6.641,2.132-7.028,5.626C543.229,50.816,545.749,53.963,549.243,54.35"/>
<path fill="#D0AE56" d="M595.508,61.938c3.436,0.75,6.827-1.427,7.577-4.862s-1.427-6.827-4.862-7.577
	c-3.435-0.749-6.827,1.427-7.576,4.862C589.896,57.796,592.072,61.188,595.508,61.938"/>
<path fill="#D0AE56" d="M640.728,74.316c3.338,1.104,6.938-0.706,8.043-4.044c1.104-3.338-0.706-6.939-4.044-8.043
	s-6.938,0.706-8.043,4.044S637.39,73.212,640.728,74.316"/>
<path fill="#D0AE56" d="M684.407,91.349c3.204,1.447,6.975,0.022,8.422-3.182c1.446-3.204,0.021-6.975-3.183-8.422
	c-3.204-1.447-6.975-0.022-8.421,3.183C679.778,86.132,681.203,89.902,684.407,91.349"/>
<path fill="#D0AE56" d="M726.07,112.849c3.035,1.773,6.934,0.75,8.707-2.285c1.773-3.036,0.751-6.935-2.285-8.708
	c-3.036-1.774-6.935-0.75-8.708,2.285C722.01,107.177,723.034,111.076,726.07,112.849"/>
<path fill="#D0AE56" d="M765.26,138.582c2.834,2.081,6.818,1.47,8.898-1.364s1.471-6.818-1.363-8.898
	c-2.834-2.081-6.818-1.471-8.899,1.363C761.815,132.518,762.426,136.501,765.26,138.582"/>
<path fill="#D0AE56" d="M801.548,168.267c2.603,2.365,6.628,2.174,8.993-0.427s2.174-6.627-0.428-8.993
	c-2.601-2.365-6.627-2.174-8.992,0.428C798.756,161.876,798.947,165.902,801.548,168.267"/>
<path fill="#D0AE56" d="M834.539,201.579c2.34,2.624,6.363,2.854,8.987,0.514c2.624-2.34,2.854-6.364,0.515-8.988
	s-6.364-2.854-8.988-0.514C832.429,194.931,832.198,198.955,834.539,201.579"/>
<path fill="#D0AE56" d="M863.87,238.152c2.054,2.854,6.031,3.503,8.886,1.45c2.854-2.053,3.503-6.031,1.449-8.885
	c-2.053-2.854-6.031-3.503-8.885-1.45C862.466,231.321,861.817,235.299,863.87,238.152"/>
<path fill="#D0AE56" d="M889.223,277.59c1.744,3.053,5.632,4.114,8.686,2.37c3.052-1.744,4.113-5.633,2.369-8.685
	c-1.744-3.053-5.632-4.114-8.685-2.37S887.479,274.537,889.223,277.59"/>
<path fill="#D0AE56" d="M910.318,319.458c1.415,3.218,5.172,4.679,8.39,3.264c3.219-1.416,4.68-5.172,3.265-8.39
	c-1.416-3.219-5.173-4.68-8.391-3.264C910.364,312.484,908.902,316.241,910.318,319.458"/>
<path fill="#D0AE56" d="M926.927,363.302c1.071,3.348,4.655,5.194,8.004,4.122c3.349-1.072,5.193-4.655,4.121-8.004
	c-1.071-3.348-4.654-5.193-8.003-4.122C927.7,356.37,925.854,359.954,926.927,363.302"/>
<path fill="#D0AE56" d="M938.866,408.639c0.717,3.442,4.088,5.652,7.529,4.935c3.442-0.716,5.651-4.087,4.936-7.529
	c-0.717-3.442-4.088-5.652-7.529-4.935C940.359,401.826,938.149,405.197,938.866,408.639"/>
<path fill="#D0AE56" d="M946.007,454.975c0.353,3.498,3.475,6.047,6.973,5.694s6.047-3.475,5.694-6.973
	c-0.354-3.498-3.475-6.047-6.973-5.694S945.652,451.477,946.007,454.975"/>
<path fill="#D0AE56" d="M948.27,501.804c-0.015,3.516,2.824,6.377,6.34,6.391c3.515,0.016,6.377-2.824,6.391-6.34
	c0.015-3.516-2.823-6.377-6.34-6.391C951.145,495.45,948.283,498.288,948.27,501.804"/>
<path fill="#D0AE56" d="M945.63,548.612c-0.381,3.495,2.143,6.637,5.638,7.019s6.638-2.144,7.019-5.639
	c0.382-3.495-2.143-6.637-5.638-7.018C949.152,542.594,946.011,545.117,945.63,548.612"/>
<path fill="#D0AE56" d="M938.117,594.89c-0.744,3.436,1.438,6.825,4.874,7.569c3.437,0.743,6.825-1.439,7.569-4.875
	c0.744-3.437-1.438-6.825-4.875-7.569C942.25,589.271,938.861,591.453,938.117,594.89"/>
<path fill="#D0AE56" d="M925.813,640.129c-1.099,3.341,0.718,6.938,4.058,8.036c3.338,1.1,6.938-0.717,8.036-4.057
	s-0.718-6.938-4.058-8.037C930.51,634.974,926.912,636.789,925.813,640.129"/>
<path fill="#D0AE56" d="M908.853,683.837c-1.441,3.207-0.011,6.976,3.196,8.416c3.207,1.442,6.975,0.012,8.416-3.195
	s0.011-6.976-3.196-8.416C914.063,679.199,910.293,680.63,908.853,683.837"/>
<path fill="#D0AE56" d="M887.421,725.535c-1.769,3.039-0.739,6.936,2.3,8.704c3.039,1.768,6.936,0.738,8.704-2.301
	c1.769-3.038,0.738-6.935-2.3-8.703C893.086,721.467,889.189,722.496,887.421,725.535"/>
<path fill="#D0AE56" d="M861.752,764.767c-2.076,2.837-1.459,6.82,1.379,8.896c2.837,2.077,6.82,1.459,8.896-1.378
	s1.459-6.82-1.379-8.896C867.813,761.312,863.828,761.93,861.752,764.767"/>
<path fill="#D0AE56" d="M832.127,801.104c-2.36,2.605-2.163,6.632,0.442,8.992c2.604,2.361,6.631,2.163,8.991-0.441
	c2.361-2.605,2.163-6.631-0.441-8.992C838.514,798.301,834.488,798.499,832.127,801.104"/>
<path fill="#D0AE56" d="M798.87,834.149c-2.62,2.344-2.844,6.369-0.5,8.989c2.345,2.619,6.369,2.844,8.989,0.498
	c2.62-2.344,2.844-6.368,0.499-8.988C805.515,832.028,801.49,831.806,798.87,834.149"/>
<path fill="#D0AE56" d="M762.344,863.541c-2.852,2.058-3.493,6.037-1.437,8.887c2.06,2.852,6.038,3.494,8.889,1.437
	c2.851-2.059,3.493-6.037,1.436-8.889C769.174,862.126,765.194,861.482,762.344,863.541"/>
<path fill="#D0AE56" d="M722.948,888.958c-3.05,1.749-4.104,5.639-2.355,8.688c1.749,3.051,5.64,4.105,8.689,2.356
	s4.104-5.639,2.354-8.689C729.888,888.264,725.998,887.209,722.948,888.958"/>
<path fill="#D0AE56" d="M681.114,910.122c-3.216,1.421-4.671,5.181-3.25,8.396c1.421,3.215,5.18,4.67,8.396,3.25
	c3.215-1.421,4.67-5.181,3.25-8.396C688.089,910.156,684.33,908.701,681.114,910.122"/>
<path fill="#D0AE56" d="M637.299,926.803c-3.347,1.077-5.188,4.664-4.108,8.01c1.077,3.348,4.663,5.188,8.01,4.109
	c3.347-1.077,5.187-4.664,4.109-8.01C644.231,927.564,640.646,925.726,637.299,926.803"/>
<path fill="#D0AE56" d="M591.981,938.816c-3.441,0.723-5.646,4.098-4.923,7.538c0.722,3.441,4.097,5.645,7.537,4.922
	c3.441-0.722,5.645-4.096,4.923-7.537C598.796,940.299,595.421,938.095,591.981,938.816"/>
<path fill="#D0AE56" d="M545.656,946.033c-3.497,0.359-6.041,3.485-5.684,6.982c0.36,3.496,3.486,6.042,6.983,5.683
	s6.042-3.485,5.683-6.982C552.28,948.219,549.154,945.674,545.656,946.033"/>
<path fill="#D0AE56" d="M405.729,938.373c-3.438-0.737-6.822,1.45-7.561,4.888c-0.738,3.437,1.45,6.821,4.887,7.561
	c3.438,0.738,6.822-1.45,7.561-4.887C411.354,942.497,409.167,939.112,405.729,938.373"/>
<path fill="#D0AE56" d="M360.47,926.144c-3.342-1.093-6.937,0.729-8.03,4.071c-1.093,3.341,0.729,6.937,4.071,8.029
	c3.341,1.094,6.937-0.729,8.029-4.07C365.634,930.832,363.811,927.237,360.47,926.144"/>
<path fill="#D0AE56" d="M316.734,909.256c-3.21-1.437-6.976,0.001-8.411,3.21c-1.437,3.209,0.001,6.975,3.21,8.41
	c3.209,1.437,6.974-0.001,8.411-3.21C321.38,914.457,319.943,910.691,316.734,909.256"/>
<path fill="#D0AE56" d="M137.509,374.736c-3.648-4.866-5.779-10.271-6.408-16.229c-0.629-5.96,0.335-11.904,2.923-17.847
	c3.012-6.956,7.428-12.263,13.266-15.953c5.829-3.69,12.353-5.193,19.553-4.556l-6.229,14.353c-3.584,0.147-6.686,1.175-9.291,3.118
	c-2.604,1.944-4.637,4.605-6.107,8.001c-1.575,3.625-2.122,7.218-1.657,10.761c0.466,3.56,1.902,6.792,4.319,9.715
	c2.401,2.923,5.691,5.274,9.846,7.07c4.098,1.78,8.058,2.564,11.863,2.335c3.796-0.212,7.159-1.371,10.074-3.461
	c2.923-2.09,5.161-4.948,6.736-8.573c1.469-3.379,2.008-6.694,1.6-9.944c-0.384-3.233-1.756-6.221-4.115-8.931l6.222-14.353
	c5.453,4.833,8.833,10.63,10.115,17.357c1.281,6.728,0.399,13.602-2.638,20.623c-2.588,5.943-6.261,10.712-11.046,14.32
	c-4.767,3.625-10.164,5.764-16.172,6.433c-6.018,0.686-12.083-0.31-18.207-2.955C146.032,383.357,141.151,379.603,137.509,374.736"
	/>
<polygon fill="#D0AE56" points="223.952,299.43 237.202,281.436 245.889,287.837 224.556,316.771 169.962,276.538 178.036,265.597 
	"/>
<path fill="#D0AE56" d="M226.654,210.097l27.709,31.53c3.046,3.446,6.262,5.291,9.667,5.535c3.396,0.246,6.735-1.061,9.984-3.935
	c3.315-2.906,5.062-6.057,5.258-9.47c0.204-3.396-1.224-6.825-4.254-10.287l-27.709-31.514l10.28-9.062l27.651,31.465
	c3.805,4.327,6.083,8.801,6.842,13.438c0.767,4.637,0.237,9.095-1.575,13.357c-1.813,4.278-4.646,8.099-8.484,11.479
	c-3.788,3.33-7.902,5.6-12.319,6.808c-4.417,1.209-8.825,1.111-13.259-0.31c-4.441-1.404-8.548-4.262-12.36-8.605l-27.653-31.448
	L226.654,210.097z"/>
<path fill="#D0AE56" d="M354.229,170.566c3.632,1.616,6.376,4.213,8.237,7.772c1.682,3.201,2.376,6.45,2.073,9.716
	c-0.309,3.265-1.592,6.368-3.853,9.307c-2.261,2.939-5.429,5.47-9.503,7.609l-25.913,13.552l-31.449-60.072l24.787-12.981
	c4.074-2.139,7.935-3.314,11.569-3.543c3.657-0.229,6.857,0.441,9.6,1.992c2.751,1.567,4.916,3.837,6.483,6.809
	c1.829,3.511,2.425,6.923,1.796,10.254c-0.637,3.331-2.245,6.287-4.833,8.883C346.938,168.721,350.611,168.966,354.229,170.566
	 M318.845,176.935l11.014-5.78c2.881-1.502,4.743-3.299,5.625-5.405c0.865-2.09,0.668-4.36-0.588-6.76
	c-1.266-2.417-3.022-3.87-5.258-4.376c-2.237-0.506-4.793-0.016-7.666,1.486l-11.014,5.764L318.845,176.935z M350.089,190.405
	c0.906-2.237,0.71-4.605-0.612-7.136c-1.356-2.58-3.274-4.163-5.764-4.718c-2.482-0.572-5.201-0.082-8.115,1.453l-11.888,6.221
	l8.475,16.181l12.14-6.352C347.248,194.521,349.166,192.643,350.089,190.405"/>
<path fill="#D0AE56" d="M467.686,106.983c5.691,2.123,10.311,5.568,13.838,10.336c3.536,4.768,5.699,10.532,6.499,17.292
	c0.8,6.743,0.033,12.817-2.295,18.222c-2.326,5.389-6.016,9.797-11.062,13.194c-5.037,3.396-11.103,5.519-18.173,6.351
	l-23.538,2.792l-7.976-67.338l23.538-2.792C455.603,104.191,461.987,104.844,467.686,106.983 M470.372,153.225
	c3.396-4.311,4.687-9.977,3.854-16.998c-0.833-7.005-3.405-12.262-7.749-15.757c-4.318-3.494-10.025-4.833-17.095-3.984
	l-9.552,1.127l5.266,44.478l9.56-1.143C461.726,160.116,466.968,157.536,470.372,153.225"/>
<polygon fill="#D0AE56" points="536.412,114.445 534.575,131.361 557.271,133.827 556.104,144.538 533.408,142.073 531.465,159.952 
	557.059,162.729 555.859,173.734 516.736,169.488 524.084,101.97 563.207,106.232 562.007,117.237 "/>
<path fill="#D0AE56" d="M683.752,169.375c-0.123-3.25-1.054-6.14-2.825-8.687s-4.278-4.637-7.527-6.254
	c-3.592-1.796-7.176-2.58-10.769-2.351c-3.592,0.245-6.923,1.47-10.001,3.707c-3.062,2.22-5.584,5.306-7.552,9.241
	c-2.033,4.066-2.996,8.001-2.915,11.806c0.099,3.805,1.151,7.234,3.185,10.271c2.024,3.053,4.924,5.518,8.694,7.396
	c4.629,2.303,9.038,2.972,13.227,1.992c4.188-0.996,7.837-3.445,10.973-7.396l-20.859-10.418l4.645-9.307l32.861,16.41
	l-5.307,10.613c-2.923,3.821-6.613,6.875-11.07,9.128c-4.466,2.253-9.34,3.429-14.622,3.511c-5.291,0.065-10.54-1.192-15.757-3.805
	c-5.854-2.923-10.476-6.874-13.88-11.887c-3.404-4.98-5.282-10.499-5.642-16.541c-0.343-6.041,0.972-12.05,3.952-18.01
	c2.979-5.976,6.996-10.646,12.05-14.026c5.054-3.364,10.598-5.193,16.647-5.47c6.033-0.278,11.952,1.029,17.749,3.919
	c6.833,3.412,11.936,8.05,15.315,13.895c3.38,5.862,4.515,12.263,3.421,19.252L683.752,169.375z"/>
<path fill="#D0AE56" d="M710.856,240.093c-1.951-5.764-2.302-11.642-1.069-17.651c1.233-6.009,4.082-11.479,8.548-16.443
	c4.426-4.882,9.567-8.262,15.414-10.091c5.838-1.845,11.732-2.073,17.668-0.735c5.942,1.356,11.267,4.148,15.978,8.41
	c4.758,4.294,8.099,9.323,10.025,15.071c1.918,5.747,2.253,11.609,0.996,17.602c-1.258,5.976-4.1,11.413-8.523,16.312
	c-4.466,4.947-9.619,8.36-15.438,10.205c-5.821,1.861-11.708,2.123-17.644,0.767c-5.935-1.355-11.267-4.147-15.969-8.409
	C716.123,250.886,712.8,245.873,710.856,240.093 M738.836,251.294c3.551,0.719,7.119,0.392,10.711-0.996
	c3.601-1.371,6.924-3.739,9.961-7.103c3.037-3.363,5.054-6.907,6.033-10.597s0.922-7.25-0.163-10.679
	c-1.104-3.429-3.151-6.515-6.181-9.258c-3.037-2.727-6.327-4.474-9.87-5.241c-3.544-0.751-7.111-0.458-10.68,0.898
	c-3.584,1.339-6.891,3.706-9.927,7.07c-3.037,3.364-5.063,6.907-6.059,10.63c-1.013,3.706-0.955,7.315,0.131,10.793
	c1.094,3.478,3.15,6.58,6.181,9.307C732.011,248.861,735.292,250.576,738.836,251.294"/>
<polygon fill="#D0AE56" points="778.399,302.777 791.226,321.081 782.384,327.271 761.761,297.829 817.318,258.919 825.115,270.071 
	"/>
<polygon fill="#D0AE56" points="873.104,358.8 863.078,363.274 851.551,337.459 835.671,344.545 844.505,364.335 834.659,368.728 
	825.825,348.938 799.65,360.629 794.107,348.219 856.041,320.575 "/>
<path fill="#D0AE56" d="M210.645,668.321c0.049,6.091-1.527,11.626-4.719,16.622c-3.184,5.013-7.796,9.095-13.814,12.247
	c-6.025,3.167-11.969,4.621-17.839,4.376c-5.878-0.245-11.299-2.123-16.279-5.617c-4.981-3.495-9.128-8.393-12.434-14.712
	l-11.013-20.981l60.047-31.515l11.013,20.998C208.922,656.042,210.595,662.231,210.645,668.321 M168.402,687.36
	c5.25,1.633,10.997,0.816,17.251-2.466s10.238-7.576,11.961-12.866c1.723-5.291,0.923-11.087-2.384-17.407l-4.466-8.507
	l-39.662,20.803l4.466,8.523C158.882,681.743,163.161,685.728,168.402,687.36"/>
<polygon fill="#D0AE56" points="236.827,717.372 223.878,728.394 238.672,745.783 230.459,752.772 215.665,735.382 201.973,747.024 
	218.653,766.635 210.22,773.819 184.723,743.84 236.451,699.835 261.948,729.814 253.514,736.982 "/>
<polygon fill="#D0AE56" points="255.393,800.565 272.758,814.641 265.964,823.018 238.036,800.386 280.726,747.694 291.299,756.25 
	"/>
<path fill="#D0AE56" d="M373.234,805.938l-14.581,39.352c-1.601,4.311-1.698,8.018-0.294,11.137c1.404,3.102,4.139,5.42,8.213,6.923
	c4.123,1.534,7.74,1.566,10.826,0.13c3.094-1.453,5.438-4.327,7.037-8.637l14.581-39.353l12.843,4.752l-14.549,39.27
	c-2,5.404-4.866,9.535-8.589,12.409c-3.715,2.874-7.886,4.523-12.499,4.948c-4.621,0.441-9.323-0.245-14.124-2.009
	c-4.735-1.763-8.686-4.294-11.846-7.609c-3.16-3.313-5.168-7.25-6.034-11.821c-0.865-4.572-0.294-9.553,1.706-14.956l14.549-39.271
	L373.234,805.938z"/>
<path fill="#D0AE56" d="M463.653,897.441l-11.708-28.02l-6.368-0.768l-3.142,26.24l-13.512-1.617l8.074-67.338l25.276,3.021
	c5.209,0.637,9.536,2.072,12.981,4.358c3.445,2.271,5.894,5.079,7.356,8.41c1.461,3.347,1.959,6.939,1.495,10.793
	c-0.532,4.441-2.294,8.294-5.299,11.544c-2.996,3.266-7.119,5.274-12.361,6.009l12.834,29.229L463.653,897.441z M446.794,858.515
	l11.283,1.354c3.665,0.441,6.507-0.113,8.515-1.664c2.016-1.552,3.209-3.903,3.593-7.055c0.367-3.086-0.245-5.584-1.846-7.511
	c-1.592-1.927-4.229-3.104-7.895-3.543l-11.283-1.356L446.794,858.515z"/>
<path fill="#D0AE56" d="M524.86,830.675l4.67,41.719c0.514,4.572,2.09,7.919,4.743,10.075c2.653,2.139,6.131,2.972,10.45,2.498
	c4.376-0.49,7.617-2.074,9.731-4.751c2.106-2.695,2.915-6.32,2.4-10.892l-4.67-41.702l13.609-1.52l4.662,41.605
	c0.646,5.73-0.057,10.711-2.09,14.957c-2.033,4.229-5.013,7.576-8.948,10.042c-3.927,2.465-8.434,3.968-13.52,4.539
	c-5.021,0.57-9.683,0.082-13.994-1.471c-4.311-1.534-7.878-4.146-10.703-7.837c-2.824-3.69-4.563-8.408-5.2-14.124l-4.662-41.621
	L524.86,830.675z"/>
<path fill="#D0AE56" d="M641.894,822.788c-2.465-2.106-5.233-3.38-8.311-3.804c-3.07-0.425-6.303,0.016-9.691,1.306
	c-3.755,1.438-6.76,3.543-9.021,6.353c-2.254,2.792-3.602,6.09-4.041,9.846c-0.434,3.771,0.13,7.723,1.697,11.838
	c1.616,4.229,3.854,7.609,6.719,10.123c2.866,2.515,6.107,4.05,9.716,4.621c3.608,0.555,7.38,0.098,11.315-1.404
	c4.842-1.845,8.319-4.637,10.426-8.393c2.106-3.755,2.768-8.1,1.983-13.079l-21.79,8.311l-3.698-9.715l34.314-13.079l4.221,11.071
	c0.833,4.751,0.58,9.519-0.775,14.336s-3.797,9.193-7.315,13.128c-3.527,3.951-8.009,6.956-13.454,9.03
	c-6.115,2.335-12.165,3.053-18.148,2.188c-5.978-0.882-11.316-3.232-15.995-7.054c-4.686-3.838-8.213-8.867-10.59-15.104
	c-2.375-6.236-3.093-12.36-2.162-18.353c0.938-6.009,3.348-11.332,7.233-15.969c3.878-4.621,8.85-8.1,14.899-10.402
	c7.144-2.726,14.01-3.347,20.606-1.877c6.589,1.469,12.083,4.98,16.476,10.515L641.894,822.788z"/>
<path fill="#D0AE56" d="M681.058,778.522l24.248,34.257c2.653,3.755,5.666,5.927,9.021,6.53c3.363,0.604,6.809-0.358,10.352-2.856
	c3.601-2.547,5.675-5.503,6.222-8.867c0.555-3.379-0.498-6.938-3.151-10.695l-24.248-34.257l11.177-7.902l24.199,34.176
	c3.33,4.702,5.127,9.405,5.388,14.091c0.27,4.703-0.728,9.063-2.972,13.112c-2.253,4.065-5.47,7.56-9.642,10.516
	c-4.123,2.922-8.442,4.751-12.965,5.486c-4.515,0.733-8.9,0.179-13.161-1.698c-4.253-1.862-8.05-5.145-11.381-9.846l-24.191-34.192
	L681.058,778.522z"/>
<path fill="#D0AE56" d="M802.369,742.012l-17.65,20.443l6.857,11.838l-9.34,10.809l-35.457-62.848l10.353-11.985l67.338,25.931
	l-9.396,10.874L802.369,742.012z M791.724,737.701l-27.889-11.12l15.055,25.979L791.724,737.701z"/>
<polygon fill="#D0AE56" points="809.398,625.23 838.169,665.872 859.151,676.697 852.914,688.78 831.932,677.955 782.09,678.15 
	789.127,664.501 823.352,665.773 802.451,638.686 "/>
<path fill="#D0AE56" d="M156.984,499.983c0,12.126-9.83,21.957-21.957,21.957c-12.126,0-21.957-9.831-21.957-21.957
	s9.831-21.957,21.957-21.957C147.154,478.026,156.984,487.857,156.984,499.983"/>
<path fill="#D0AE56" d="M888.066,499.983c0,12.126-9.83,21.957-21.957,21.957c-12.126,0-21.956-9.831-21.956-21.957
	s9.83-21.957,21.956-21.957C878.236,478.026,888.066,487.857,888.066,499.983"/>
<rect fill="none" width="1000" height="1000"/>
</svg>
