<?xml version="1.0" encoding="utf-8"?>
<!-- Generator: Adobe Illustrator 16.0.0, SVG Export Plug-In . SVG Version: 6.00 Build 0)  -->
<!DOCTYPE svg PUBLIC "-//W3C//DTD SVG 1.1//EN" "http://www.w3.org/Graphics/SVG/1.1/DTD/svg11.dtd">
<svg version="1.1" id="Layer_1" xmlns="http://www.w3.org/2000/svg" xmlns:xlink="http://www.w3.org/1999/xlink" x="0px" y="0px"
	 width="1000px" height="1000px" viewBox="0 0 1000 1000" enable-background="new 0 0 1000 1000" xml:space="preserve">
<path fill="#C8AA55" d="M496.79,918.992c-239.059,0-433.547-194.488-433.547-433.547c0-88.045,26.249-172.812,75.898-245.13
	c1.664-2.432,4.982-3.026,7.394-1.376c2.423,1.663,3.046,4.976,1.382,7.399c-48.433,70.537-74.03,153.222-74.03,239.107
	c0,233.192,189.711,422.903,422.903,422.903c233.19,0,422.903-189.711,422.903-422.903c0-85.871-25.588-168.536-74.001-239.049
	c-1.664-2.423-1.041-5.735,1.382-7.399c2.402-1.644,5.73-1.051,7.394,1.377c49.629,72.293,75.869,157.04,75.869,245.071
	C930.337,724.504,735.849,918.992,496.79,918.992"/>
<path fill="#C8AA55" d="M496.79,771.122c-157.518,0-285.672-128.154-285.672-285.677c0-60.341,18.583-118.026,53.735-166.813
	c1.732-2.394,5.05-2.929,7.433-1.207c2.384,1.718,2.919,5.04,1.207,7.424c-33.849,46.968-51.731,102.503-51.731,160.596
	c0,151.656,123.377,275.033,275.028,275.033c151.65,0,275.027-123.377,275.027-275.033c0-58.059-17.872-113.57-51.682-160.518
	c-1.713-2.384-1.178-5.707,1.206-7.424c2.384-1.717,5.711-1.187,7.434,1.207c35.123,48.773,53.687,106.429,53.687,166.735
	C782.462,642.968,654.308,771.122,496.79,771.122"/>
<path fill="#C8AA55" d="M711.385,468.99c-0.072,19.161-2.748,37.519-10.865,54.687c-13.646,28.867-35.713,46.284-68.4,46.842
	c-32.141,0.549-55.935-14.911-69.49-43.422c-18.572-39.062-18.432-79.21,1.33-117.839c14.114-27.591,37.972-41.972,69.467-40.961
	c30.957,0.995,52.299,17.371,65.924,44.423C708.291,430.472,711.255,449.621,711.385,468.99 M597.519,436.189
	c-0.139,17.989,1.776,35.82,4.694,54.202c2.771,17.448,7.11,34.69,17.067,49.643c3.574,5.366,8.487,10.434,13.917,13.844
	c9.377,5.889,19.828,2.941,24.249-7.202c3.577-8.211,5.897-17.353,6.781-26.278c2.178-21.989-0.378-43.866-4.219-65.544
	c-3.14-17.724-7.409-35.164-15.651-51.345c-3.73-7.325-8.211-14.137-15.382-18.628c-8.828-5.527-18.309-3.453-23.718,5.449
	c-2.045,3.366-4.007,7.119-4.667,10.928C598.54,413.091,597.608,424.673,597.519,436.189"/>
<path fill="#C8AA55" d="M372.274,469.776c-0.015-24.433,4.477-47.724,18.529-68.26c33.021-48.259,102.064-43.716,129.589,8.497
	c12.464,23.64,14.812,49.103,12.538,75.221c-1.37,15.73-5.298,30.852-13.111,44.671c-15.085,26.684-37.681,41.515-68.774,40.602
	c-32.642-0.959-54.573-18.538-68.212-47.315C375.575,507.879,372.32,490.202,372.274,469.776 M489.163,507.507
	c-0.026-10.108-1.271-20.264-2.792-29.741c-4.083-25.426-7.698-51.767-20.112-74.727c-3.609-6.673-8.873-13.002-14.78-17.749
	c-8.28-6.655-18.88-4.235-23.764,5.228c-3.506,6.795-5.998,14.523-7.054,22.097c-3.787,27.174-0.467,54.123,4.464,80.87
	c2.995,16.243,7.4,32.102,16.184,46.358c3.894,6.318,8.623,11.857,15.617,14.952c8.945,3.957,17.316,1.447,22.456-6.868
	C486.817,535.899,489.199,521.75,489.163,507.507"/>
<path fill="#C8AA55" d="M348.427,371.896v7.296c0,54.43-0.002,108.86,0.007,163.29c0,2.495-0.023,5.001,0.183,7.483
	c0.393,4.747,2.184,8.591,6.829,10.806c1.552,0.739,2.677,2.376,3.997,3.602c-0.221,0.412-0.441,0.824-0.662,1.236h-67.97
	c2.061-2.192,3.017-3.953,4.475-4.626c5.704-2.634,7.316-7.36,7.331-13.054c0.033-12.316,0.043-24.634,0.045-36.951
	c0.005-32.458-0.074-64.917,0.054-97.375c0.031-8.099-1.369-15.328-7.089-21.636c-4.567-5.036-2.973-8.585,3.669-10.006
	c14.148-3.028,28.288-6.099,42.44-9.109C343.646,372.447,345.609,372.291,348.427,371.896"/>
<path fill="#C8AA55" d="M437.928,620.867c1.703,0,3.59,0.146,5.672,0.428c2.063,0.292,4.096,0.652,6.091,1.109
	c-0.409,3.016-0.827,6.149-1.284,9.418c-0.448,3.26-0.867,6.441-1.236,9.535c-0.37,3.104-0.681,5.896-0.934,8.396
	c-0.263,2.501-0.38,4.456-0.38,5.877c0,1.08,0.097,2.063,0.292,2.938c0.195,0.886,0.759,1.323,1.664,1.323
	c0.905,0,1.878-0.583,2.889-1.751c1.032-1.158,1.936-3.162,2.734-6.003l3.153,0.769c-0.224,1.08-0.613,2.315-1.158,3.706
	c-0.535,1.392-1.265,2.754-2.16,4.087c-0.915,1.333-2.043,2.442-3.366,3.327c-1.343,0.876-2.89,1.313-4.651,1.313
	c-2.16,0-3.775-0.651-4.855-1.955c-1.08-1.305-1.625-3.212-1.625-5.712c0-1.361,0.117-2.841,0.351-4.427
	c0.223-1.586,0.476-3.21,0.759-4.854h-0.166c-1.255,3.629-2.559,6.558-3.921,8.775c-1.362,2.209-2.724,3.911-4.086,5.108
	c-1.362,1.197-2.715,2.004-4.048,2.432c-1.342,0.419-2.627,0.633-3.872,0.633c-3.074,0-5.672-1.177-7.802-3.531
	c-2.122-2.354-3.192-6.207-3.192-11.549c0-3.911,0.526-7.647,1.576-11.198c1.051-3.551,2.647-6.685,4.767-9.418
	c2.131-2.725,4.768-4.865,7.92-6.432C430.213,621.655,433.842,620.867,437.928,620.867 M435.116,624.788
	c-2.218,0-4.174,0.643-5.876,1.917c-1.703,1.284-3.133,3.056-4.301,5.331c-1.167,2.268-2.033,4.895-2.607,7.881
	c-0.565,2.978-0.846,6.168-0.846,9.583c0,3.183,0.359,5.78,1.06,7.794c0.72,2.015,1.946,3.025,3.716,3.025
	c1.421,0,2.822-0.729,4.213-2.179c1.391-1.44,2.695-3.387,3.921-5.828c1.216-2.442,2.296-5.187,3.23-8.221
	c0.944-3.046,1.674-6.149,2.219-9.331c0.544-3.182,0.836-6.217,0.895-9.116c-0.682-0.282-1.518-0.496-2.511-0.643
	C437.237,624.866,436.196,624.788,435.116,624.788"/>
<path fill="#C8AA55" d="M496.372,665.34c-2.783,0-4.689-0.75-5.702-2.258c-1.031-1.498-1.537-3.647-1.537-6.43
	c0-1.586,0.127-3.464,0.38-5.624c0.262-2.16,0.535-4.417,0.846-6.772c0.311-2.354,0.603-4.698,0.856-7.023
	c0.253-2.335,0.39-4.466,0.39-6.393c0-0.739-0.098-1.46-0.302-2.17c-0.204-0.71-0.535-1.313-1.022-1.79
	c-0.486-0.486-1.206-0.729-2.179-0.729c-1.362,0-2.763,0.7-4.213,2.092c-1.45,1.392-2.811,3.279-4.086,5.662
	c-1.275,2.384-2.423,5.03-3.454,7.93c-1.021,2.89-1.829,5.857-2.432,8.902c-0.584,3.036-0.895,5.916-0.895,8.64
	c0,0.797,0.019,1.654,0.048,2.559c0.03,0.915,0.069,1.731,0.127,2.472h-8.425c-0.059-0.681-0.098-1.207-0.098-1.577v-1.234
	c0-1.08,0.058-2.316,0.175-3.707c0.117-1.392,0.302-3.104,0.555-5.156c0.263-2.044,0.554-4.564,0.895-7.579
	c0.282-2.725,0.525-4.953,0.729-6.685c0.195-1.732,0.37-3.152,0.506-4.262c0.136-1.108,0.234-2.004,0.292-2.685
	c0.059-0.682,0.097-1.304,0.097-1.878c0-1.022-0.155-1.829-0.427-2.423c-0.292-0.594-0.798-0.896-1.538-0.896
	c-0.797,0-1.703,0.584-2.724,1.742c-1.031,1.167-1.965,3.171-2.812,6.012l-3.152-0.768c0.224-1.08,0.613-2.316,1.148-3.707
	c0.535-1.392,1.265-2.754,2.17-4.086c0.914-1.333,2.023-2.442,3.327-3.328c1.304-0.875,2.841-1.323,4.592-1.323
	c1.713,0,3.046,0.428,4.009,1.284c0.973,0.847,1.654,2.014,2.043,3.493c0.399,1.479,0.564,3.182,0.516,5.107
	c-0.059,1.421-0.205,2.725-0.428,3.921c-0.224,1.197-0.419,2.325-0.594,3.405h0.175c1.752-4.543,3.522-8.064,5.313-10.565
	c1.79-2.491,3.599-4.223,5.409-5.195c1.829-0.963,3.619-1.45,5.37-1.45c2.335,0,4.184,0.525,5.585,1.576
	c1.391,1.061,2.393,2.462,3.016,4.223c0.633,1.762,0.944,3.746,0.944,5.964c0,2.783-0.204,5.683-0.593,8.688
	c-0.399,3.006-0.798,5.847-1.197,8.523c-0.399,2.666-0.594,4.884-0.594,6.645c0,1.022,0.126,1.839,0.389,2.471
	c0.253,0.623,0.778,0.935,1.576,0.935c0.848,0,1.771-0.564,2.764-1.702c0.992-1.139,1.918-3.153,2.764-6.052l3.074,0.855
	c-0.176,1.022-0.545,2.238-1.109,3.659c-0.564,1.42-1.343,2.782-2.296,4.086c-0.973,1.313-2.14,2.403-3.503,3.288
	C499.776,664.902,498.19,665.34,496.372,665.34 M474.48,611.673l-2.899-1.702c0.856-2.16,2.179-3.94,4.008-5.331
	c1.81-1.393,3.571-2.112,5.273-2.17c1.82,0,3.269,0.331,4.349,0.982c1.081,0.651,2.092,1.313,3.026,2.004
	c0.934,0.682,2.063,1.052,3.367,1.1c1.187,0,2.296-0.379,3.317-1.148c1.022-0.768,1.956-1.829,2.812-3.19l2.899,1.449
	c-1.138,3.064-2.568,5.234-4.3,6.519c-1.732,1.274-3.366,1.917-4.903,1.917c-1.703,0-3.133-0.36-4.301-1.07
	c-1.168-0.711-2.237-1.391-3.24-2.043c-0.992-0.652-2.14-0.983-3.453-0.983c-0.847,0-1.839,0.303-2.978,0.896
	C476.319,609.494,475.328,610.418,474.48,611.673"/>
<path fill="#C8AA55" d="M533.09,620.867c3.064,0,5.848,0.729,8.348,2.18c2.501,1.449,4.476,3.58,5.916,6.382
	c1.459,2.813,2.18,6.207,2.18,10.188c0,4.543-0.838,8.775-2.511,12.697c-1.674,3.91-4.087,7.063-7.2,9.455
	c-3.133,2.385-6.907,3.571-11.334,3.571c-3.746,0-6.859-0.846-9.33-2.549c-2.472-1.712-4.301-4.018-5.488-6.947
	c-1.196-2.928-1.79-6.148-1.79-9.671c0-4.602,0.847-8.813,2.549-12.647c1.713-3.833,4.146-6.898,7.326-9.204
	C524.937,622.025,528.712,620.867,533.09,620.867 M531.806,624.876c-2.267-0.058-4.213,0.749-5.838,2.432
	c-1.615,1.675-2.88,3.932-3.784,6.772c-0.905,2.841-1.392,5.993-1.45,9.457c0,1.819,0.137,3.755,0.39,5.828
	c0.253,2.082,0.7,4.008,1.362,5.798c0.642,1.79,1.537,3.25,2.685,4.388c1.129,1.139,2.578,1.732,4.34,1.79
	c1.984,0,3.678-0.612,5.068-1.829c1.392-1.226,2.53-2.812,3.414-4.776c0.877-1.955,1.528-4.047,1.947-6.256
	c0.428-2.219,0.681-4.291,0.729-6.228c0.059-1.868-0.029-3.804-0.253-5.789c-0.224-1.983-0.671-3.862-1.323-5.623
	c-0.651-1.761-1.566-3.19-2.724-4.3C535.202,625.43,533.684,624.876,531.806,624.876"/>
<path fill="#C8AA55" d="M569.556,665.34c-2.394,0-4.671-0.37-6.869-1.108c-2.18-0.73-3.94-1.811-5.273-3.23
	c-1.343-1.421-2.003-3.094-2.003-5.03c0-1.421,0.407-2.568,1.234-3.453c0.827-0.877,1.829-1.314,3.025-1.314
	c1.246,0,2.238,0.409,2.978,1.236c0.739,0.816,1.109,1.8,1.109,2.938c0,0.399-0.059,0.809-0.176,1.236
	c-0.106,0.428-0.272,0.866-0.505,1.323c0.398,1.021,1.245,1.839,2.549,2.461c1.313,0.633,2.617,0.943,3.931,0.943
	c2.89,0,5-0.651,6.343-1.965c1.333-1.304,2.005-3.036,2.005-5.196c0-1.361-0.506-2.577-1.499-3.657
	c-0.992-1.08-2.257-2.102-3.794-3.074c-1.527-0.963-3.113-1.927-4.768-2.89c-1.984-1.197-3.774-2.354-5.37-3.493
	c-1.586-1.139-2.841-2.384-3.736-3.755c-0.915-1.362-1.362-2.92-1.362-4.681c0-2.043,0.623-3.96,1.868-5.75s3.025-3.24,5.322-4.349
	c2.306-1.109,4.991-1.664,8.046-1.664c2.218,0,4.319,0.36,6.305,1.071c1.995,0.71,3.639,1.701,4.942,2.977
	c1.313,1.284,1.965,2.831,1.965,4.65c0,1.304-0.398,2.384-1.187,3.23c-0.798,0.856-1.79,1.284-2.987,1.284
	c-1.196,0-2.159-0.419-2.899-1.236c-0.729-0.826-1.099-1.751-1.099-2.772c0-0.457,0.048-0.896,0.165-1.323
	c0.107-0.418,0.282-0.866,0.516-1.313c-0.351-0.856-1.041-1.538-2.092-2.043c-1.051-0.517-2.345-0.77-3.882-0.77
	c-1.129,0-2.238,0.243-3.317,0.72c-1.08,0.486-1.995,1.167-2.725,2.043c-0.738,0.886-1.109,1.946-1.109,3.201
	c0,0.963,0.282,1.858,0.847,2.686c0.574,0.817,1.401,1.614,2.472,2.384c1.079,0.759,2.412,1.654,4.009,2.685
	c1.984,1.129,4.027,2.355,6.129,3.658c2.102,1.304,3.873,2.813,5.293,4.515c1.41,1.702,2.121,3.745,2.121,6.14
	c0,2.441-0.711,4.621-2.121,6.558c-1.42,1.926-3.367,3.435-5.838,4.514C575.646,664.805,572.785,665.34,569.556,665.34"/>
<path fill="#C8AA55" d="M193.479,324.436c2.88,3.931,4.553,8.299,5.011,13.086c0.457,4.787-0.37,9.554-2.491,14.312
	c-2.481,5.555-6.081,9.787-10.79,12.706c-4.709,2.899-9.962,4.067-15.742,3.483l5.128-11.461c2.879-0.078,5.38-0.895,7.481-2.432
	c2.111-1.538,3.766-3.668,4.982-6.373c1.284-2.899,1.751-5.779,1.41-8.63c-0.35-2.87-1.478-5.477-3.385-7.832
	c-1.917-2.364-4.524-4.291-7.852-5.769c-3.279-1.46-6.44-2.121-9.496-1.966c-3.055,0.136-5.769,1.041-8.133,2.695
	c-2.355,1.654-4.184,3.931-5.468,6.83c-1.207,2.705-1.674,5.361-1.382,7.969c0.292,2.607,1.362,5,3.23,7.209l-5.107,11.471
	c-4.35-3.921-6.996-8.601-7.969-14.02c-0.973-5.41-0.214-10.926,2.277-16.54c2.121-4.748,5.117-8.542,8.99-11.412
	c3.852-2.851,8.211-4.534,13.037-5.03c4.845-0.487,9.69,0.35,14.594,2.539C186.688,317.449,190.589,320.504,193.479,324.436"/>
<polygon fill="#C8AA55" points="132.126,395.518 127.923,412.962 119.498,410.929 126.269,382.859 179.206,395.615 176.657,406.229 
	"/>
<path fill="#C8AA55" d="M168.436,453.718l-33.644-2.043c-3.688-0.214-6.558,0.574-8.62,2.374c-2.063,1.81-3.201,4.446-3.415,7.919
	c-0.205,3.532,0.593,6.315,2.422,8.358c1.839,2.043,4.592,3.172,8.28,3.386l33.644,2.053l-0.662,10.974l-33.575-2.043
	c-4.612-0.272-8.465-1.518-11.539-3.697c-3.065-2.189-5.303-5.01-6.714-8.455c-1.401-3.454-1.985-7.238-1.732-11.325
	c0.234-4.047,1.265-7.676,3.075-10.877c1.81-3.201,4.378-5.662,7.686-7.394c3.308-1.722,7.268-2.442,11.889-2.17l33.567,2.034
	L168.436,453.718z"/>
<path fill="#C8AA55" d="M141.65,551.517c-2.218,2.287-4.923,3.639-8.123,4.067c-2.88,0.389-5.517,0.01-7.901-1.119
	c-2.374-1.128-4.358-2.957-5.954-5.478c-1.595-2.51-2.627-5.604-3.113-9.263l-3.084-23.272l53.987-7.16l2.958,22.279
	c0.487,3.668,0.302,6.898-0.526,9.7c-0.836,2.822-2.218,5.05-4.164,6.694c-1.926,1.653-4.241,2.656-6.917,3.007
	c-3.143,0.418-5.886-0.069-8.221-1.47c-2.335-1.401-4.125-3.425-5.371-6.09C145.057,546.525,143.859,549.23,141.65,551.517
	 M127.846,542.906c1.43,1.313,3.278,1.811,5.546,1.519c2.325-0.313,4.027-1.324,5.156-3.045c1.109-1.713,1.479-3.893,1.129-6.52
	l-1.411-10.683l-14.545,1.926l1.449,10.907C125.52,539.647,126.406,541.603,127.846,542.906 M146.623,523.068l1.313,9.904
	c0.341,2.579,1.178,4.495,2.53,5.73c1.343,1.236,3.084,1.723,5.264,1.431c2.16-0.282,3.746-1.197,4.747-2.753
	c1.013-1.547,1.324-3.61,0.993-6.198l-1.304-9.904L146.623,523.068z"/>
<path fill="#C8AA55" d="M198.616,633.992c-0.214,4.865-1.722,9.243-4.495,13.115c-2.783,3.882-6.655,6.946-11.617,9.224
	c-4.962,2.276-9.797,3.172-14.496,2.724c-4.69-0.447-8.971-2.179-12.804-5.205c-3.843-3.016-6.947-7.141-9.34-12.347l-7.91-17.308
	l49.522-22.66l7.919,17.309C197.779,624.059,198.849,629.098,198.616,633.992 M163.931,647.409
	c4.135,1.537,8.786,1.129,13.933-1.236c5.156-2.344,8.532-5.623,10.147-9.778c1.615-4.174,1.226-8.862-1.148-14.067l-3.211-7.016
	l-32.71,14.954l3.211,7.025C156.527,642.496,159.796,645.862,163.931,647.409"/>
<polygon fill="#C8AA55" points="217.355,676.159 206.195,684.02 216.761,699.003 209.688,703.995 199.122,689.012 187.32,697.33 
	199.239,714.229 191.971,719.347 173.758,693.526 218.328,662.1 236.541,687.922 229.263,693.049 "/>
<path fill="#C8AA55" d="M292.698,764.793c0.448-2.578,0.175-5.011-0.798-7.297c-0.973-2.296-2.598-4.339-4.884-6.149
	c-2.529-2.004-5.224-3.21-8.085-3.619c-2.86-0.398-5.682,0.029-8.464,1.274c-2.773,1.255-5.264,3.26-7.463,6.032
	c-2.257,2.851-3.658,5.789-4.222,8.796c-0.545,3.016-0.282,5.876,0.808,8.6c1.099,2.734,2.967,5.128,5.632,7.229
	c3.26,2.579,6.617,3.834,10.07,3.746c3.454-0.088,6.723-1.431,9.837-4.008l-14.691-11.617l5.176-6.559l23.136,18.302l-5.906,7.472
	c-2.928,2.52-6.333,4.32-10.206,5.351c-3.872,1.052-7.9,1.168-12.064,0.36c-4.165-0.817-8.095-2.675-11.763-5.575
	c-4.115-3.259-7.112-7.131-8.97-11.606c-1.849-4.495-2.423-9.146-1.703-13.951c0.72-4.808,2.734-9.302,6.052-13.505
	c3.327-4.203,7.258-7.22,11.782-9.049c4.524-1.828,9.184-2.354,13.981-1.575c4.787,0.777,9.223,2.772,13.309,6.003
	c4.807,3.813,8.066,8.289,9.759,13.436c1.702,5.157,1.537,10.392-0.477,15.703L292.698,764.793z"/>
<path fill="#C8AA55" d="M318.443,822.128c-2.793-4.01-4.398-8.475-4.797-13.368c-0.399-4.904,0.564-9.769,2.899-14.594
	c2.306-4.768,5.517-8.523,9.603-11.247c4.086-2.744,8.581-4.252,13.466-4.544c4.883-0.302,9.612,0.661,14.204,2.88
	c4.631,2.248,8.338,5.371,11.111,9.37c2.783,3.998,4.349,8.444,4.728,13.328c0.38,4.895-0.583,9.729-2.889,14.507
	c-2.335,4.825-5.536,8.609-9.603,11.354c-4.067,2.725-8.552,4.252-13.436,4.544c-4.875,0.301-9.613-0.662-14.195-2.87
	C324.942,829.26,321.244,826.146,318.443,822.128 M342.532,824.463c2.899-0.243,5.585-1.305,8.037-3.172
	c2.471-1.868,4.494-4.446,6.09-7.726c1.576-3.279,2.335-6.44,2.257-9.515c-0.077-3.075-0.914-5.809-2.53-8.212
	c-1.614-2.394-3.901-4.3-6.849-5.73c-2.948-1.421-5.876-2.033-8.785-1.819c-2.909,0.215-5.585,1.235-8.037,3.085
	c-2.452,1.839-4.465,4.406-6.061,7.686c-1.576,3.279-2.335,6.47-2.277,9.564c0.059,3.094,0.905,5.847,2.53,8.289
	c1.634,2.432,3.911,4.349,6.869,5.778C336.724,824.132,339.642,824.716,342.532,824.463"/>
<polygon fill="#C8AA55" points="396.695,846.967 414.004,851.655 411.746,860.023 383.882,852.453 398.145,799.896 408.691,802.757 
	"/>
<polygon fill="#C8AA55" points="478.937,814.665 478.002,823.441 455.431,820.989 453.922,834.873 471.211,836.75 470.277,845.361 
	452.988,843.483 450.507,866.366 439.649,865.199 445.506,811.046 "/>
<path fill="#C8AA55" d="M565.42,811.046c4.661,1.459,8.514,4.028,11.549,7.696c3.036,3.677,5.03,8.192,5.954,13.572
	c0.944,5.39,0.584,10.294-1.05,14.711c-1.635,4.436-4.389,8.124-8.29,11.072c-3.892,2.947-8.659,4.913-14.292,5.886l-18.768,3.249
	l-9.312-53.657l18.758-3.249C555.604,809.344,560.76,809.586,565.42,811.046 M569.575,848.018c2.549-3.601,3.327-8.202,2.354-13.786
	c-0.963-5.595-3.269-9.691-6.878-12.298c-3.629-2.627-8.261-3.444-13.894-2.472l-7.608,1.323l6.149,35.435l7.617-1.314
	C562.949,853.913,567.045,851.627,569.575,848.018"/>
<polygon fill="#C8AA55" points="610.943,803.681 615.721,816.465 632.893,810.044 635.929,818.158 618.747,824.57 623.806,838.103 
	643.167,830.854 646.28,839.193 616.684,850.255 597.595,799.167 627.191,788.104 630.305,796.441 "/>
<polygon fill="#C8AA55" points="679.672,812.836 695.297,804.002 699.559,811.542 674.428,825.747 647.623,778.336 657.139,772.956 
	"/>
<path fill="#C8AA55" d="M722.11,725.633l23.866,23.808c2.617,2.607,5.303,3.931,8.036,3.94c2.734,0.01,5.342-1.206,7.803-3.688
	c2.501-2.501,3.727-5.128,3.707-7.861c-0.02-2.734-1.333-5.419-3.95-8.018l-23.865-23.807l7.764-7.793l23.817,23.749
	c3.278,3.269,5.343,6.742,6.197,10.42c0.837,3.668,0.662,7.268-0.563,10.78c-1.227,3.512-3.299,6.731-6.207,9.642
	c-2.861,2.87-6.033,4.903-9.507,6.1c-3.473,1.206-7.015,1.362-10.644,0.457c-3.629-0.895-7.073-2.967-10.352-6.235l-23.808-23.75
	L722.11,725.633z"/>
<path fill="#C8AA55" d="M820.474,691.667l-24.323-1.848l-2.88,4.281l17.63,11.82l-6.081,9.067l-45.231-30.336l11.383-16.978
	c2.346-3.502,4.963-6.07,7.843-7.695c2.879-1.635,5.778-2.374,8.707-2.189c2.928,0.165,5.673,1.129,8.271,2.861
	c2.986,1.994,5.088,4.66,6.333,7.997c1.227,3.337,1.168,7.024-0.214,11.032l25.588,1.479L820.474,691.667z M786.47,689.527
	l5.089-7.579c1.653-2.462,2.286-4.69,1.906-6.704c-0.369-2.004-1.614-3.716-3.735-5.137c-2.073-1.392-4.087-1.858-6.052-1.42
	c-1.946,0.438-3.756,1.887-5.409,4.358l-5.079,7.579L786.47,689.527z"/>
<path fill="#C8AA55" d="M796.599,622.123l31.104,13.008c3.406,1.42,6.373,1.615,8.921,0.594c2.551-1.022,4.477-3.153,5.829-6.363
	c1.362-3.27,1.508-6.169,0.457-8.697c-1.061-2.511-3.289-4.486-6.693-5.916l-31.114-12.998l4.242-10.148l31.036,12.959
	c4.281,1.781,7.49,4.223,9.671,7.307c2.18,3.084,3.366,6.48,3.562,10.188c0.194,3.726-0.487,7.481-2.083,11.266
	c-1.557,3.746-3.716,6.83-6.479,9.253c-2.764,2.433-5.993,3.911-9.681,4.456c-3.708,0.545-7.676-0.078-11.958-1.868l-31.025-12.949
	L796.599,622.123z"/>
<path fill="#C8AA55" d="M839.096,535.901c-2.472,0.808-4.495,2.179-6.081,4.096c-1.576,1.927-2.637,4.33-3.172,7.19
	c-0.593,3.172-0.398,6.12,0.574,8.844c0.973,2.725,2.666,5.011,5.06,6.888c2.413,1.879,5.341,3.153,8.814,3.806
	c3.58,0.661,6.83,0.544,9.759-0.37c2.929-0.905,5.321-2.481,7.229-4.719c1.897-2.247,3.162-5.011,3.775-8.338
	c0.769-4.097,0.312-7.647-1.382-10.663c-1.684-3.017-4.397-5.283-8.124-6.841l-3.435,18.408l-8.211-1.527l5.409-28.993l9.359,1.742
	c3.6,1.42,6.771,3.6,9.496,6.548c2.733,2.938,4.709,6.439,5.935,10.507c1.225,4.066,1.411,8.406,0.545,13.008
	c-0.953,5.157-2.996,9.613-6.101,13.339c-3.104,3.736-6.956,6.402-11.529,8.007c-4.592,1.597-9.515,1.907-14.788,0.935
	c-5.264-0.982-9.759-3.064-13.484-6.217c-3.717-3.152-6.354-7.034-7.9-11.646c-1.557-4.582-1.849-9.447-0.896-14.555
	c1.128-6.042,3.581-11.004,7.346-14.915c3.775-3.892,8.475-6.188,14.116-6.878L839.096,535.901z"/>
<path fill="#C8AA55" d="M826.214,488.413l33.702-0.506c3.688-0.058,6.5-1.06,8.406-3.026c1.927-1.946,2.86-4.67,2.821-8.143
	c-0.058-3.542-1.079-6.266-3.055-8.153c-1.984-1.898-4.815-2.812-8.513-2.754l-33.702,0.506l-0.166-11.004l33.625-0.506
	c4.631-0.077,8.562,0.876,11.792,2.832c3.229,1.945,5.672,4.582,7.335,7.919c1.654,3.328,2.521,7.054,2.589,11.169
	c0.058,4.038-0.691,7.735-2.258,11.063c-1.556,3.327-3.921,5.983-7.093,7.958c-3.171,1.975-7.073,2.987-11.704,3.046l-33.624,0.515
	L826.214,488.413z"/>
<path fill="#C8AA55" d="M858.33,390.711l4.846,21.142l10.916,1.187l2.559,11.169l-57.529-6.908l-2.841-12.405l48.783-31.26
	l2.578,11.257L858.33,390.711z M850.479,395.557l-20.45,12.765L854,410.909L850.479,395.557z"/>
<polygon fill="#C8AA55" points="787.452,328.21 827.382,330.428 844.671,322.646 849.156,332.617 831.867,340.401 807.086,371.817 
	802.027,360.589 819.919,339.7 792.453,339.311 "/>
<path fill="#C8AA55" d="M269.173,327.067c-0.953,0-1.926-0.263-2.812-0.807l-125.644-78.419c-2.49-1.556-3.25-4.84-1.692-7.331
	c1.546-2.476,4.786-3.264,7.335-1.697l125.645,78.418c2.49,1.556,3.249,4.84,1.692,7.331
	C272.685,326.177,270.954,327.067,269.173,327.067"/>
<path fill="#C8AA55" d="M345.12,159.173c-1.226,0-2.452-0.423-3.454-1.279L231.054,63.271c-2.238-1.911-2.5-5.268-0.594-7.501
	c1.927-2.238,5.274-2.486,7.502-0.584l110.612,94.622c2.238,1.912,2.501,5.269,0.594,7.502
	C348.106,158.542,346.619,159.173,345.12,159.173"/>
<path fill="#C8AA55" d="M93.53,345.373c-0.749,0-1.498-0.156-2.218-0.486l-50.729-23.244c-1.712-0.783-2.88-2.417-3.074-4.295
	c-0.195-1.873,0.623-3.712,2.14-4.826c0.01-0.005,57.578-42.298,99.502-73.714c2.316-1.751,5.672-1.294,7.453,1.065
	c1.76,2.355,1.284,5.687-1.071,7.448c-32.923,24.674-75.489,56.046-92.292,68.417l42.507,19.478
	c2.666,1.221,3.844,4.378,2.617,7.053C97.47,344.22,95.544,345.373,93.53,345.373"/>
<path fill="#C8AA55" d="M42.801,322.129c-0.593,0-1.206-0.102-1.8-0.316c-2.763-0.993-4.203-4.038-3.21-6.806
	c0.554-1.523,56.39-153.864,193.457-259.986c2.335-1.79,5.682-1.372,7.462,0.953c1.8,2.321,1.382,5.663-0.944,7.463
	C103.124,167.682,48.347,317.109,47.813,318.607C47.024,320.777,44.981,322.129,42.801,322.129"/>
<path fill="#C8AA55" d="M227.25,294.888c-0.954,0-1.917-0.258-2.792-0.798c-2.501-1.552-3.27-4.83-1.723-7.326
	c12.551-20.256,66.208-93.304,118.99-137.008c2.247-1.873,5.604-1.571,7.491,0.705c1.878,2.262,1.557,5.614-0.7,7.487
	c-51.77,42.872-104.415,114.543-116.732,134.42C230.771,293.993,229.029,294.888,227.25,294.888"/>
<path fill="#C8AA55" d="M724.563,327.067c-1.78,0-3.513-0.89-4.524-2.505c-1.557-2.491-0.798-5.775,1.693-7.331l125.644-78.418
	c2.55-1.562,5.779-0.779,7.336,1.697c1.557,2.491,0.798,5.775-1.692,7.331L727.374,326.26
	C726.489,326.804,725.516,327.067,724.563,327.067"/>
<path fill="#C8AA55" d="M648.615,159.173c-1.498,0-2.986-0.632-4.047-1.863c-1.907-2.233-1.645-5.59,0.594-7.502l110.612-94.622
	c2.218-1.902,5.573-1.654,7.501,0.584c1.906,2.233,1.645,5.59-0.594,7.501l-110.612,94.623
	C651.067,158.75,649.842,159.173,648.615,159.173"/>
<path fill="#C8AA55" d="M900.205,345.373c-2.014,0-3.94-1.153-4.835-3.104c-1.226-2.675-0.049-5.832,2.617-7.053l42.507-19.478
	c-16.802-12.371-59.368-43.743-92.292-68.417c-2.354-1.761-2.831-5.093-1.07-7.448c1.78-2.359,5.118-2.826,7.453-1.065
	c41.923,31.416,99.491,73.709,99.501,73.714c1.519,1.114,2.335,2.953,2.141,4.826c-0.194,1.878-1.362,3.512-3.074,4.295
	l-50.729,23.244C901.704,345.217,900.954,345.373,900.205,345.373"/>
<path fill="#C8AA55" d="M950.934,322.129c-2.179,0-4.222-1.352-5.01-3.522c-0.535-1.498-55.419-151.013-189.955-255.17
	c-2.325-1.8-2.744-5.142-0.944-7.463c1.781-2.33,5.128-2.748,7.463-0.953C899.554,161.144,955.39,313.484,955.944,315.007
	c0.992,2.768-0.448,5.813-3.21,6.806C952.141,322.027,951.527,322.129,950.934,322.129"/>
<path fill="#C8AA55" d="M766.486,294.888c-1.791,0-3.522-0.895-4.534-2.52c-12.317-19.877-64.963-91.548-116.732-134.42
	c-2.257-1.873-2.578-5.225-0.7-7.487c1.878-2.271,5.234-2.573,7.491-0.705C704.793,193.459,758.449,266.508,771,286.764
	c1.547,2.496,0.778,5.774-1.722,7.326C768.402,294.629,767.439,294.888,766.486,294.888"/>
<polygon fill="#C8AA55" points="180.714,212.763 175.781,209.29 181.696,200.902 209.571,220.584 206.049,225.596 183.097,209.396 
	"/>
<path fill="#C8AA55" d="M216.888,199.89c1.07-0.194,2.024-0.836,2.86-1.906c1.071-1.401,1.207-2.9,0.428-4.515
	c-0.797-1.605-2.694-3.57-5.72-5.896c0.399,1.129,0.457,2.326,0.184,3.6c-0.272,1.275-0.826,2.452-1.653,3.532
	c-1.11,1.44-2.442,2.491-3.98,3.142c-1.557,0.652-3.23,0.818-5.049,0.487c-1.82-0.321-3.649-1.197-5.517-2.627
	c-2.744-2.111-4.349-4.534-4.826-7.268c-0.476-2.734,0.273-5.38,2.248-7.939c2.461-3.191,5.322-4.582,8.581-4.164
	c3.259,0.418,7.151,2.374,11.685,5.857c3.211,2.471,5.643,4.758,7.317,6.84c1.653,2.092,2.548,4.154,2.666,6.197
	c0.116,2.044-0.633,4.126-2.258,6.237c-1.284,1.663-2.724,2.811-4.329,3.434c-1.606,0.623-3.221,0.808-4.855,0.535
	c-1.616-0.262-3.153-0.885-4.612-1.858l3.376-4.388C214.66,199.852,215.808,200.085,216.888,199.89 M210.447,186.795
	c-0.272-1.284-1.07-2.442-2.403-3.464c-1.459-1.128-2.87-1.644-4.213-1.556c-1.342,0.087-2.49,0.739-3.425,1.955
	c-0.934,1.216-1.264,2.491-0.972,3.843c0.272,1.343,1.099,2.54,2.451,3.59c1.324,1.003,2.647,1.489,4.009,1.44
	c1.352-0.048,2.559-0.758,3.619-2.13C210.408,189.305,210.719,188.079,210.447,186.795"/>
<path fill="#C8AA55" d="M237.951,173.738c1.08-0.136,2.072-0.72,2.948-1.751c1.148-1.343,1.372-2.832,0.662-4.476
	c-0.701-1.654-2.491-3.716-5.39-6.198c0.34,1.149,0.331,2.355,0,3.61c-0.351,1.255-0.954,2.403-1.849,3.444
	c-1.177,1.372-2.559,2.345-4.135,2.919c-1.585,0.574-3.269,0.652-5.069,0.224c-1.79-0.419-3.58-1.391-5.361-2.909
	c-2.636-2.257-4.115-4.758-4.446-7.511c-0.33-2.754,0.555-5.361,2.666-7.813c2.617-3.065,5.546-4.3,8.786-3.707
	c3.24,0.584,7.014,2.744,11.354,6.46c3.084,2.637,5.399,5.05,6.947,7.22c1.556,2.169,2.335,4.28,2.344,6.324
	c0.01,2.053-0.846,4.086-2.578,6.11c-1.372,1.595-2.88,2.656-4.515,3.201c-1.634,0.544-3.249,0.632-4.864,0.282
	c-1.606-0.35-3.114-1.051-4.514-2.102l3.599-4.203C235.724,173.583,236.872,173.875,237.951,173.738 M232.211,160.331
	c-0.205-1.304-0.944-2.5-2.228-3.59c-1.391-1.197-2.763-1.79-4.125-1.771c-1.343,0.019-2.52,0.603-3.522,1.771
	c-0.993,1.158-1.382,2.422-1.168,3.785c0.205,1.352,0.963,2.597,2.267,3.706c1.255,1.08,2.559,1.635,3.921,1.654
	c1.353,0.029,2.598-0.622,3.717-1.936C232.045,162.831,232.416,161.625,232.211,160.331"/>
<path fill="#C8AA55" d="M254.988,153.034c0.078-3.697,0.078-6.703,0-9.029c-0.098-2.325-0.409-4.495-0.973-6.528
	c-0.564-2.034-1.479-3.658-2.744-4.865c-1.148-1.099-2.276-1.722-3.405-1.848c-1.128-0.136-2.179,0.311-3.152,1.333
	c-0.993,1.021-1.362,2.169-1.148,3.444c0.233,1.284,0.992,2.559,2.276,3.833l-4.008,4.174c-2.627-2.676-3.97-5.371-4.048-8.095
	c-0.068-2.714,0.915-5.147,2.958-7.277c2.238-2.335,4.631-3.474,7.2-3.415c2.559,0.058,4.962,1.158,7.18,3.288
	c1.761,1.693,3.035,3.726,3.804,6.12c0.779,2.393,1.226,4.709,1.352,6.947c0.117,2.247,0.156,5.059,0.117,8.435l8.689-9.068
	l3.921,3.756l-14.546,15.187l-3.512-3.376L254.988,153.034z"/>
<path fill="#C8AA55" d="M731.354,145.008c3.688,0.292,6.693,0.467,9.019,0.516c2.326,0.038,4.515-0.156,6.567-0.604
	c2.063-0.447,3.736-1.264,5.02-2.451c1.159-1.09,1.84-2.19,2.044-3.299c0.195-1.119-0.194-2.198-1.157-3.23
	c-0.964-1.041-2.092-1.479-3.376-1.333c-1.294,0.156-2.607,0.837-3.95,2.044l-3.95-4.233c2.821-2.471,5.595-3.658,8.309-3.58
	c2.725,0.087,5.099,1.206,7.103,3.366c2.199,2.365,3.211,4.826,2.997,7.385c-0.195,2.549-1.431,4.874-3.688,6.985
	c-1.781,1.654-3.892,2.802-6.324,3.444c-2.442,0.643-4.777,0.954-7.015,0.954c-2.238-0.01-5.06-0.126-8.426-0.36l8.562,9.185
	l-3.979,3.706l-14.331-15.391l3.562-3.318L731.354,145.008z"/>
<path fill="#C8AA55" d="M770.504,154.289c3.483-0.593,6.538,0.691,9.175,3.853c2.637,3.162,3.337,6.402,2.131,9.72
	c-1.216,3.318-3.892,6.713-8.046,10.167c-4.174,3.473-8.008,5.516-11.52,6.139c-3.513,0.613-6.587-0.661-9.214-3.824
	c-2.637-3.161-3.327-6.411-2.092-9.748s3.94-6.752,8.114-10.226C763.207,156.916,767.021,154.893,770.504,154.289 M774.221,169.477
	c1.041-1.216,1.684-2.462,1.937-3.717c0.243-1.264-0.137-2.5-1.158-3.726c-1.012-1.216-2.16-1.819-3.444-1.8
	c-1.284,0.02-2.627,0.428-4.008,1.226c-1.382,0.808-2.958,1.946-4.729,3.425c-1.829,1.518-3.27,2.889-4.34,4.115
	c-1.08,1.226-1.731,2.471-1.955,3.727c-0.224,1.264,0.165,2.5,1.176,3.726c1.022,1.216,2.171,1.829,3.455,1.839
	c1.274,0,2.617-0.419,4.019-1.246c1.4-0.836,3.016-2.014,4.825-3.531C771.778,172.036,773.189,170.693,774.221,169.477"/>
<path fill="#C8AA55" d="M774.318,195.152c3.629,0.681,6.596,1.167,8.912,1.459c2.296,0.292,4.494,0.322,6.596,0.098
	c2.092-0.224,3.834-0.866,5.234-1.917c1.275-0.953,2.063-1.975,2.384-3.065c0.321-1.08,0.049-2.199-0.808-3.327
	c-0.846-1.138-1.926-1.693-3.21-1.683c-1.304,0.019-2.686,0.554-4.146,1.624l-3.482-4.631c3.074-2.16,5.955-3.055,8.64-2.685
	c2.704,0.37,4.942,1.732,6.713,4.096c1.937,2.588,2.666,5.137,2.199,7.657c-0.468,2.52-1.946,4.699-4.417,6.558
	c-1.946,1.459-4.165,2.383-6.646,2.763c-2.481,0.369-4.845,0.438-7.073,0.204c-2.237-0.243-5.011-0.661-8.348-1.245l7.55,10.04
	l-4.349,3.26l-12.619-16.813l3.892-2.928L774.318,195.152z"/>
<polygon fill="#C8AA55" points="808.254,206.39 813.216,202.965 819.054,211.399 790.965,230.791 787.481,225.75 810.599,209.794 
	"/>
<path fill="#C8AA55" d="M288.123,922.021c-3.296-1.661-7.314-0.336-8.975,2.96c-1.661,3.295-0.336,7.314,2.959,8.975
	c3.296,1.661,7.314,0.336,8.975-2.96C292.744,927.699,291.418,923.682,288.123,922.021"/>
<path fill="#C8AA55" d="M245.393,897.603c-3.104-1.996-7.239-1.099-9.235,2.007c-1.996,3.104-1.098,7.238,2.006,9.234
	s7.239,1.098,9.235-2.007C249.395,903.733,248.497,899.599,245.393,897.603"/>
<path fill="#C8AA55" d="M205.445,868.856c-2.879-2.31-7.084-1.849-9.394,1.03s-1.848,7.085,1.031,9.395
	c2.879,2.309,7.085,1.848,9.394-1.031C208.785,875.371,208.324,871.165,205.445,868.856"/>
<path fill="#C8AA55" d="M168.718,836.095c-2.622-2.597-6.853-2.576-9.45,0.046c-2.598,2.621-2.578,6.853,0.044,9.449
	c2.622,2.598,6.853,2.577,9.45-0.045C171.36,842.923,171.34,838.692,168.718,836.095"/>
<path fill="#C8AA55" d="M135.613,799.679c-2.336-2.857-6.546-3.279-9.403-0.943c-2.857,2.337-3.279,6.547-0.943,9.404
	c2.337,2.857,6.547,3.279,9.404,0.942C137.528,806.746,137.949,802.536,135.613,799.679"/>
<path fill="#C8AA55" d="M106.491,760.004c-2.025-3.085-6.168-3.944-9.253-1.919c-3.086,2.025-3.945,6.168-1.92,9.254
	c2.026,3.085,6.168,3.944,9.254,1.919C107.657,767.232,108.516,763.09,106.491,760.004"/>
<path fill="#C8AA55" d="M81.671,717.506c-1.692-3.279-5.723-4.566-9.002-2.875c-3.281,1.692-4.568,5.724-2.875,9.002
	c1.691,3.28,5.722,4.568,9.002,2.875C82.076,724.816,83.363,720.786,81.671,717.506"/>
<path fill="#C8AA55" d="M61.425,672.648c-1.34-3.439-5.214-5.14-8.653-3.799c-3.439,1.34-5.14,5.214-3.8,8.652
	c1.341,3.438,5.215,5.14,8.654,3.8C61.064,679.961,62.765,676.086,61.425,672.648"/>
<path fill="#C8AA55" d="M45.973,625.922c-0.974-3.56-4.649-5.656-8.209-4.682c-3.56,0.974-5.656,4.648-4.683,8.209
	c0.975,3.56,4.65,5.655,8.21,4.682C44.85,633.157,46.947,629.482,45.973,625.922"/>
<path fill="#C8AA55" d="M35.485,577.837c-0.597-3.642-4.033-6.11-7.675-5.514c-3.642,0.597-6.111,4.034-5.514,7.676
	c0.597,3.643,4.033,6.11,7.675,5.513C33.613,584.915,36.082,581.479,35.485,577.837"/>
<path fill="#C8AA55" d="M30.075,528.92c-0.213-3.684-3.373-6.498-7.058-6.285c-3.684,0.214-6.498,3.373-6.284,7.059
	c0.213,3.684,3.373,6.498,7.057,6.285C27.474,535.765,30.288,532.605,30.075,528.92"/>
<path fill="#C8AA55" d="M29.803,479.706c0.172-3.687-2.676-6.815-6.363-6.988c-3.687-0.172-6.815,2.676-6.988,6.363
	c-0.172,3.687,2.677,6.815,6.363,6.988C26.501,486.241,29.63,483.393,29.803,479.706"/>
<path fill="#C8AA55" d="M34.67,430.732c0.557-3.648-1.95-7.057-5.598-7.614c-3.649-0.556-7.057,1.95-7.614,5.599
	c-0.557,3.648,1.95,7.057,5.598,7.613C30.706,436.887,34.113,434.38,34.67,430.732"/>
<path fill="#C8AA55" d="M44.626,382.534c0.934-3.57-1.203-7.222-4.773-8.157c-3.57-0.934-7.222,1.203-8.157,4.773
	c-0.934,3.57,1.203,7.222,4.773,8.157C40.04,388.241,43.691,386.104,44.626,382.534"/>
<path fill="#C8AA55" d="M953.546,376.01c0.985,3.557,4.668,5.641,8.225,4.655c3.557-0.986,5.641-4.668,4.655-8.224
	c-0.986-3.557-4.668-5.641-8.225-4.655C954.645,368.771,952.561,372.453,953.546,376.01"/>
<path fill="#C8AA55" d="M964.191,424.061c0.609,3.64,4.054,6.097,7.694,5.488c3.64-0.609,6.097-4.053,5.488-7.693
	c-0.609-3.64-4.054-6.097-7.693-5.489C966.04,416.976,963.583,420.42,964.191,424.061"/>
<path fill="#C8AA55" d="M969.763,472.959c0.226,3.684,3.395,6.487,7.078,6.262c3.684-0.226,6.487-3.395,6.262-7.078
	c-0.226-3.684-3.395-6.487-7.078-6.262C972.341,466.106,969.537,469.275,969.763,472.959"/>
<path fill="#C8AA55" d="M970.196,522.173c-0.16,3.687,2.699,6.806,6.386,6.967c3.688,0.16,6.807-2.699,6.967-6.386
	c0.16-3.688-2.698-6.807-6.386-6.968C973.476,515.626,970.357,518.485,970.196,522.173"/>
<path fill="#C8AA55" d="M965.489,571.162c-0.544,3.649,1.974,7.051,5.623,7.595c3.65,0.545,7.051-1.973,7.596-5.623
	c0.545-3.649-1.973-7.051-5.623-7.595C969.435,564.994,966.034,567.512,965.489,571.162"/>
<path fill="#C8AA55" d="M955.692,619.393c-0.923,3.572,1.227,7.218,4.8,8.141s7.218-1.227,8.141-4.799
	c0.923-3.574-1.226-7.22-4.799-8.143C960.26,613.67,956.615,615.819,955.692,619.393"/>
<path fill="#C8AA55" d="M940.913,666.336c-1.291,3.458,0.466,7.307,3.923,8.598c3.458,1.29,7.306-0.466,8.598-3.923
	c1.291-3.458-0.465-7.307-3.923-8.598C946.054,661.122,942.204,662.878,940.913,666.336"/>
<path fill="#C8AA55" d="M921.313,711.479c-1.645,3.304-0.3,7.315,3.004,8.96c3.304,1.646,7.315,0.3,8.96-3.004
	c1.646-3.304,0.301-7.315-3.004-8.96C926.969,706.83,922.957,708.176,921.313,711.479"/>
<path fill="#C8AA55" d="M897.105,754.33c-1.98,3.113-1.062,7.243,2.052,9.225c3.114,1.98,7.244,1.062,9.225-2.052
	c1.981-3.114,1.063-7.244-2.052-9.226C903.217,750.297,899.086,751.216,897.105,754.33"/>
<path fill="#C8AA55" d="M868.556,794.418c-2.295,2.89-1.812,7.094,1.078,9.389s7.094,1.813,9.389-1.078
	c2.295-2.89,1.813-7.093-1.077-9.388C875.055,791.045,870.852,791.528,868.556,794.418"/>
<path fill="#C8AA55" d="M835.977,831.306c-2.584,2.635-2.543,6.866,0.092,9.45c2.634,2.584,6.865,2.544,9.449-0.091
	c2.585-2.635,2.544-6.866-0.091-9.45C842.792,828.63,838.562,828.671,835.977,831.306"/>
<path fill="#C8AA55" d="M799.724,864.59c-2.845,2.352-3.246,6.563-0.896,9.408c2.351,2.846,6.563,3.247,9.408,0.896
	s3.247-6.563,0.896-9.408S802.569,862.24,799.724,864.59"/>
<path fill="#C8AA55" d="M760.193,893.907c-3.075,2.041-3.914,6.188-1.873,9.263c2.04,3.075,6.188,3.914,9.263,1.874
	c3.075-2.041,3.914-6.188,1.873-9.263C767.416,892.706,763.269,891.867,760.193,893.907"/>
<path fill="#C8AA55" d="M717.818,918.937c-3.271,1.708-4.539,5.745-2.831,9.017s5.745,4.538,9.017,2.83s4.539-5.745,2.831-9.016
	C725.126,918.495,721.09,917.229,717.818,918.937"/>
<path fill="#C8AA55" d="M673.061,939.403c-3.432,1.357-5.114,5.24-3.757,8.672c1.357,3.433,5.239,5.114,8.672,3.757
	s5.114-5.239,3.757-8.672C680.374,939.729,676.492,938.047,673.061,939.403"/>
<path fill="#C8AA55" d="M626.411,955.085c-3.556,0.992-5.634,4.678-4.642,8.232c0.991,3.555,4.677,5.633,8.231,4.642
	c3.556-0.991,5.634-4.677,4.641-8.231C633.651,956.173,629.966,954.095,626.411,955.085"/>
<path fill="#C8AA55" d="M578.378,965.811c-3.639,0.615-6.09,4.063-5.476,7.702c0.615,3.639,4.063,6.091,7.702,5.476
	c3.64-0.615,6.091-4.063,5.477-7.702C585.466,967.647,582.018,965.195,578.378,965.811"/>
<path fill="#C8AA55" d="M529.488,971.461c-3.683,0.231-6.481,3.405-6.25,7.089c0.23,3.684,3.405,6.481,7.089,6.25
	c3.683-0.231,6.481-3.404,6.25-7.089C536.346,974.028,533.172,971.23,529.488,971.461"/>
<path fill="#C8AA55" d="M480.276,971.977c-3.688-0.155-6.802,2.709-6.956,6.397c-0.155,3.687,2.709,6.802,6.397,6.956
	c3.687,0.153,6.802-2.71,6.956-6.397S483.964,972.131,480.276,971.977"/>
<path fill="#C8AA55" d="M431.279,967.35c-3.651-0.539-7.047,1.985-7.586,5.636c-0.539,3.651,1.985,7.048,5.636,7.586
	c3.651,0.539,7.048-1.984,7.586-5.636C437.454,971.284,434.93,967.889,431.279,967.35"/>
<path fill="#C8AA55" d="M383.033,957.632c-3.575-0.917-7.216,1.238-8.133,4.813c-0.917,3.576,1.238,7.217,4.813,8.134
	c3.575,0.917,7.216-1.238,8.133-4.813C388.763,962.19,386.608,958.549,383.033,957.632"/>
<path fill="#C8AA55" d="M336.065,942.93c-3.459-1.285-7.306,0.478-8.591,3.938c-1.285,3.46,0.477,7.306,3.937,8.591
	c3.46,1.285,7.306-0.478,8.592-3.938C341.288,948.062,339.524,944.215,336.065,942.93"/>
<path fill="#C8AA55" d="M328.98,54.303c3.448-1.315,5.178-5.177,3.862-8.625c-1.315-3.449-5.177-5.178-8.625-3.863
	c-3.448,1.316-5.177,5.177-3.862,8.626C321.67,53.889,325.532,55.618,328.98,54.303"/>
<path fill="#C8AA55" d="M358.099,92.425c3.448-1.315,5.177-5.177,3.862-8.625c-1.316-3.448-5.177-5.177-8.625-3.862
	c-3.448,1.315-5.178,5.177-3.862,8.625C350.789,92.011,354.651,93.74,358.099,92.425"/>
<path fill="#C8AA55" d="M662.698,54.303c-3.448-1.315-5.178-5.177-3.862-8.625c1.315-3.449,5.176-5.178,8.626-3.863
	c3.448,1.316,5.176,5.177,3.861,8.626C670.008,53.889,666.146,55.618,662.698,54.303"/>
<path fill="#C8AA55" d="M633.58,92.425c-3.448-1.315-5.178-5.177-3.862-8.625c1.315-3.448,5.177-5.177,8.625-3.862
	s5.177,5.177,3.862,8.625C640.89,92.011,637.028,93.74,633.58,92.425"/>
<path fill="#C8AA55" d="M327.494,252.132c3.448-1.314,5.178-5.177,3.862-8.625c-1.315-3.449-5.177-5.178-8.625-3.863
	c-3.448,1.316-5.177,5.177-3.862,8.626C320.184,251.718,324.046,253.447,327.494,252.132"/>
<path fill="#C8AA55" d="M379.726,277.979c3.448-1.315,5.177-5.177,3.862-8.625c-1.315-3.449-5.177-5.178-8.625-3.862
	c-3.448,1.315-5.177,5.176-3.862,8.625C372.416,277.564,376.277,279.293,379.726,277.979"/>
<path fill="#C8AA55" d="M435.223,293.62c3.448-1.315,5.177-5.177,3.862-8.625c-1.315-3.449-5.177-5.178-8.625-3.863
	c-3.448,1.316-5.177,5.177-3.862,8.626C427.913,293.206,431.775,294.935,435.223,293.62"/>
<path fill="#C8AA55" d="M498.624,300.304c3.448-1.315,5.178-5.177,3.862-8.625c-1.315-3.449-5.177-5.178-8.625-3.863
	c-3.448,1.316-5.177,5.177-3.862,8.626C491.314,299.89,495.176,301.619,498.624,300.304"/>
<path fill="#C8AA55" d="M664.991,252.132c-3.448-1.314-5.178-5.177-3.862-8.625c1.315-3.449,5.176-5.178,8.625-3.863
	c3.448,1.316,5.178,5.177,3.862,8.626C672.301,251.718,668.439,253.447,664.991,252.132"/>
<path fill="#C8AA55" d="M612.76,277.979c-3.448-1.315-5.178-5.177-3.862-8.625c1.315-3.449,5.177-5.178,8.625-3.862
	c3.448,1.315,5.178,5.176,3.862,8.625C620.07,277.564,616.208,279.293,612.76,277.979"/>
<path fill="#C8AA55" d="M557.262,293.62c-3.448-1.315-5.177-5.177-3.862-8.625c1.315-3.449,5.177-5.178,8.626-3.863
	c3.448,1.316,5.176,5.177,3.861,8.626C564.572,293.206,560.71,294.935,557.262,293.62"/>
<g>
	<defs>
		<rect id="SVGID_1_" x="424.23" y="85.721" width="151.562" height="122.708"/>
	</defs>
	<clipPath id="SVGID_2_">
		<use xlink:href="#SVGID_1_"  overflow="visible"/>
	</clipPath>
	<polygon clip-path="url(#SVGID_2_)" fill="#C8AA55" points="575.792,208.429 575.792,85.722 424.23,85.722 	"/>
</g>
<path fill="#C8AA55" d="M551.878,85.721c0.884-0.462,0.884-0.873,0-1.315l-14.759-3.919l-7.83-2.163
	c1.331-0.447,2.63-1.315,3.904-2.615c3.072-4.326,11.729-3.467,13.922-9.555c0.442-1.295,0.442-1.295-0.878-0.853
	c-2.6,1.3-3.457,0.426-7.813,0c-5.636,0-7.804,0.426-10.835,3.031c-0.889,0.873-1.762,0.873-2.183,1.315l3.883-7.382l7.83-13.495
	c0.441-0.847,0-1.275-0.854-0.847l-13.479,7.818l-6.504,3.909c0.447-1.304,0.447-2.609,0.447-4.772
	c-0.447-4.778,6.057-10.428,3.473-16.521c-0.437-1.3-0.848-0.832-1.325,0.452c-0.858,2.589-2.147,2.589-5.637,5.204
	c-3.894,3.91-5.209,5.651-5.65,9.992c0,0.873-0.416,1.736-0.416,2.183l-2.594-8.265l-3.92-14.765c0-0.863-0.863-0.863-0.863,0
	l-4.366,14.765l-2.147,7.818c-0.458-1.284-1.321-2.62-2.616-3.468c-3.914-3.503-3.04-12.154-9.119-14.338
	c-1.309-0.41-1.741,0-0.862,0.874c1.31,2.589,0,3.909,0,7.818c-0.447,5.646,0,7.83,2.609,11.297c0.869,0.422,1.279,1.29,1.279,2.147
	l-7.381-4.33l-13.424-7.818c-0.467-0.428-0.883,0-0.883,0.847l7.819,13.495l3.894,6.94c-1.296-0.436-2.605-0.873-4.352-0.873
	c-5.209,0.873-10.84-6.067-16.491-3.473c-1.294,0.868-1.294,1.295,0,1.295c2.605,0.879,2.605,2.615,5.651,5.656
	c3.479,4.336,5.21,5.199,9.551,5.635c0.847,0,1.747,0.432,2.604,0.879l-8.26,2.163l-15.18,3.919c-0.448,0.442-0.448,0.853,0,1.315
	H551.878z"/>
<path fill="#C8AA55" d="M499.366,122.339c6.704,0,12.848,2.271,17.738,6.109l-6.827,6.873c-3.112-2.174-6.873-3.443-10.911-3.443
	c-10.546,0-19.126,8.632-19.126,19.178c0,10.572,8.58,19.197,19.126,19.197c4.038,0,7.798-1.274,10.911-3.411l6.827,6.828
	c-4.89,3.847-11.034,6.169-17.738,6.169c-15.822,0-28.722-12.945-28.722-28.783C470.644,135.229,483.543,122.339,499.366,122.339"/>
<path fill="#C8AA55" d="M499.366,112.733c9.329,0,17.903,3.37,24.54,8.933l6.802-6.786c-8.384-7.31-19.388-11.743-31.341-11.743
	c-26.364,0-47.925,21.555-47.925,47.919c0,26.415,21.561,47.935,47.925,47.935c26.384,0,47.919-21.521,47.919-47.935v-0.051v-0.052
	v-4.736h-47.919v9.704h38.026c-2.395,18.854-18.556,33.5-38.026,33.5c-21.067,0-38.338-17.225-38.338-38.365
	C461.028,129.952,478.299,112.733,499.366,112.733"/>
<path fill="#C8AA55" d="M500,236.92l-83.416-21.916V14.665h166.831v200.339L500,236.92z M424.979,208.866L500,228.111l75.021-19.245
	V23.059H424.979V208.866z"/>
<rect fill="none" width="1000" height="1000"/>
<rect fill="none" width="1000" height="1000"/>
</svg>
