<?xml version="1.0" encoding="utf-8"?>
<!-- Generator: Adobe Illustrator 16.0.0, SVG Export Plug-In . SVG Version: 6.00 Build 0)  -->
<!DOCTYPE svg PUBLIC "-//W3C//DTD SVG 1.1//EN" "http://www.w3.org/Graphics/SVG/1.1/DTD/svg11.dtd">
<svg version="1.1" id="Layer_1" xmlns="http://www.w3.org/2000/svg" xmlns:xlink="http://www.w3.org/1999/xlink" x="0px" y="0px"
	 width="1000px" height="1000px" viewBox="0 0 1000 1000" enable-background="new 0 0 1000 1000" xml:space="preserve">
<g>
	<path fill="#D1AD67" d="M968.166,958.068v-5.584c-500.54,0-907.759-407.22-907.759-907.76h-5.584
		c0,123.299,24.149,242.912,71.776,355.515C172.602,509,238.456,606.677,322.335,690.556S503.891,840.29,612.65,886.292
		C725.254,933.919,844.866,958.068,968.166,958.068z"/>
</g>
<g>
	<polygon fill="#D1AD67" points="37.821,68.952 57.615,48.716 77.407,68.951 81.399,65.048 57.615,40.733 33.831,65.047 	"/>
</g>
<g>
	<path fill="#D1AD67" d="M637.292,901.16c0,14.008,11.354,25.363,25.362,25.363c14.009,0,25.364-11.355,25.364-25.363
		s-11.355-25.364-25.364-25.364C648.646,875.796,637.292,887.152,637.292,901.16"/>
</g>
</svg>
