<?xml version="1.0" encoding="utf-8"?>
<!-- Generator: Adobe Illustrator 16.0.0, SVG Export Plug-In . SVG Version: 6.00 Build 0)  -->
<!DOCTYPE svg PUBLIC "-//W3C//DTD SVG 1.1//EN" "http://www.w3.org/Graphics/SVG/1.1/DTD/svg11.dtd">
<svg version="1.1" id="Layer_1" xmlns="http://www.w3.org/2000/svg" xmlns:xlink="http://www.w3.org/1999/xlink" x="0px" y="0px"
	 width="1000px" height="1000px" viewBox="0 0 1000 1000" enable-background="new 0 0 1000 1000" xml:space="preserve">
<g>
	<path fill="#D1AD67" d="M33.83,958.068v-5.584c500.54,0,907.759-407.22,907.759-907.76h5.584
		c0,123.299-24.149,242.912-71.776,355.515C829.395,509,763.54,606.677,679.661,690.556S498.105,840.29,389.345,886.292
		C276.742,933.919,157.129,958.068,33.83,958.068z"/>
</g>
<g>
	<polygon fill="#D1AD67" points="964.175,68.952 944.381,48.716 924.589,68.951 920.597,65.048 944.381,40.733 968.165,65.047 	"/>
</g>
<g>
	<path fill="#D1AD67" d="M364.704,901.16c0,14.008-11.355,25.363-25.363,25.363c-14.008,0-25.364-11.355-25.364-25.363
		s11.356-25.364,25.364-25.364C353.349,875.796,364.704,887.152,364.704,901.16"/>
</g>
</svg>
